<?xml version="1.0" encoding="utf-8"?>
<!-- Generator: Adobe Illustrator 16.0.4, SVG Export Plug-In . SVG Version: 6.00 Build 0)  -->
<!DOCTYPE svg PUBLIC "-//W3C//DTD SVG 1.1//EN" "http://www.w3.org/Graphics/SVG/1.1/DTD/svg11.dtd">
<svg version="1.1" id="Layer_3" xmlns="http://www.w3.org/2000/svg" xmlns:xlink="http://www.w3.org/1999/xlink" x="0px" y="0px"
	 width="220.25px" height="51px" viewBox="-78.361 -3.75 220.25 51" enable-background="new -78.361 -3.75 220.25 51"
	 xml:space="preserve">
<g>
	<polygon fill="#FFFFFF" points="21.533,42.012 2.079,-2.017 -0.403,-2.017 -0.403,45.273 2.213,45.273 2.213,4.295 20.392,45.273 
		22.74,45.273 40.85,4.368 40.85,45.273 43.468,45.273 43.468,-2.017 41.053,-2.017 	"/>
	<path fill="#FFFFFF" d="M66.323,19.544c-1.352-0.937-2.953-1.403-4.805-1.403c-2.08,0-3.738,0.654-4.977,1.965
		c-1.237,1.311-1.855,3.297-1.855,5.959c0,2.684,0.592,4.604,1.777,5.757s2.818,1.731,4.898,1.731c1.103,0,2.064-0.15,2.887-0.453
		c0.821-0.301,1.575-0.773,2.262-1.42l0.188,1.561h2.184V12.212h-2.559V19.544z M66.323,29.715
		c-0.562,0.604-1.206,1.051-1.934,1.342c-0.729,0.291-1.52,0.437-2.371,0.437c-1.728,0-2.953-0.421-3.682-1.263
		c-0.729-0.843-1.093-2.231-1.093-4.166c0-2.017,0.395-3.498,1.186-4.445c0.79-0.947,2.008-1.42,3.651-1.42
		c0.894,0,1.694,0.13,2.402,0.39c0.707,0.261,1.319,0.62,1.84,1.077V29.715z"/>
	<path fill="#FFFFFF" d="M83,18.936c-0.946-0.53-2.147-0.795-3.604-0.795c-2.454,0-4.249,0.681-5.382,2.043
		c-1.134,1.363-1.701,3.229-1.701,5.601c0,2.642,0.656,4.597,1.966,5.866c1.312,1.269,3.286,1.902,5.929,1.902
		c0.873,0,1.71-0.073,2.512-0.218c0.8-0.146,1.523-0.354,2.168-0.624v-1.998c-1.27,0.521-2.663,0.78-4.182,0.78
		c-1.352,0-2.438-0.14-3.26-0.421c-0.822-0.281-1.436-0.743-1.84-1.389c-0.406-0.645-0.65-1.528-0.734-2.651h10.951v-2.776
		c0-1.166-0.234-2.211-0.701-3.136C84.653,20.194,83.946,19.465,83,18.936z M83.546,25.191h-8.674c0-1.664,0.322-2.912,0.967-3.744
		s1.852-1.248,3.62-1.248c1.456,0,2.501,0.328,3.136,0.983c0.634,0.655,0.951,1.585,0.951,2.792V25.191z"/>
	<path fill="#FFFFFF" d="M97.866,25.846c-0.707-0.373-1.633-0.737-2.775-1.091c-0.875-0.291-1.588-0.536-2.139-0.733
		c-0.55-0.197-0.956-0.437-1.216-0.719c-0.261-0.279-0.39-0.659-0.39-1.138c0-0.707,0.285-1.19,0.857-1.451
		c0.572-0.26,1.502-0.39,2.793-0.39c1.206,0,2.465,0.219,3.774,0.654v-2.246c-0.54-0.166-1.175-0.307-1.903-0.421
		c-0.728-0.114-1.486-0.171-2.277-0.171c-2.039,0-3.516,0.348-4.431,1.045s-1.372,1.699-1.372,3.01c0,0.895,0.188,1.607,0.561,2.138
		c0.375,0.53,0.895,0.952,1.561,1.265c0.666,0.311,1.424,0.613,2.277,0.904c0.957,0.311,1.742,0.582,2.355,0.811
		c0.613,0.229,1.072,0.489,1.373,0.78c0.301,0.292,0.453,0.718,0.453,1.28c0,0.769-0.281,1.295-0.843,1.574
		c-0.562,0.281-1.497,0.422-2.809,0.422c-0.77,0-1.544-0.062-2.323-0.188c-0.781-0.125-1.525-0.312-2.232-0.562v2.246
		c0.582,0.208,1.307,0.374,2.17,0.499c0.862,0.125,1.772,0.188,2.729,0.188c1.872,0,3.317-0.338,4.337-1.014
		c1.019-0.676,1.529-1.742,1.529-3.199c0-0.873-0.167-1.579-0.5-2.121C99.094,26.68,98.573,26.221,97.866,25.846z"/>
	<rect x="104.137" y="12.648" fill="#FFFFFF" width="2.84" height="2.34"/>
	<polygon fill="#FFFFFF" points="102.109,20.48 104.387,20.48 104.387,33.24 106.946,33.24 106.946,18.453 102.359,18.453 	"/>
	<path fill="#FFFFFF" d="M118.661,18.249c-0.489-0.072-0.963-0.108-1.42-0.108c-2.205,0-3.844,0.421-4.914,1.262
		c-1.072,0.844-1.607,2.19-1.607,4.041c0,1.021,0.198,1.898,0.593,2.637c0.396,0.739,1.009,1.316,1.842,1.732
		c-0.771,0.229-1.347,0.619-1.731,1.17c-0.387,0.551-0.578,1.128-0.578,1.73c0,1.832,1.362,2.746,4.088,2.746h3.931
		c0.978,0,1.658,0.114,2.044,0.344c0.385,0.229,0.577,0.613,0.577,1.154c0,0.77-0.364,1.248-1.093,1.436
		c-0.728,0.187-1.871,0.28-3.432,0.28c-0.957,0-1.955-0.073-2.995-0.218c-1.04-0.146-1.976-0.355-2.808-0.625v2.123
		c0.748,0.27,1.648,0.467,2.699,0.592c1.05,0.125,2.125,0.188,3.229,0.188c2.226,0,3.941-0.281,5.147-0.842
		c1.206-0.562,1.81-1.571,1.81-3.027c0-1.145-0.395-2.013-1.186-2.605c-0.79-0.593-1.924-0.889-3.399-0.889h-4.087
		c-0.75,0-1.266-0.084-1.545-0.25c-0.281-0.166-0.422-0.426-0.422-0.78c0-0.54,0.281-0.982,0.843-1.326
		c0.562-0.343,1.165-0.524,1.81-0.546c0.353,0.042,0.66,0.078,0.92,0.109s0.557,0.047,0.889,0.047c1.977,0,3.443-0.453,4.4-1.357
		s1.436-2.179,1.436-3.822c0-0.664-0.105-1.273-0.312-1.824c-0.209-0.551-0.552-1.025-1.03-1.42h2.684l0.094-1.746H119.8
		C119.528,18.391,119.149,18.322,118.661,18.249z M121.141,23.443c0,1.207-0.281,2.05-0.844,2.527
		c-0.561,0.48-1.58,0.719-3.057,0.719c-1.456,0-2.48-0.255-3.074-0.765c-0.592-0.511-0.889-1.337-0.889-2.481
		c0-1.248,0.312-2.131,0.937-2.65c0.624-0.521,1.633-0.781,3.026-0.781c1.414,0,2.418,0.271,3.011,0.811
		C120.844,21.364,121.141,22.238,121.141,23.443z"/>
	<path fill="#FFFFFF" d="M139.925,19.45c-0.854-0.873-2.216-1.31-4.088-1.31c-1.229,0-2.314,0.188-3.26,0.561
		c-0.948,0.375-1.774,0.854-2.481,1.436l-0.156-1.684h-2.309V33.24h2.559V22.071c0.582-0.583,1.28-1.04,2.091-1.374
		c0.811-0.332,1.674-0.498,2.59-0.498c1.476,0,2.475,0.255,2.994,0.764c0.52,0.51,0.78,1.41,0.78,2.699v9.578h2.559v-9.672
		C141.203,21.697,140.776,20.324,139.925,19.45z"/>
	<polygon fill="#FFFFFF" points="-27.108,-1.599 -47.567,45.201 -44.615,45.201 -25.635,1.17 -7.777,42.771 -24.782,42.824 
		-24.791,45.201 -3.764,45.201 -24.022,-1.599 	"/>
	<polygon fill="#FFFFFF" points="-34.882,-1.599 -55.053,-1.599 -55.053,0.741 -37.33,0.741 -55.305,42.372 -74.157,-1.599 
		-77.176,-1.599 -56.917,45.98 -53.832,45.98 -33.372,-1.599 	"/>
</g>
</svg>
