<svg width="1000" height="1000" viewBox="0 0 1000 1000" fill="none" xmlns="http://www.w3.org/2000/svg">
<rect width="1000" height="1000" fill="white"/>
<g clip-path="url(#clip0_218_44)">
<path d="M107 893H893V107H107V893Z" fill="#B31E30"/>
<path d="M390.282 354.399V393.023H399.115C410.264 393.023 415.32 387.601 415.32 372.432V370.056H428.296V430.002H415.32V427.443C415.32 412.396 410.264 406.669 399.115 406.669H390.282V449.862H427.322C444.197 449.862 450.289 438.714 452.299 417.391H465.763V463.63H344.104V449.862H354.4C360.796 449.862 364.208 448.095 364.208 436.947V364.878C364.208 356.836 360.553 354.399 351.963 354.399H348.186C339.352 354.399 335.149 356.471 332.042 365.67L298.474 463.63H272.949L253.515 399.785H253.15L231.584 463.63H205.753L170.907 360.979C169.383 355.922 166.764 354.399 159.697 354.399H157.139V340.692H210.871V354.399H203.073C198.991 354.399 197.346 356.836 197.346 359.273C197.346 361.101 198.017 363.416 198.991 365.974L222.263 434.571H222.628L244.803 370.056L241.696 361.283C239.808 355.8 236.092 354.399 230.67 354.399H226.283V340.692H281.782V354.399H271.974C268.197 354.399 266.735 356.044 266.735 358.481C266.735 360.369 267.649 362.989 268.258 364.756L288.606 433.353H288.971L312.608 366.34C313.339 364.147 314.009 362.319 314.009 360.004C314.009 357.08 312.608 354.399 306.089 354.399H297.134V340.692H465.762V382.727H451.933C449.131 364.939 447.547 354.399 422.874 354.399H390.282ZM592.356 463.63V417.391H578.162C576.273 438.531 572.435 449.862 553.184 449.862H525.222V362.928C525.222 356.105 528.024 354.399 536.187 354.399H546.605V340.692H478.678V354.399H489.4C496.832 354.399 499.33 356.836 499.33 362.441V441.638C499.33 448.095 495.797 449.862 490.558 449.862H478.678V463.63H592.356ZM718.523 463.63V417.391H704.268C702.379 438.531 698.419 449.862 679.412 449.862H651.388V362.928C651.388 356.105 654.191 354.399 662.354 354.399H672.711V340.692H604.723V354.399H615.506C622.999 354.399 625.497 356.836 625.497 362.441V441.638C625.497 448.095 621.903 449.862 616.725 449.862H604.723V463.63H718.523ZM812.097 349.952C810.94 348.795 799.609 337.037 777.494 337.037C754.284 337.037 730.829 348.795 730.829 374.016C730.829 396.861 749.044 407.278 770.001 411.787C776.946 413.249 781.089 414.041 787.425 415.381C803.142 418.732 813.621 423.483 813.621 434.388C813.621 442.673 804.848 451.568 787.485 451.568C763.239 451.568 748.862 438.043 745.877 417.391H731.621V463.63H744.232L748.313 452.604C751.298 455.223 763.117 467.285 785.597 467.285C814.23 467.285 835.857 454.553 835.857 429.393C835.857 405.024 815.692 394.546 791.08 389.611C786.693 388.515 782.673 387.845 778.165 386.809C762.873 383.519 753.065 379.742 753.065 368.777C753.065 359.273 763.117 352.754 778.225 352.754C800.949 352.754 809.722 367.193 814.412 382.727H828.242V340.692H818.25L812.097 349.952ZM247.849 655.287V641.458H238.589C229.999 641.458 226.832 638.899 226.832 631.954V598.448H234.447C245.961 598.448 250.956 603.443 250.956 616.48V620.562H263.871V563.967H250.956V566.404C250.956 575.968 247.484 584.741 235.543 584.741H226.832V545.995H251.017C278.249 545.995 281.112 559.702 282.94 574.262H296.22V532.288H179.862V545.995H192.168C197.711 545.995 200.818 548.493 200.818 552.94V632.381C200.818 637.559 198.016 641.458 191.436 641.458H179.862V655.287H247.849ZM762.691 528.572C722.361 528.572 695.678 556.778 695.678 593.757C695.678 630.675 722.361 659.125 762.691 659.125C802.898 659.125 829.643 630.675 829.643 593.757C829.643 556.778 802.898 528.572 762.691 528.572ZM762.691 543.071C791.811 543.071 800.522 567.256 800.522 593.757C800.522 620.258 791.811 644.504 762.691 644.504C733.388 644.504 724.737 620.258 724.737 593.757C724.737 567.256 733.388 543.071 762.691 543.071ZM649.256 542.34C646.576 539.964 635.062 528.572 612.338 528.572C575.968 528.572 553.123 556.291 553.123 593.757C553.123 631.528 576.334 659.125 612.338 659.125C635.488 659.125 648.038 648.525 650.901 645.905L657.785 655.287H670.396V612.643C670.396 605.393 673.076 603.443 680.265 603.443H683.676V589.675H626.898V603.443H635.305C641.397 603.443 645.114 606.185 645.114 612.155V619.344C645.114 633.417 636.463 643.225 617.638 643.225C594.062 643.225 582.243 622.024 582.243 593.757C582.243 565.916 594.062 544.594 616.907 544.594C640.727 544.594 648.83 566.769 651.571 574.262H666.801V532.288H653.825L649.256 542.34ZM546.97 626.411V629.761C546.97 650.962 536.857 659.125 521.505 659.125C503.534 659.125 497.502 650.474 497.502 633.721V627.324C497.502 606.185 488.486 597.656 467.895 597.656H458.148V634.818C458.148 639.752 460.402 641.458 465.763 641.458H479.287V655.287H356.471V641.458H370.117C373.894 641.458 375.296 640.544 375.296 638.351C375.296 637.194 374.931 635.305 374.199 633.295C373.529 631.65 367.742 615.81 367.742 615.81H323.879C323.879 615.81 318.457 630.431 317.543 632.868C316.933 634.696 316.446 636.219 316.446 637.986C316.446 640.605 318.64 641.458 322.295 641.458H335.332V655.287H277.457V641.458C287.265 641.458 293.479 640.057 296.952 631.467L336.185 532.288H359.761L399.969 631.467C403.319 640.179 409.655 641.458 419.463 641.458H424.459C429.759 641.458 432.135 639.752 432.135 634.818V552.696C432.135 547.762 430.246 545.995 424.459 545.995H411.544V532.288H492.325C519.13 532.288 531.741 544.96 531.741 564.15C531.741 587.97 508.042 592.661 496.955 593.27V593.574C509.931 594.549 520.896 599.91 520.896 618.856V626.045C520.896 638.656 523.577 641.458 528.024 641.458C532.411 641.458 534.726 637.986 534.726 629.761V626.411H546.97ZM362.685 602.164L346.114 557.387H345.567L328.996 602.164H362.685ZM505.91 564.942C505.91 554.159 498.173 545.995 480.993 545.995H458.148V583.949H480.993C496.832 583.949 505.91 576.821 505.91 564.942Z" fill="#FFCC02"/>
</g>
<defs>
<clipPath id="clip0_218_44">
<rect width="786" height="786" fill="white" transform="translate(107 107)"/>
</clipPath>
</defs>
</svg>
