<svg width="1000" height="1000" viewBox="0 0 1000 1000" fill="none" xmlns="http://www.w3.org/2000/svg">
<rect width="1000" height="1000" fill="white"/>
<g clip-path="url(#clip0_218_44)">
<path d="M772.482 386.739C768.335 389.957 695.12 431.212 695.12 522.945C695.12 629.049 788.283 666.586 791.071 667.515C790.642 669.803 776.271 718.923 741.952 768.972C711.35 813.015 679.39 856.987 630.771 856.987C582.152 856.987 569.64 828.745 513.513 828.745C458.817 828.745 439.369 857.916 394.897 857.916C350.425 857.916 319.394 817.162 283.716 767.113C242.39 708.341 209 617.037 209 530.38C209 391.387 299.374 317.672 388.319 317.672C435.58 317.672 474.975 348.702 504.647 348.702C532.889 348.702 576.933 315.813 630.7 315.813C651.077 315.813 724.292 317.672 772.482 386.739ZM605.175 256.969C627.411 230.586 643.141 193.979 643.141 157.371C643.141 152.295 642.712 147.147 641.782 143C605.604 144.358 562.561 167.095 536.607 197.196C516.23 220.362 497.212 256.969 497.212 294.077C497.212 299.654 498.141 305.231 498.57 307.018C500.858 307.447 504.576 307.948 508.294 307.948C540.754 307.948 581.58 286.212 605.175 256.969Z" fill="black"/>
</g>
<defs>
<clipPath id="clip0_218_44">
<rect width="582" height="714.988" fill="white" transform="translate(209 143)"/>
</clipPath>
</defs>
</svg>
