<svg width="1868" height="648" viewBox="0 0 1868 648" fill="none" xmlns="http://www.w3.org/2000/svg">
<rect width="1868" height="648" fill="white"/>
<path d="M515.818 92.8843H492.807V76.0811H559.913V92.8843H537.01V151H515.818V92.8843ZM604.626 92.0281C611.832 92.0281 617.612 94.1686 621.964 98.4497C626.388 102.731 628.6 109.188 628.6 117.822V151H608.264V121.139C608.264 113.219 605.089 109.259 598.739 109.259C595.243 109.259 592.424 110.401 590.284 112.684C588.215 114.968 587.18 118.392 587.18 122.959V151H566.845V71.5859H587.18V98.3427C589.392 96.2735 591.996 94.7038 594.993 93.6335C597.99 92.5632 601.201 92.0281 604.626 92.0281ZM701.496 122.103C701.496 122.245 701.389 123.922 701.175 127.133H659.006C659.862 130.13 661.503 132.449 663.929 134.09C666.427 135.659 669.531 136.444 673.241 136.444C676.023 136.444 678.414 136.052 680.412 135.267C682.481 134.482 684.55 133.198 686.619 131.414L697.322 142.545C691.685 148.824 683.444 151.963 672.599 151.963C665.82 151.963 659.862 150.679 654.725 148.11C649.588 145.542 645.592 141.974 642.738 137.408C639.955 132.841 638.564 127.668 638.564 121.889C638.564 116.181 639.92 111.079 642.631 106.584C645.414 102.017 649.231 98.4497 654.083 95.8811C658.935 93.3124 664.393 92.0281 670.458 92.0281C676.238 92.0281 681.482 93.2411 686.191 95.667C690.9 98.0216 694.611 101.482 697.322 106.049C700.105 110.544 701.496 115.895 701.496 122.103ZM670.565 106.477C667.426 106.477 664.786 107.369 662.645 109.152C660.576 110.936 659.256 113.362 658.685 116.43H682.445C681.874 113.362 680.519 110.936 678.378 109.152C676.309 107.369 673.705 106.477 670.565 106.477ZM777.551 152.498C766.42 152.498 757.751 149.466 751.544 143.401C745.407 137.336 742.339 128.738 742.339 117.608V76.0811H763.531V116.965C763.531 128.952 768.275 134.946 777.765 134.946C787.184 134.946 791.893 128.952 791.893 116.965V76.0811H812.763V117.608C812.763 128.738 809.659 137.336 803.452 143.401C797.315 149.466 788.682 152.498 777.551 152.498ZM873.38 151L857.861 127.775L842.556 151H818.368L845.66 113.112L819.545 76.0811H843.412L858.396 97.7005L873.166 76.0811H896.069L869.955 112.256L897.782 151H873.38ZM970.38 76.0811C977.159 76.0811 983.045 77.2227 988.04 79.5059C993.034 81.7178 996.887 84.9286 999.599 89.1384C1002.31 93.2768 1003.67 98.1643 1003.67 103.801C1003.67 109.438 1002.31 114.325 999.599 118.464C996.887 122.602 993.034 125.813 988.04 128.096C983.045 130.308 977.159 131.414 970.38 131.414H957.323V151H936.132V76.0811H970.38ZM969.096 114.718C973.449 114.718 976.731 113.79 978.943 111.935C981.154 110.009 982.26 107.297 982.26 103.801C982.26 100.305 981.154 97.5935 978.943 95.667C976.731 93.7405 973.449 92.7773 969.096 92.7773H957.323V114.718H969.096ZM1032.93 99.9481C1035 97.3081 1037.67 95.3459 1040.96 94.0616C1044.31 92.7059 1048.13 92.0281 1052.41 92.0281V110.33C1050.55 110.116 1049.02 110.009 1047.81 110.009C1043.45 110.009 1040.03 111.186 1037.53 113.541C1035.11 115.895 1033.89 119.498 1033.89 124.35V151H1013.56V92.9913H1032.93V99.9481ZM1089.39 151.963C1083.18 151.963 1077.58 150.679 1072.59 148.11C1067.59 145.542 1063.67 141.974 1060.81 137.408C1058.03 132.841 1056.64 127.668 1056.64 121.889C1056.64 116.181 1058.03 111.043 1060.81 106.477C1063.67 101.91 1067.56 98.3784 1072.48 95.8811C1077.47 93.3124 1083.11 92.0281 1089.39 92.0281C1095.67 92.0281 1101.3 93.3124 1106.3 95.8811C1111.29 98.3784 1115.18 101.91 1117.96 106.477C1120.75 110.972 1122.14 116.109 1122.14 121.889C1122.14 127.668 1120.75 132.841 1117.96 137.408C1115.18 141.974 1111.29 145.542 1106.3 148.11C1101.3 150.679 1095.67 151.963 1089.39 151.963ZM1089.39 135.802C1092.96 135.802 1095.88 134.589 1098.16 132.163C1100.45 129.666 1101.59 126.241 1101.59 121.889C1101.59 117.608 1100.45 114.254 1098.16 111.828C1095.88 109.402 1092.96 108.189 1089.39 108.189C1085.82 108.189 1082.9 109.402 1080.61 111.828C1078.33 114.254 1077.19 117.608 1077.19 121.889C1077.19 126.241 1078.33 129.666 1080.61 132.163C1082.9 134.589 1085.82 135.802 1089.39 135.802ZM1161.21 151.963C1154.78 151.963 1149.04 150.679 1143.97 148.11C1138.91 145.542 1134.95 141.974 1132.09 137.408C1129.31 132.841 1127.92 127.668 1127.92 121.889C1127.92 116.109 1129.31 110.972 1132.09 106.477C1134.95 101.91 1138.91 98.3784 1143.97 95.8811C1149.04 93.3124 1154.78 92.0281 1161.21 92.0281C1167.77 92.0281 1173.44 93.4551 1178.22 96.3092C1183 99.0919 1186.39 102.981 1188.39 107.975L1172.66 116.002C1170.02 110.794 1166.16 108.189 1161.1 108.189C1157.46 108.189 1154.43 109.402 1152 111.828C1149.65 114.254 1148.47 117.608 1148.47 121.889C1148.47 126.241 1149.65 129.666 1152 132.163C1154.43 134.589 1157.46 135.802 1161.1 135.802C1166.16 135.802 1170.02 133.198 1172.66 127.989L1188.39 136.016C1186.39 141.011 1183 144.935 1178.22 147.789C1173.44 150.572 1167.77 151.963 1161.21 151.963ZM1254.71 122.103C1254.71 122.245 1254.61 123.922 1254.39 127.133H1212.22C1213.08 130.13 1214.72 132.449 1217.15 134.09C1219.64 135.659 1222.75 136.444 1226.46 136.444C1229.24 136.444 1231.63 136.052 1233.63 135.267C1235.7 134.482 1237.77 133.198 1239.84 131.414L1250.54 142.545C1244.9 148.824 1236.66 151.963 1225.82 151.963C1219.04 151.963 1213.08 150.679 1207.94 148.11C1202.8 145.542 1198.81 141.974 1195.95 137.408C1193.17 132.841 1191.78 127.668 1191.78 121.889C1191.78 116.181 1193.14 111.079 1195.85 106.584C1198.63 102.017 1202.45 98.4497 1207.3 95.8811C1212.15 93.3124 1217.61 92.0281 1223.67 92.0281C1229.45 92.0281 1234.7 93.2411 1239.41 95.667C1244.12 98.0216 1247.83 101.482 1250.54 106.049C1253.32 110.544 1254.71 115.895 1254.71 122.103ZM1223.78 106.477C1220.64 106.477 1218 107.369 1215.86 109.152C1213.79 110.936 1212.47 113.362 1211.9 116.43H1235.66C1235.09 113.362 1233.74 110.936 1231.59 109.152C1229.53 107.369 1226.92 106.477 1223.78 106.477ZM1285.17 151.963C1280.32 151.963 1275.54 151.428 1270.83 150.358C1266.12 149.216 1262.34 147.754 1259.49 145.97L1265.59 132.056C1268.23 133.697 1271.37 135.017 1275.01 136.016C1278.64 136.944 1282.25 137.408 1285.81 137.408C1289.1 137.408 1291.42 137.086 1292.77 136.444C1294.2 135.731 1294.91 134.732 1294.91 133.448C1294.91 132.163 1294.06 131.271 1292.34 130.772C1290.7 130.201 1288.06 129.666 1284.42 129.166C1279.79 128.596 1275.83 127.846 1272.54 126.919C1269.33 125.991 1266.55 124.279 1264.2 121.782C1261.84 119.284 1260.66 115.788 1260.66 111.293C1260.66 107.583 1261.77 104.301 1263.98 101.446C1266.19 98.5211 1269.4 96.2378 1273.61 94.5968C1277.89 92.8843 1283 92.0281 1288.92 92.0281C1293.13 92.0281 1297.3 92.4562 1301.44 93.3124C1305.58 94.1686 1309.04 95.3816 1311.82 96.9513L1305.72 110.758C1300.58 107.904 1295.02 106.477 1289.03 106.477C1285.81 106.477 1283.46 106.869 1281.96 107.654C1280.46 108.368 1279.71 109.331 1279.71 110.544C1279.71 111.899 1280.53 112.863 1282.18 113.434C1283.82 113.933 1286.53 114.468 1290.31 115.039C1295.09 115.752 1299.05 116.573 1302.19 117.501C1305.33 118.428 1308.04 120.141 1310.32 122.638C1312.68 125.064 1313.86 128.489 1313.86 132.912C1313.86 136.551 1312.75 139.834 1310.54 142.759C1308.33 145.613 1305.04 147.861 1300.69 149.502C1296.41 151.143 1291.24 151.963 1285.17 151.963ZM1343.7 151.963C1338.85 151.963 1334.07 151.428 1329.36 150.358C1324.65 149.216 1320.87 147.754 1318.02 145.97L1324.12 132.056C1326.76 133.697 1329.9 135.017 1333.54 136.016C1337.17 136.944 1340.78 137.408 1344.35 137.408C1347.63 137.408 1349.95 137.086 1351.3 136.444C1352.73 135.731 1353.44 134.732 1353.44 133.448C1353.44 132.163 1352.59 131.271 1350.87 130.772C1349.23 130.201 1346.59 129.666 1342.95 129.166C1338.32 128.596 1334.36 127.846 1331.07 126.919C1327.86 125.991 1325.08 124.279 1322.73 121.782C1320.37 119.284 1319.19 115.788 1319.19 111.293C1319.19 107.583 1320.3 104.301 1322.51 101.446C1324.72 98.5211 1327.93 96.2378 1332.14 94.5968C1336.43 92.8843 1341.53 92.0281 1347.45 92.0281C1351.66 92.0281 1355.83 92.4562 1359.97 93.3124C1364.11 94.1686 1367.57 95.3816 1370.35 96.9513L1364.25 110.758C1359.12 107.904 1353.55 106.477 1347.56 106.477C1344.35 106.477 1341.99 106.869 1340.49 107.654C1338.99 108.368 1338.24 109.331 1338.24 110.544C1338.24 111.899 1339.07 112.863 1340.71 113.434C1342.35 113.933 1345.06 114.468 1348.84 115.039C1353.62 115.752 1357.58 116.573 1360.72 117.501C1363.86 118.428 1366.57 120.141 1368.85 122.638C1371.21 125.064 1372.39 128.489 1372.39 132.912C1372.39 136.551 1371.28 139.834 1369.07 142.759C1366.86 145.613 1363.57 147.861 1359.22 149.502C1354.94 151.143 1349.77 151.963 1343.7 151.963Z" fill="url(#paint0_linear_160_209)"/>
<path d="M186.751 385L182.461 378.85C182.281 378.87 182.011 378.88 181.651 378.88H176.911V385H173.011V364H181.651C183.471 364 185.051 364.3 186.391 364.9C187.751 365.5 188.791 366.36 189.511 367.48C190.231 368.6 190.591 369.93 190.591 371.47C190.591 373.05 190.201 374.41 189.421 375.55C188.661 376.69 187.561 377.54 186.121 378.1L190.951 385H186.751ZM186.661 371.47C186.661 370.13 186.221 369.1 185.341 368.38C184.461 367.66 183.171 367.3 181.471 367.3H176.911V375.67H181.471C183.171 375.67 184.461 375.31 185.341 374.59C186.221 373.85 186.661 372.81 186.661 371.47ZM209.655 377.08C209.655 377.34 209.635 377.71 209.595 378.19H197.025C197.245 379.37 197.815 380.31 198.735 381.01C199.675 381.69 200.835 382.03 202.215 382.03C203.975 382.03 205.425 381.45 206.565 380.29L208.575 382.6C207.855 383.46 206.945 384.11 205.845 384.55C204.745 384.99 203.505 385.21 202.125 385.21C200.365 385.21 198.815 384.86 197.475 384.16C196.135 383.46 195.095 382.49 194.355 381.25C193.635 379.99 193.275 378.57 193.275 376.99C193.275 375.43 193.625 374.03 194.325 372.79C195.045 371.53 196.035 370.55 197.295 369.85C198.555 369.15 199.975 368.8 201.555 368.8C203.115 368.8 204.505 369.15 205.725 369.85C206.965 370.53 207.925 371.5 208.605 372.76C209.305 374 209.655 375.44 209.655 377.08ZM201.555 371.8C200.355 371.8 199.335 372.16 198.495 372.88C197.675 373.58 197.175 374.52 196.995 375.7H206.085C205.925 374.54 205.435 373.6 204.615 372.88C203.795 372.16 202.775 371.8 201.555 371.8ZM218.207 385.21C216.907 385.21 215.637 385.04 214.397 384.7C213.157 384.36 212.167 383.93 211.427 383.41L212.867 380.56C213.587 381.04 214.447 381.43 215.447 381.73C216.467 382.01 217.467 382.15 218.447 382.15C220.687 382.15 221.807 381.56 221.807 380.38C221.807 379.82 221.517 379.43 220.937 379.21C220.377 378.99 219.467 378.78 218.207 378.58C216.887 378.38 215.807 378.15 214.967 377.89C214.147 377.63 213.427 377.18 212.807 376.54C212.207 375.88 211.907 374.97 211.907 373.81C211.907 372.29 212.537 371.08 213.797 370.18C215.077 369.26 216.797 368.8 218.957 368.8C220.057 368.8 221.157 368.93 222.257 369.19C223.357 369.43 224.257 369.76 224.957 370.18L223.517 373.03C222.157 372.23 220.627 371.83 218.927 371.83C217.827 371.83 216.987 372 216.407 372.34C215.847 372.66 215.567 373.09 215.567 373.63C215.567 374.23 215.867 374.66 216.467 374.92C217.087 375.16 218.037 375.39 219.317 375.61C220.597 375.81 221.647 376.04 222.467 376.3C223.287 376.56 223.987 377 224.567 377.62C225.167 378.24 225.467 379.12 225.467 380.26C225.467 381.76 224.817 382.96 223.517 383.86C222.217 384.76 220.447 385.21 218.207 385.21ZM243.756 377.08C243.756 377.34 243.736 377.71 243.696 378.19H231.126C231.346 379.37 231.916 380.31 232.836 381.01C233.776 381.69 234.936 382.03 236.316 382.03C238.076 382.03 239.526 381.45 240.666 380.29L242.676 382.6C241.956 383.46 241.046 384.11 239.946 384.55C238.846 384.99 237.606 385.21 236.226 385.21C234.466 385.21 232.916 384.86 231.576 384.16C230.236 383.46 229.196 382.49 228.456 381.25C227.736 379.99 227.376 378.57 227.376 376.99C227.376 375.43 227.726 374.03 228.426 372.79C229.146 371.53 230.136 370.55 231.396 369.85C232.656 369.15 234.076 368.8 235.656 368.8C237.216 368.8 238.606 369.15 239.826 369.85C241.066 370.53 242.026 371.5 242.706 372.76C243.406 374 243.756 375.44 243.756 377.08ZM235.656 371.8C234.456 371.8 233.436 372.16 232.596 372.88C231.776 373.58 231.276 374.52 231.096 375.7H240.186C240.026 374.54 239.536 373.6 238.716 372.88C237.896 372.16 236.876 371.8 235.656 371.8ZM253.039 368.8C255.399 368.8 257.199 369.37 258.439 370.51C259.699 371.63 260.329 373.33 260.329 375.61V385H256.789V383.05C256.329 383.75 255.669 384.29 254.809 384.67C253.969 385.03 252.949 385.21 251.749 385.21C250.549 385.21 249.499 385.01 248.599 384.61C247.699 384.19 246.999 383.62 246.499 382.9C246.019 382.16 245.779 381.33 245.779 380.41C245.779 378.97 246.309 377.82 247.369 376.96C248.449 376.08 250.139 375.64 252.439 375.64H256.579V375.4C256.579 374.28 256.239 373.42 255.559 372.82C254.899 372.22 253.909 371.92 252.589 371.92C251.689 371.92 250.799 372.06 249.919 372.34C249.059 372.62 248.329 373.01 247.729 373.51L246.259 370.78C247.099 370.14 248.109 369.65 249.289 369.31C250.469 368.97 251.719 368.8 253.039 368.8ZM252.529 382.48C253.469 382.48 254.299 382.27 255.019 381.85C255.759 381.41 256.279 380.79 256.579 379.99V378.13H252.709C250.549 378.13 249.469 378.84 249.469 380.26C249.469 380.94 249.739 381.48 250.279 381.88C250.819 382.28 251.569 382.48 252.529 382.48ZM268.712 371.32C269.792 369.64 271.692 368.8 274.412 368.8V372.37C274.092 372.31 273.802 372.28 273.542 372.28C272.082 372.28 270.942 372.71 270.122 373.57C269.302 374.41 268.892 375.63 268.892 377.23V385H265.142V368.98H268.712V371.32ZM284.796 385.21C283.136 385.21 281.646 384.86 280.326 384.16C279.006 383.46 277.976 382.49 277.236 381.25C276.496 379.99 276.126 378.57 276.126 376.99C276.126 375.41 276.496 374 277.236 372.76C277.976 371.52 278.996 370.55 280.296 369.85C281.616 369.15 283.116 368.8 284.796 368.8C286.376 368.8 287.756 369.12 288.936 369.76C290.136 370.4 291.036 371.32 291.636 372.52L288.756 374.2C288.296 373.46 287.716 372.91 287.016 372.55C286.336 372.17 285.586 371.98 284.766 371.98C283.366 371.98 282.206 372.44 281.286 373.36C280.366 374.26 279.906 375.47 279.906 376.99C279.906 378.51 280.356 379.73 281.256 380.65C282.176 381.55 283.346 382 284.766 382C285.586 382 286.336 381.82 287.016 381.46C287.716 381.08 288.296 380.52 288.756 379.78L291.636 381.46C291.016 382.66 290.106 383.59 288.906 384.25C287.726 384.89 286.356 385.21 284.796 385.21ZM303.821 368.8C305.841 368.8 307.461 369.39 308.681 370.57C309.901 371.75 310.511 373.5 310.511 375.82V385H306.761V376.3C306.761 374.9 306.431 373.85 305.771 373.15C305.111 372.43 304.171 372.07 302.951 372.07C301.571 372.07 300.481 372.49 299.681 373.33C298.881 374.15 298.481 375.34 298.481 376.9V385H294.731V362.74H298.481V370.84C299.101 370.18 299.861 369.68 300.761 369.34C301.681 368.98 302.701 368.8 303.821 368.8ZM249.479 422.33L246.839 419.78C244.879 421.46 242.529 422.3 239.789 422.3C238.329 422.3 237.019 422.06 235.859 421.58C234.699 421.1 233.789 420.44 233.129 419.6C232.469 418.74 232.139 417.77 232.139 416.69C232.139 415.39 232.519 414.25 233.279 413.27C234.039 412.27 235.279 411.29 236.999 410.33C236.159 409.49 235.559 408.71 235.199 407.99C234.839 407.25 234.659 406.49 234.659 405.71C234.659 404.23 235.209 403.04 236.309 402.14C237.429 401.22 238.909 400.76 240.749 400.76C242.449 400.76 243.809 401.18 244.829 402.02C245.849 402.84 246.359 403.96 246.359 405.38C246.359 406.46 246.019 407.42 245.339 408.26C244.679 409.1 243.589 409.95 242.069 410.81L246.599 415.13C247.099 414.15 247.489 412.97 247.769 411.59L250.799 412.58C250.399 414.44 249.769 416.04 248.909 417.38L251.549 419.9L249.479 422.33ZM240.749 403.43C239.929 403.43 239.279 403.64 238.799 404.06C238.319 404.46 238.079 404.99 238.079 405.65C238.079 406.13 238.209 406.59 238.469 407.03C238.729 407.45 239.229 408.03 239.969 408.77C241.169 408.11 241.999 407.54 242.459 407.06C242.939 406.56 243.179 406.02 243.179 405.44C243.179 404.82 242.959 404.33 242.519 403.97C242.099 403.61 241.509 403.43 240.749 403.43ZM240.059 419.24C241.799 419.24 243.319 418.71 244.619 417.65L239.069 412.34C237.869 413 237.019 413.64 236.519 414.26C236.039 414.86 235.799 415.54 235.799 416.3C235.799 417.18 236.189 417.89 236.969 418.43C237.749 418.97 238.779 419.24 240.059 419.24ZM168.851 438H178.031C180.271 438 182.261 438.44 184.001 439.32C185.741 440.18 187.091 441.41 188.051 443.01C189.011 444.59 189.491 446.42 189.491 448.5C189.491 450.58 189.011 452.42 188.051 454.02C187.091 455.6 185.741 456.83 184.001 457.71C182.261 458.57 180.271 459 178.031 459H168.851V438ZM177.851 455.7C179.391 455.7 180.741 455.41 181.901 454.83C183.081 454.23 183.981 453.39 184.601 452.31C185.241 451.21 185.561 449.94 185.561 448.5C185.561 447.06 185.241 445.8 184.601 444.72C183.981 443.62 183.081 442.78 181.901 442.2C180.741 441.6 179.391 441.3 177.851 441.3H172.751V455.7H177.851ZM193.276 442.98H197.026V459H193.276V442.98ZM195.166 440.34C194.486 440.34 193.916 440.13 193.456 439.71C192.996 439.27 192.766 438.73 192.766 438.09C192.766 437.45 192.996 436.92 193.456 436.5C193.916 436.06 194.486 435.84 195.166 435.84C195.846 435.84 196.416 436.05 196.876 436.47C197.336 436.87 197.566 437.38 197.566 438C197.566 438.66 197.336 439.22 196.876 439.68C196.436 440.12 195.866 440.34 195.166 440.34ZM206.898 459.21C205.598 459.21 204.328 459.04 203.088 458.7C201.848 458.36 200.858 457.93 200.118 457.41L201.558 454.56C202.278 455.04 203.138 455.43 204.138 455.73C205.158 456.01 206.158 456.15 207.138 456.15C209.378 456.15 210.498 455.56 210.498 454.38C210.498 453.82 210.208 453.43 209.628 453.21C209.068 452.99 208.158 452.78 206.898 452.58C205.578 452.38 204.498 452.15 203.658 451.89C202.838 451.63 202.118 451.18 201.498 450.54C200.898 449.88 200.598 448.97 200.598 447.81C200.598 446.29 201.228 445.08 202.488 444.18C203.768 443.26 205.488 442.8 207.648 442.8C208.748 442.8 209.848 442.93 210.948 443.19C212.048 443.43 212.948 443.76 213.648 444.18L212.208 447.03C210.848 446.23 209.318 445.83 207.618 445.83C206.518 445.83 205.678 446 205.098 446.34C204.538 446.66 204.258 447.09 204.258 447.63C204.258 448.23 204.558 448.66 205.158 448.92C205.778 449.16 206.728 449.39 208.008 449.61C209.288 449.81 210.338 450.04 211.158 450.3C211.978 450.56 212.678 451 213.258 451.62C213.858 452.24 214.158 453.12 214.158 454.26C214.158 455.76 213.508 456.96 212.208 457.86C210.908 458.76 209.138 459.21 206.898 459.21ZM224.738 459.21C223.078 459.21 221.588 458.86 220.268 458.16C218.948 457.46 217.918 456.49 217.178 455.25C216.438 453.99 216.068 452.57 216.068 450.99C216.068 449.41 216.438 448 217.178 446.76C217.918 445.52 218.938 444.55 220.238 443.85C221.558 443.15 223.058 442.8 224.738 442.8C226.318 442.8 227.698 443.12 228.878 443.76C230.078 444.4 230.978 445.32 231.578 446.52L228.698 448.2C228.238 447.46 227.658 446.91 226.958 446.55C226.278 446.17 225.528 445.98 224.708 445.98C223.308 445.98 222.148 446.44 221.228 447.36C220.308 448.26 219.848 449.47 219.848 450.99C219.848 452.51 220.298 453.73 221.198 454.65C222.118 455.55 223.288 456 224.708 456C225.528 456 226.278 455.82 226.958 455.46C227.658 455.08 228.238 454.52 228.698 453.78L231.578 455.46C230.958 456.66 230.048 457.59 228.848 458.25C227.668 458.89 226.298 459.21 224.738 459.21ZM241.785 459.21C240.165 459.21 238.705 458.86 237.405 458.16C236.105 457.46 235.085 456.49 234.345 455.25C233.625 453.99 233.265 452.57 233.265 450.99C233.265 449.41 233.625 448 234.345 446.76C235.085 445.52 236.105 444.55 237.405 443.85C238.705 443.15 240.165 442.8 241.785 442.8C243.425 442.8 244.895 443.15 246.195 443.85C247.495 444.55 248.505 445.52 249.225 446.76C249.965 448 250.335 449.41 250.335 450.99C250.335 452.57 249.965 453.99 249.225 455.25C248.505 456.49 247.495 457.46 246.195 458.16C244.895 458.86 243.425 459.21 241.785 459.21ZM241.785 456C243.165 456 244.305 455.54 245.205 454.62C246.105 453.7 246.555 452.49 246.555 450.99C246.555 449.49 246.105 448.28 245.205 447.36C244.305 446.44 243.165 445.98 241.785 445.98C240.405 445.98 239.265 446.44 238.365 447.36C237.485 448.28 237.045 449.49 237.045 450.99C237.045 452.49 237.485 453.7 238.365 454.62C239.265 455.54 240.405 456 241.785 456ZM268.481 442.98L261.611 459H257.741L250.871 442.98H254.771L259.751 454.86L264.881 442.98H268.481ZM285.446 451.08C285.446 451.34 285.426 451.71 285.386 452.19H272.816C273.036 453.37 273.606 454.31 274.526 455.01C275.466 455.69 276.626 456.03 278.006 456.03C279.766 456.03 281.216 455.45 282.356 454.29L284.366 456.6C283.646 457.46 282.736 458.11 281.636 458.55C280.536 458.99 279.296 459.21 277.916 459.21C276.156 459.21 274.606 458.86 273.266 458.16C271.926 457.46 270.886 456.49 270.146 455.25C269.426 453.99 269.066 452.57 269.066 450.99C269.066 449.43 269.416 448.03 270.116 446.79C270.836 445.53 271.826 444.55 273.086 443.85C274.346 443.15 275.766 442.8 277.346 442.8C278.906 442.8 280.296 443.15 281.516 443.85C282.756 444.53 283.716 445.5 284.396 446.76C285.096 448 285.446 449.44 285.446 451.08ZM277.346 445.8C276.146 445.8 275.126 446.16 274.286 446.88C273.466 447.58 272.966 448.52 272.786 449.7H281.876C281.716 448.54 281.226 447.6 280.406 446.88C279.586 446.16 278.566 445.8 277.346 445.8ZM292.618 445.32C293.698 443.64 295.598 442.8 298.318 442.8V446.37C297.998 446.31 297.708 446.28 297.448 446.28C295.988 446.28 294.848 446.71 294.028 447.57C293.208 448.41 292.798 449.63 292.798 451.23V459H289.048V442.98H292.618V445.32ZM317.085 442.98L309.585 460.29C308.885 462.03 308.035 463.25 307.035 463.95C306.035 464.67 304.825 465.03 303.405 465.03C302.605 465.03 301.815 464.9 301.035 464.64C300.255 464.38 299.615 464.02 299.115 463.56L300.615 460.8C300.975 461.14 301.395 461.41 301.875 461.61C302.375 461.81 302.875 461.91 303.375 461.91C304.035 461.91 304.575 461.74 304.995 461.4C305.435 461.06 305.835 460.49 306.195 459.69L306.465 459.06L299.475 442.98H303.375L308.415 454.83L313.485 442.98H317.085Z" fill="#771BD2"/>
<path d="M528.212 364H537.392C539.632 364 541.622 364.44 543.362 365.32C545.102 366.18 546.452 367.41 547.412 369.01C548.372 370.59 548.852 372.42 548.852 374.5C548.852 376.58 548.372 378.42 547.412 380.02C546.452 381.6 545.102 382.83 543.362 383.71C541.622 384.57 539.632 385 537.392 385H528.212V364ZM537.212 381.7C538.752 381.7 540.102 381.41 541.262 380.83C542.442 380.23 543.342 379.39 543.962 378.31C544.602 377.21 544.922 375.94 544.922 374.5C544.922 373.06 544.602 371.8 543.962 370.72C543.342 369.62 542.442 368.78 541.262 368.2C540.102 367.6 538.752 367.3 537.212 367.3H532.112V381.7H537.212ZM567.697 377.08C567.697 377.34 567.677 377.71 567.637 378.19H555.067C555.287 379.37 555.857 380.31 556.777 381.01C557.717 381.69 558.877 382.03 560.257 382.03C562.017 382.03 563.467 381.45 564.607 380.29L566.617 382.6C565.897 383.46 564.987 384.11 563.887 384.55C562.787 384.99 561.547 385.21 560.167 385.21C558.407 385.21 556.857 384.86 555.517 384.16C554.177 383.46 553.137 382.49 552.397 381.25C551.677 379.99 551.317 378.57 551.317 376.99C551.317 375.43 551.667 374.03 552.367 372.79C553.087 371.53 554.077 370.55 555.337 369.85C556.597 369.15 558.017 368.8 559.597 368.8C561.157 368.8 562.547 369.15 563.767 369.85C565.007 370.53 565.967 371.5 566.647 372.76C567.347 374 567.697 375.44 567.697 377.08ZM559.597 371.8C558.397 371.8 557.377 372.16 556.537 372.88C555.717 373.58 555.217 374.52 555.037 375.7H564.127C563.967 374.54 563.477 373.6 562.657 372.88C561.837 372.16 560.817 371.8 559.597 371.8ZM576.249 385.21C574.949 385.21 573.679 385.04 572.439 384.7C571.199 384.36 570.209 383.93 569.469 383.41L570.909 380.56C571.629 381.04 572.489 381.43 573.489 381.73C574.509 382.01 575.509 382.15 576.489 382.15C578.729 382.15 579.849 381.56 579.849 380.38C579.849 379.82 579.559 379.43 578.979 379.21C578.419 378.99 577.509 378.78 576.249 378.58C574.929 378.38 573.849 378.15 573.009 377.89C572.189 377.63 571.469 377.18 570.849 376.54C570.249 375.88 569.949 374.97 569.949 373.81C569.949 372.29 570.579 371.08 571.839 370.18C573.119 369.26 574.839 368.8 576.999 368.8C578.099 368.8 579.199 368.93 580.299 369.19C581.399 369.43 582.299 369.76 582.999 370.18L581.559 373.03C580.199 372.23 578.669 371.83 576.969 371.83C575.869 371.83 575.029 372 574.449 372.34C573.889 372.66 573.609 373.09 573.609 373.63C573.609 374.23 573.909 374.66 574.509 374.92C575.129 375.16 576.079 375.39 577.359 375.61C578.639 375.81 579.689 376.04 580.509 376.3C581.329 376.56 582.029 377 582.609 377.62C583.209 378.24 583.509 379.12 583.509 380.26C583.509 381.76 582.859 382.96 581.559 383.86C580.259 384.76 578.489 385.21 576.249 385.21ZM586.738 368.98H590.488V385H586.738V368.98ZM588.628 366.34C587.948 366.34 587.378 366.13 586.918 365.71C586.458 365.27 586.228 364.73 586.228 364.09C586.228 363.45 586.458 362.92 586.918 362.5C587.378 362.06 587.948 361.84 588.628 361.84C589.308 361.84 589.878 362.05 590.338 362.47C590.798 362.87 591.028 363.38 591.028 364C591.028 364.66 590.798 365.22 590.338 365.68C589.898 366.12 589.328 366.34 588.628 366.34ZM611.31 368.98V382.57C611.31 388.21 608.43 391.03 602.67 391.03C601.13 391.03 599.67 390.83 598.29 390.43C596.91 390.05 595.77 389.49 594.87 388.75L596.55 385.93C597.25 386.51 598.13 386.97 599.19 387.31C600.27 387.67 601.36 387.85 602.46 387.85C604.22 387.85 605.51 387.45 606.33 386.65C607.15 385.85 607.56 384.63 607.56 382.99V382.15C606.92 382.85 606.14 383.38 605.22 383.74C604.3 384.1 603.29 384.28 602.19 384.28C600.67 384.28 599.29 383.96 598.05 383.32C596.83 382.66 595.86 381.74 595.14 380.56C594.44 379.38 594.09 378.03 594.09 376.51C594.09 374.99 594.44 373.65 595.14 372.49C595.86 371.31 596.83 370.4 598.05 369.76C599.29 369.12 600.67 368.8 602.19 368.8C603.35 368.8 604.4 368.99 605.34 369.37C606.3 369.75 607.1 370.33 607.74 371.11V368.98H611.31ZM602.76 381.1C604.18 381.1 605.34 380.68 606.24 379.84C607.16 378.98 607.62 377.87 607.62 376.51C607.62 375.17 607.16 374.08 606.24 373.24C605.34 372.4 604.18 371.98 602.76 371.98C601.32 371.98 600.14 372.4 599.22 373.24C598.32 374.08 597.87 375.17 597.87 376.51C597.87 377.87 598.32 378.98 599.22 379.84C600.14 380.68 601.32 381.1 602.76 381.1ZM625.33 368.8C627.35 368.8 628.97 369.39 630.19 370.57C631.41 371.75 632.02 373.5 632.02 375.82V385H628.27V376.3C628.27 374.9 627.94 373.85 627.28 373.15C626.62 372.43 625.68 372.07 624.46 372.07C623.08 372.07 621.99 372.49 621.19 373.33C620.39 374.15 619.99 375.34 619.99 376.9V385H616.24V368.98H619.81V371.05C620.43 370.31 621.21 369.75 622.15 369.37C623.09 368.99 624.15 368.8 625.33 368.8ZM587.834 422.33L585.194 419.78C583.234 421.46 580.884 422.3 578.144 422.3C576.684 422.3 575.374 422.06 574.214 421.58C573.054 421.1 572.144 420.44 571.484 419.6C570.824 418.74 570.494 417.77 570.494 416.69C570.494 415.39 570.874 414.25 571.634 413.27C572.394 412.27 573.634 411.29 575.354 410.33C574.514 409.49 573.914 408.71 573.554 407.99C573.194 407.25 573.014 406.49 573.014 405.71C573.014 404.23 573.564 403.04 574.664 402.14C575.784 401.22 577.264 400.76 579.104 400.76C580.804 400.76 582.164 401.18 583.184 402.02C584.204 402.84 584.714 403.96 584.714 405.38C584.714 406.46 584.374 407.42 583.694 408.26C583.034 409.1 581.944 409.95 580.424 410.81L584.954 415.13C585.454 414.15 585.844 412.97 586.124 411.59L589.154 412.58C588.754 414.44 588.124 416.04 587.264 417.38L589.904 419.9L587.834 422.33ZM579.104 403.43C578.284 403.43 577.634 403.64 577.154 404.06C576.674 404.46 576.434 404.99 576.434 405.65C576.434 406.13 576.564 406.59 576.824 407.03C577.084 407.45 577.584 408.03 578.324 408.77C579.524 408.11 580.354 407.54 580.814 407.06C581.294 406.56 581.534 406.02 581.534 405.44C581.534 404.82 581.314 404.33 580.874 403.97C580.454 403.61 579.864 403.43 579.104 403.43ZM578.414 419.24C580.154 419.24 581.674 418.71 582.974 417.65L577.424 412.34C576.224 413 575.374 413.64 574.874 414.26C574.394 414.86 574.154 415.54 574.154 416.3C574.154 417.18 574.544 417.89 575.324 418.43C576.104 418.97 577.134 419.24 578.414 419.24ZM527.734 459.3C526.114 459.3 524.544 459.07 523.024 458.61C521.524 458.15 520.334 457.54 519.454 456.78L520.804 453.75C521.664 454.43 522.714 454.99 523.954 455.43C525.214 455.85 526.474 456.06 527.734 456.06C529.294 456.06 530.454 455.81 531.214 455.31C531.994 454.81 532.384 454.15 532.384 453.33C532.384 452.73 532.164 452.24 531.724 451.86C531.304 451.46 530.764 451.15 530.104 450.93C529.444 450.71 528.544 450.46 527.404 450.18C525.804 449.8 524.504 449.42 523.504 449.04C522.524 448.66 521.674 448.07 520.954 447.27C520.254 446.45 519.904 445.35 519.904 443.97C519.904 442.81 520.214 441.76 520.834 440.82C521.474 439.86 522.424 439.1 523.684 438.54C524.964 437.98 526.524 437.7 528.364 437.7C529.644 437.7 530.904 437.86 532.144 438.18C533.384 438.5 534.454 438.96 535.354 439.56L534.124 442.59C533.204 442.05 532.244 441.64 531.244 441.36C530.244 441.08 529.274 440.94 528.334 440.94C526.794 440.94 525.644 441.2 524.884 441.72C524.144 442.24 523.774 442.93 523.774 443.79C523.774 444.39 523.984 444.88 524.404 445.26C524.844 445.64 525.394 445.94 526.054 446.16C526.714 446.38 527.614 446.63 528.754 446.91C530.314 447.27 531.594 447.65 532.594 448.05C533.594 448.43 534.444 449.02 535.144 449.82C535.864 450.62 536.224 451.7 536.224 453.06C536.224 454.22 535.904 455.27 535.264 456.21C534.644 457.15 533.694 457.9 532.414 458.46C531.134 459.02 529.574 459.3 527.734 459.3ZM549.361 458.13C548.921 458.49 548.381 458.76 547.741 458.94C547.121 459.12 546.461 459.21 545.761 459.21C544.001 459.21 542.641 458.75 541.681 457.83C540.721 456.91 540.241 455.57 540.241 453.81V446.1H537.601V443.1H540.241V439.44H543.991V443.1H548.281V446.1H543.991V453.72C543.991 454.5 544.181 455.1 544.561 455.52C544.941 455.92 545.491 456.12 546.211 456.12C547.051 456.12 547.751 455.9 548.311 455.46L549.361 458.13ZM556.016 445.32C557.096 443.64 558.996 442.8 561.716 442.8V446.37C561.396 446.31 561.106 446.28 560.846 446.28C559.386 446.28 558.246 446.71 557.426 447.57C556.606 448.41 556.196 449.63 556.196 451.23V459H552.446V442.98H556.016V445.32ZM570.93 442.8C573.29 442.8 575.09 443.37 576.33 444.51C577.59 445.63 578.22 447.33 578.22 449.61V459H574.68V457.05C574.22 457.75 573.56 458.29 572.7 458.67C571.86 459.03 570.84 459.21 569.64 459.21C568.44 459.21 567.39 459.01 566.49 458.61C565.59 458.19 564.89 457.62 564.39 456.9C563.91 456.16 563.67 455.33 563.67 454.41C563.67 452.97 564.2 451.82 565.26 450.96C566.34 450.08 568.03 449.64 570.33 449.64H574.47V449.4C574.47 448.28 574.13 447.42 573.45 446.82C572.79 446.22 571.8 445.92 570.48 445.92C569.58 445.92 568.69 446.06 567.81 446.34C566.95 446.62 566.22 447.01 565.62 447.51L564.15 444.78C564.99 444.14 566 443.65 567.18 443.31C568.36 442.97 569.61 442.8 570.93 442.8ZM570.42 456.48C571.36 456.48 572.19 456.27 572.91 455.85C573.65 455.41 574.17 454.79 574.47 453.99V452.13H570.6C568.44 452.13 567.36 452.84 567.36 454.26C567.36 454.94 567.63 455.48 568.17 455.88C568.71 456.28 569.46 456.48 570.42 456.48ZM592.662 458.13C592.222 458.49 591.682 458.76 591.042 458.94C590.422 459.12 589.762 459.21 589.062 459.21C587.302 459.21 585.942 458.75 584.982 457.83C584.022 456.91 583.542 455.57 583.542 453.81V446.1H580.902V443.1H583.542V439.44H587.292V443.1H591.582V446.1H587.292V453.72C587.292 454.5 587.482 455.1 587.862 455.52C588.242 455.92 588.792 456.12 589.512 456.12C590.352 456.12 591.052 455.9 591.612 455.46L592.662 458.13ZM610.28 451.08C610.28 451.34 610.26 451.71 610.22 452.19H597.65C597.87 453.37 598.44 454.31 599.36 455.01C600.3 455.69 601.46 456.03 602.84 456.03C604.6 456.03 606.05 455.45 607.19 454.29L609.2 456.6C608.48 457.46 607.57 458.11 606.47 458.55C605.37 458.99 604.13 459.21 602.75 459.21C600.99 459.21 599.44 458.86 598.1 458.16C596.76 457.46 595.72 456.49 594.98 455.25C594.26 453.99 593.9 452.57 593.9 450.99C593.9 449.43 594.25 448.03 594.95 446.79C595.67 445.53 596.66 444.55 597.92 443.85C599.18 443.15 600.6 442.8 602.18 442.8C603.74 442.8 605.13 443.15 606.35 443.85C607.59 444.53 608.55 445.5 609.23 446.76C609.93 448 610.28 449.44 610.28 451.08ZM602.18 445.8C600.98 445.8 599.96 446.16 599.12 446.88C598.3 447.58 597.8 448.52 597.62 449.7H606.71C606.55 448.54 606.06 447.6 605.24 446.88C604.42 446.16 603.4 445.8 602.18 445.8ZM629.782 442.98V456.57C629.782 462.21 626.902 465.03 621.142 465.03C619.602 465.03 618.142 464.83 616.762 464.43C615.382 464.05 614.242 463.49 613.342 462.75L615.022 459.93C615.722 460.51 616.602 460.97 617.662 461.31C618.742 461.67 619.832 461.85 620.932 461.85C622.692 461.85 623.982 461.45 624.802 460.65C625.622 459.85 626.032 458.63 626.032 456.99V456.15C625.392 456.85 624.612 457.38 623.692 457.74C622.772 458.1 621.762 458.28 620.662 458.28C619.142 458.28 617.762 457.96 616.522 457.32C615.302 456.66 614.332 455.74 613.612 454.56C612.912 453.38 612.562 452.03 612.562 450.51C612.562 448.99 612.912 447.65 613.612 446.49C614.332 445.31 615.302 444.4 616.522 443.76C617.762 443.12 619.142 442.8 620.662 442.8C621.822 442.8 622.872 442.99 623.812 443.37C624.772 443.75 625.572 444.33 626.212 445.11V442.98H629.782ZM621.232 455.1C622.652 455.1 623.812 454.68 624.712 453.84C625.632 452.98 626.092 451.87 626.092 450.51C626.092 449.17 625.632 448.08 624.712 447.24C623.812 446.4 622.652 445.98 621.232 445.98C619.792 445.98 618.612 446.4 617.692 447.24C616.792 448.08 616.342 449.17 616.342 450.51C616.342 451.87 616.792 452.98 617.692 453.84C618.612 454.68 619.792 455.1 621.232 455.1ZM649.712 442.98L642.212 460.29C641.512 462.03 640.662 463.25 639.662 463.95C638.662 464.67 637.452 465.03 636.032 465.03C635.232 465.03 634.442 464.9 633.662 464.64C632.882 464.38 632.242 464.02 631.742 463.56L633.242 460.8C633.602 461.14 634.022 461.41 634.502 461.61C635.002 461.81 635.502 461.91 636.002 461.91C636.662 461.91 637.202 461.74 637.622 461.4C638.062 461.06 638.462 460.49 638.822 459.69L639.092 459.06L632.102 442.98H636.002L641.042 454.83L646.112 442.98H649.712Z" fill="#072FA9"/>
<path d="M1128.08 364H1131.98V385H1128.08V364ZM1157.52 368.8C1159.54 368.8 1161.14 369.39 1162.32 370.57C1163.5 371.73 1164.09 373.48 1164.09 375.82V385H1160.34V376.3C1160.34 374.9 1160.03 373.85 1159.41 373.15C1158.79 372.43 1157.9 372.07 1156.74 372.07C1155.48 372.07 1154.47 372.49 1153.71 373.33C1152.95 374.15 1152.57 375.33 1152.57 376.87V385H1148.82V376.3C1148.82 374.9 1148.51 373.85 1147.89 373.15C1147.27 372.43 1146.38 372.07 1145.22 372.07C1143.94 372.07 1142.92 372.48 1142.16 373.3C1141.42 374.12 1141.05 375.31 1141.05 376.87V385H1137.3V368.98H1140.87V371.02C1141.47 370.3 1142.22 369.75 1143.12 369.37C1144.02 368.99 1145.02 368.8 1146.12 368.8C1147.32 368.8 1148.38 369.03 1149.3 369.49C1150.24 369.93 1150.98 370.59 1151.52 371.47C1152.18 370.63 1153.03 369.98 1154.07 369.52C1155.11 369.04 1156.26 368.8 1157.52 368.8ZM1177.76 368.8C1179.32 368.8 1180.71 369.14 1181.93 369.82C1183.17 370.5 1184.14 371.46 1184.84 372.7C1185.54 373.94 1185.89 375.37 1185.89 376.99C1185.89 378.61 1185.54 380.05 1184.84 381.31C1184.14 382.55 1183.17 383.51 1181.93 384.19C1180.71 384.87 1179.32 385.21 1177.76 385.21C1175.6 385.21 1173.89 384.49 1172.63 383.05V390.82H1168.88V368.98H1172.45V371.08C1173.07 370.32 1173.83 369.75 1174.73 369.37C1175.65 368.99 1176.66 368.8 1177.76 368.8ZM1177.34 382C1178.72 382 1179.85 381.54 1180.73 380.62C1181.63 379.7 1182.08 378.49 1182.08 376.99C1182.08 375.49 1181.63 374.28 1180.73 373.36C1179.85 372.44 1178.72 371.98 1177.34 371.98C1176.44 371.98 1175.63 372.19 1174.91 372.61C1174.19 373.01 1173.62 373.59 1173.2 374.35C1172.78 375.11 1172.57 375.99 1172.57 376.99C1172.57 377.99 1172.78 378.87 1173.2 379.63C1173.62 380.39 1174.19 380.98 1174.91 381.4C1175.63 381.8 1176.44 382 1177.34 382ZM1189.45 362.74H1193.2V385H1189.45V362.74ZM1213.18 377.08C1213.18 377.34 1213.16 377.71 1213.12 378.19H1200.55C1200.77 379.37 1201.34 380.31 1202.26 381.01C1203.2 381.69 1204.36 382.03 1205.74 382.03C1207.5 382.03 1208.95 381.45 1210.09 380.29L1212.1 382.6C1211.38 383.46 1210.47 384.11 1209.37 384.55C1208.27 384.99 1207.03 385.21 1205.65 385.21C1203.89 385.21 1202.34 384.86 1201 384.16C1199.66 383.46 1198.62 382.49 1197.88 381.25C1197.16 379.99 1196.8 378.57 1196.8 376.99C1196.8 375.43 1197.15 374.03 1197.85 372.79C1198.57 371.53 1199.56 370.55 1200.82 369.85C1202.08 369.15 1203.5 368.8 1205.08 368.8C1206.64 368.8 1208.03 369.15 1209.25 369.85C1210.49 370.53 1211.45 371.5 1212.13 372.76C1212.83 374 1213.18 375.44 1213.18 377.08ZM1205.08 371.8C1203.88 371.8 1202.86 372.16 1202.02 372.88C1201.2 373.58 1200.7 374.52 1200.52 375.7H1209.61C1209.45 374.54 1208.96 373.6 1208.14 372.88C1207.32 372.16 1206.3 371.8 1205.08 371.8ZM1237 368.8C1239.02 368.8 1240.62 369.39 1241.8 370.57C1242.98 371.73 1243.57 373.48 1243.57 375.82V385H1239.82V376.3C1239.82 374.9 1239.51 373.85 1238.89 373.15C1238.27 372.43 1237.38 372.07 1236.22 372.07C1234.96 372.07 1233.95 372.49 1233.19 373.33C1232.43 374.15 1232.05 375.33 1232.05 376.87V385H1228.3V376.3C1228.3 374.9 1227.99 373.85 1227.37 373.15C1226.75 372.43 1225.86 372.07 1224.7 372.07C1223.42 372.07 1222.4 372.48 1221.64 373.3C1220.9 374.12 1220.53 375.31 1220.53 376.87V385H1216.78V368.98H1220.35V371.02C1220.95 370.3 1221.7 369.75 1222.6 369.37C1223.5 368.99 1224.5 368.8 1225.6 368.8C1226.8 368.8 1227.86 369.03 1228.78 369.49C1229.72 369.93 1230.46 370.59 1231 371.47C1231.66 370.63 1232.51 369.98 1233.55 369.52C1234.59 369.04 1235.74 368.8 1237 368.8ZM1263.57 377.08C1263.57 377.34 1263.55 377.71 1263.51 378.19H1250.94C1251.16 379.37 1251.73 380.31 1252.65 381.01C1253.59 381.69 1254.75 382.03 1256.13 382.03C1257.89 382.03 1259.34 381.45 1260.48 380.29L1262.49 382.6C1261.77 383.46 1260.86 384.11 1259.76 384.55C1258.66 384.99 1257.42 385.21 1256.04 385.21C1254.28 385.21 1252.73 384.86 1251.39 384.16C1250.05 383.46 1249.01 382.49 1248.27 381.25C1247.55 379.99 1247.19 378.57 1247.19 376.99C1247.19 375.43 1247.54 374.03 1248.24 372.79C1248.96 371.53 1249.95 370.55 1251.21 369.85C1252.47 369.15 1253.89 368.8 1255.47 368.8C1257.03 368.8 1258.42 369.15 1259.64 369.85C1260.88 370.53 1261.84 371.5 1262.52 372.76C1263.22 374 1263.57 375.44 1263.57 377.08ZM1255.47 371.8C1254.27 371.8 1253.25 372.16 1252.41 372.88C1251.59 373.58 1251.09 374.52 1250.91 375.7H1260C1259.84 374.54 1259.35 373.6 1258.53 372.88C1257.71 372.16 1256.69 371.8 1255.47 371.8ZM1276.26 368.8C1278.28 368.8 1279.9 369.39 1281.12 370.57C1282.34 371.75 1282.95 373.5 1282.95 375.82V385H1279.2V376.3C1279.2 374.9 1278.87 373.85 1278.21 373.15C1277.55 372.43 1276.61 372.07 1275.39 372.07C1274.01 372.07 1272.92 372.49 1272.12 373.33C1271.32 374.15 1270.92 375.34 1270.92 376.9V385H1267.17V368.98H1270.74V371.05C1271.36 370.31 1272.14 369.75 1273.08 369.37C1274.02 368.99 1275.08 368.8 1276.26 368.8ZM1297.34 384.13C1296.9 384.49 1296.36 384.76 1295.72 384.94C1295.1 385.12 1294.44 385.21 1293.74 385.21C1291.98 385.21 1290.62 384.75 1289.66 383.83C1288.7 382.91 1288.22 381.57 1288.22 379.81V372.1H1285.58V369.1H1288.22V365.44H1291.97V369.1H1296.26V372.1H1291.97V379.72C1291.97 380.5 1292.16 381.1 1292.54 381.52C1292.92 381.92 1293.47 382.12 1294.19 382.12C1295.03 382.12 1295.73 381.9 1296.29 381.46L1297.34 384.13ZM1306.55 368.8C1308.91 368.8 1310.71 369.37 1311.95 370.51C1313.21 371.63 1313.84 373.33 1313.84 375.61V385H1310.3V383.05C1309.84 383.75 1309.18 384.29 1308.32 384.67C1307.48 385.03 1306.46 385.21 1305.26 385.21C1304.06 385.21 1303.01 385.01 1302.11 384.61C1301.21 384.19 1300.51 383.62 1300.01 382.9C1299.53 382.16 1299.29 381.33 1299.29 380.41C1299.29 378.97 1299.82 377.82 1300.88 376.96C1301.96 376.08 1303.65 375.64 1305.95 375.64H1310.09V375.4C1310.09 374.28 1309.75 373.42 1309.07 372.82C1308.41 372.22 1307.42 371.92 1306.1 371.92C1305.2 371.92 1304.31 372.06 1303.43 372.34C1302.57 372.62 1301.84 373.01 1301.24 373.51L1299.77 370.78C1300.61 370.14 1301.62 369.65 1302.8 369.31C1303.98 368.97 1305.23 368.8 1306.55 368.8ZM1306.04 382.48C1306.98 382.48 1307.81 382.27 1308.53 381.85C1309.27 381.41 1309.79 380.79 1310.09 379.99V378.13H1306.22C1304.06 378.13 1302.98 378.84 1302.98 380.26C1302.98 380.94 1303.25 381.48 1303.79 381.88C1304.33 382.28 1305.08 382.48 1306.04 382.48ZM1328.28 384.13C1327.84 384.49 1327.3 384.76 1326.66 384.94C1326.04 385.12 1325.38 385.21 1324.68 385.21C1322.92 385.21 1321.56 384.75 1320.6 383.83C1319.64 382.91 1319.16 381.57 1319.16 379.81V372.1H1316.52V369.1H1319.16V365.44H1322.91V369.1H1327.2V372.1H1322.91V379.72C1322.91 380.5 1323.1 381.1 1323.48 381.52C1323.86 381.92 1324.41 382.12 1325.13 382.12C1325.97 382.12 1326.67 381.9 1327.23 381.46L1328.28 384.13ZM1331.36 368.98H1335.11V385H1331.36V368.98ZM1333.25 366.34C1332.57 366.34 1332 366.13 1331.54 365.71C1331.08 365.27 1330.85 364.73 1330.85 364.09C1330.85 363.45 1331.08 362.92 1331.54 362.5C1332 362.06 1332.57 361.84 1333.25 361.84C1333.93 361.84 1334.5 362.05 1334.96 362.47C1335.42 362.87 1335.65 363.38 1335.65 364C1335.65 364.66 1335.42 365.22 1334.96 365.68C1334.52 366.12 1333.95 366.34 1333.25 366.34ZM1347.24 385.21C1345.62 385.21 1344.16 384.86 1342.86 384.16C1341.56 383.46 1340.54 382.49 1339.8 381.25C1339.08 379.99 1338.72 378.57 1338.72 376.99C1338.72 375.41 1339.08 374 1339.8 372.76C1340.54 371.52 1341.56 370.55 1342.86 369.85C1344.16 369.15 1345.62 368.8 1347.24 368.8C1348.88 368.8 1350.35 369.15 1351.65 369.85C1352.95 370.55 1353.96 371.52 1354.68 372.76C1355.42 374 1355.79 375.41 1355.79 376.99C1355.79 378.57 1355.42 379.99 1354.68 381.25C1353.96 382.49 1352.95 383.46 1351.65 384.16C1350.35 384.86 1348.88 385.21 1347.24 385.21ZM1347.24 382C1348.62 382 1349.76 381.54 1350.66 380.62C1351.56 379.7 1352.01 378.49 1352.01 376.99C1352.01 375.49 1351.56 374.28 1350.66 373.36C1349.76 372.44 1348.62 371.98 1347.24 371.98C1345.86 371.98 1344.72 372.44 1343.82 373.36C1342.94 374.28 1342.5 375.49 1342.5 376.99C1342.5 378.49 1342.94 379.7 1343.82 380.62C1344.72 381.54 1345.86 382 1347.24 382ZM1368.46 368.8C1370.48 368.8 1372.1 369.39 1373.32 370.57C1374.54 371.75 1375.15 373.5 1375.15 375.82V385H1371.4V376.3C1371.4 374.9 1371.07 373.85 1370.41 373.15C1369.75 372.43 1368.81 372.07 1367.59 372.07C1366.21 372.07 1365.12 372.49 1364.32 373.33C1363.52 374.15 1363.12 375.34 1363.12 376.9V385H1359.37V368.98H1362.94V371.05C1363.56 370.31 1364.34 369.75 1365.28 369.37C1366.22 368.99 1367.28 368.8 1368.46 368.8ZM1263.48 422.33L1260.84 419.78C1258.88 421.46 1256.53 422.3 1253.79 422.3C1252.33 422.3 1251.02 422.06 1249.86 421.58C1248.7 421.1 1247.79 420.44 1247.13 419.6C1246.47 418.74 1246.14 417.77 1246.14 416.69C1246.14 415.39 1246.52 414.25 1247.28 413.27C1248.04 412.27 1249.28 411.29 1251 410.33C1250.16 409.49 1249.56 408.71 1249.2 407.99C1248.84 407.25 1248.66 406.49 1248.66 405.71C1248.66 404.23 1249.21 403.04 1250.31 402.14C1251.43 401.22 1252.91 400.76 1254.75 400.76C1256.45 400.76 1257.81 401.18 1258.83 402.02C1259.85 402.84 1260.36 403.96 1260.36 405.38C1260.36 406.46 1260.02 407.42 1259.34 408.26C1258.68 409.1 1257.59 409.95 1256.07 410.81L1260.6 415.13C1261.1 414.15 1261.49 412.97 1261.77 411.59L1264.8 412.58C1264.4 414.44 1263.77 416.04 1262.91 417.38L1265.55 419.9L1263.48 422.33ZM1254.75 403.43C1253.93 403.43 1253.28 403.64 1252.8 404.06C1252.32 404.46 1252.08 404.99 1252.08 405.65C1252.08 406.13 1252.21 406.59 1252.47 407.03C1252.73 407.45 1253.23 408.03 1253.97 408.77C1255.17 408.11 1256 407.54 1256.46 407.06C1256.94 406.56 1257.18 406.02 1257.18 405.44C1257.18 404.82 1256.96 404.33 1256.52 403.97C1256.1 403.61 1255.51 403.43 1254.75 403.43ZM1254.06 419.24C1255.8 419.24 1257.32 418.71 1258.62 417.65L1253.07 412.34C1251.87 413 1251.02 413.64 1250.52 414.26C1250.04 414.86 1249.8 415.54 1249.8 416.3C1249.8 417.18 1250.19 417.89 1250.97 418.43C1251.75 418.97 1252.78 419.24 1254.06 419.24ZM1194.95 438H1204.13C1206.37 438 1208.36 438.44 1210.1 439.32C1211.84 440.18 1213.19 441.41 1214.15 443.01C1215.11 444.59 1215.59 446.42 1215.59 448.5C1215.59 450.58 1215.11 452.42 1214.15 454.02C1213.19 455.6 1211.84 456.83 1210.1 457.71C1208.36 458.57 1206.37 459 1204.13 459H1194.95V438ZM1203.95 455.7C1205.49 455.7 1206.84 455.41 1208 454.83C1209.18 454.23 1210.08 453.39 1210.7 452.31C1211.34 451.21 1211.66 449.94 1211.66 448.5C1211.66 447.06 1211.34 445.8 1210.7 444.72C1210.08 443.62 1209.18 442.78 1208 442.2C1206.84 441.6 1205.49 441.3 1203.95 441.3H1198.85V455.7H1203.95ZM1234.44 451.08C1234.44 451.34 1234.42 451.71 1234.38 452.19H1221.81C1222.03 453.37 1222.6 454.31 1223.52 455.01C1224.46 455.69 1225.62 456.03 1227 456.03C1228.76 456.03 1230.21 455.45 1231.35 454.29L1233.36 456.6C1232.64 457.46 1231.73 458.11 1230.63 458.55C1229.53 458.99 1228.29 459.21 1226.91 459.21C1225.15 459.21 1223.6 458.86 1222.26 458.16C1220.92 457.46 1219.88 456.49 1219.14 455.25C1218.42 453.99 1218.06 452.57 1218.06 450.99C1218.06 449.43 1218.41 448.03 1219.11 446.79C1219.83 445.53 1220.82 444.55 1222.08 443.85C1223.34 443.15 1224.76 442.8 1226.34 442.8C1227.9 442.8 1229.29 443.15 1230.51 443.85C1231.75 444.53 1232.71 445.5 1233.39 446.76C1234.09 448 1234.44 449.44 1234.44 451.08ZM1226.34 445.8C1225.14 445.8 1224.12 446.16 1223.28 446.88C1222.46 447.58 1221.96 448.52 1221.78 449.7H1230.87C1230.71 448.54 1230.22 447.6 1229.4 446.88C1228.58 446.16 1227.56 445.8 1226.34 445.8ZM1238.04 436.74H1241.79V459H1238.04V436.74ZM1246.71 442.98H1250.46V459H1246.71V442.98ZM1248.6 440.34C1247.92 440.34 1247.35 440.13 1246.89 439.71C1246.43 439.27 1246.2 438.73 1246.2 438.09C1246.2 437.45 1246.43 436.92 1246.89 436.5C1247.35 436.06 1247.92 435.84 1248.6 435.84C1249.28 435.84 1249.85 436.05 1250.31 436.47C1250.77 436.87 1251 437.38 1251 438C1251 438.66 1250.77 439.22 1250.31 439.68C1249.87 440.12 1249.3 440.34 1248.6 440.34ZM1270.38 442.98L1263.51 459H1259.64L1252.77 442.98H1256.67L1261.65 454.86L1266.78 442.98H1270.38ZM1287.35 451.08C1287.35 451.34 1287.33 451.71 1287.29 452.19H1274.72C1274.94 453.37 1275.51 454.31 1276.43 455.01C1277.37 455.69 1278.53 456.03 1279.91 456.03C1281.67 456.03 1283.12 455.45 1284.26 454.29L1286.27 456.6C1285.55 457.46 1284.64 458.11 1283.54 458.55C1282.44 458.99 1281.2 459.21 1279.82 459.21C1278.06 459.21 1276.51 458.86 1275.17 458.16C1273.83 457.46 1272.79 456.49 1272.05 455.25C1271.33 453.99 1270.97 452.57 1270.97 450.99C1270.97 449.43 1271.32 448.03 1272.02 446.79C1272.74 445.53 1273.73 444.55 1274.99 443.85C1276.25 443.15 1277.67 442.8 1279.25 442.8C1280.81 442.8 1282.2 443.15 1283.42 443.85C1284.66 444.53 1285.62 445.5 1286.3 446.76C1287 448 1287.35 449.44 1287.35 451.08ZM1279.25 445.8C1278.05 445.8 1277.03 446.16 1276.19 446.88C1275.37 447.58 1274.87 448.52 1274.69 449.7H1283.78C1283.62 448.54 1283.13 447.6 1282.31 446.88C1281.49 446.16 1280.47 445.8 1279.25 445.8ZM1294.52 445.32C1295.6 443.64 1297.5 442.8 1300.22 442.8V446.37C1299.9 446.31 1299.61 446.28 1299.35 446.28C1297.89 446.28 1296.75 446.71 1295.93 447.57C1295.11 448.41 1294.7 449.63 1294.7 451.23V459H1290.95V442.98H1294.52V445.32ZM1318.99 442.98L1311.49 460.29C1310.79 462.03 1309.94 463.25 1308.94 463.95C1307.94 464.67 1306.73 465.03 1305.31 465.03C1304.51 465.03 1303.72 464.9 1302.94 464.64C1302.16 464.38 1301.52 464.02 1301.02 463.56L1302.52 460.8C1302.88 461.14 1303.3 461.41 1303.78 461.61C1304.28 461.81 1304.78 461.91 1305.28 461.91C1305.94 461.91 1306.48 461.74 1306.9 461.4C1307.34 461.06 1307.74 460.49 1308.1 459.69L1308.37 459.06L1301.38 442.98H1305.28L1310.32 454.83L1315.39 442.98H1318.99Z" fill="#FFAA2A"/>
<path d="M859.445 364L850.295 385H846.455L837.275 364H841.505L848.495 380.2L855.545 364H859.445ZM866.22 368.8C868.58 368.8 870.38 369.37 871.62 370.51C872.88 371.63 873.51 373.33 873.51 375.61V385H869.97V383.05C869.51 383.75 868.85 384.29 867.99 384.67C867.15 385.03 866.13 385.21 864.93 385.21C863.73 385.21 862.68 385.01 861.78 384.61C860.88 384.19 860.18 383.62 859.68 382.9C859.2 382.16 858.96 381.33 858.96 380.41C858.96 378.97 859.49 377.82 860.55 376.96C861.63 376.08 863.32 375.64 865.62 375.64H869.76V375.4C869.76 374.28 869.42 373.42 868.74 372.82C868.08 372.22 867.09 371.92 865.77 371.92C864.87 371.92 863.98 372.06 863.1 372.34C862.24 372.62 861.51 373.01 860.91 373.51L859.44 370.78C860.28 370.14 861.29 369.65 862.47 369.31C863.65 368.97 864.9 368.8 866.22 368.8ZM865.71 382.48C866.65 382.48 867.48 382.27 868.2 381.85C868.94 381.41 869.46 380.79 869.76 379.99V378.13H865.89C863.73 378.13 862.65 378.84 862.65 380.26C862.65 380.94 862.92 381.48 863.46 381.88C864 382.28 864.75 382.48 865.71 382.48ZM878.322 362.74H882.072V385H878.322V362.74ZM886.994 368.98H890.744V385H886.994V368.98ZM888.884 366.34C888.204 366.34 887.634 366.13 887.174 365.71C886.714 365.27 886.484 364.73 886.484 364.09C886.484 363.45 886.714 362.92 887.174 362.5C887.634 362.06 888.204 361.84 888.884 361.84C889.564 361.84 890.134 362.05 890.594 362.47C891.054 362.87 891.284 363.38 891.284 364C891.284 364.66 891.054 365.22 890.594 365.68C890.154 366.12 889.584 366.34 888.884 366.34ZM911.356 362.74V385H907.756V382.93C907.136 383.69 906.366 384.26 905.446 384.64C904.546 385.02 903.546 385.21 902.446 385.21C900.906 385.21 899.516 384.87 898.276 384.19C897.056 383.51 896.096 382.55 895.396 381.31C894.696 380.05 894.346 378.61 894.346 376.99C894.346 375.37 894.696 373.94 895.396 372.7C896.096 371.46 897.056 370.5 898.276 369.82C899.516 369.14 900.906 368.8 902.446 368.8C903.506 368.8 904.476 368.98 905.356 369.34C906.236 369.7 906.986 370.24 907.606 370.96V362.74H911.356ZM902.896 382C903.796 382 904.606 381.8 905.326 381.4C906.046 380.98 906.616 380.39 907.036 379.63C907.456 378.87 907.666 377.99 907.666 376.99C907.666 375.99 907.456 375.11 907.036 374.35C906.616 373.59 906.046 373.01 905.326 372.61C904.606 372.19 903.796 371.98 902.896 371.98C901.996 371.98 901.186 372.19 900.466 372.61C899.746 373.01 899.176 373.59 898.756 374.35C898.336 375.11 898.126 375.99 898.126 376.99C898.126 377.99 898.336 378.87 898.756 379.63C899.176 380.39 899.746 380.98 900.466 381.4C901.186 381.8 901.996 382 902.896 382ZM922.382 368.8C924.742 368.8 926.542 369.37 927.782 370.51C929.042 371.63 929.672 373.33 929.672 375.61V385H926.132V383.05C925.672 383.75 925.012 384.29 924.152 384.67C923.312 385.03 922.292 385.21 921.092 385.21C919.892 385.21 918.842 385.01 917.942 384.61C917.042 384.19 916.342 383.62 915.842 382.9C915.362 382.16 915.122 381.33 915.122 380.41C915.122 378.97 915.652 377.82 916.712 376.96C917.792 376.08 919.482 375.64 921.782 375.64H925.922V375.4C925.922 374.28 925.582 373.42 924.902 372.82C924.242 372.22 923.252 371.92 921.932 371.92C921.032 371.92 920.142 372.06 919.262 372.34C918.402 372.62 917.672 373.01 917.072 373.51L915.602 370.78C916.442 370.14 917.452 369.65 918.632 369.31C919.812 368.97 921.062 368.8 922.382 368.8ZM921.872 382.48C922.812 382.48 923.642 382.27 924.362 381.85C925.102 381.41 925.622 380.79 925.922 379.99V378.13H922.052C919.892 378.13 918.812 378.84 918.812 380.26C918.812 380.94 919.082 381.48 919.622 381.88C920.162 382.28 920.912 382.48 921.872 382.48ZM944.114 384.13C943.674 384.49 943.134 384.76 942.494 384.94C941.874 385.12 941.214 385.21 940.514 385.21C938.754 385.21 937.394 384.75 936.434 383.83C935.474 382.91 934.994 381.57 934.994 379.81V372.1H932.354V369.1H934.994V365.44H938.744V369.1H943.034V372.1H938.744V379.72C938.744 380.5 938.934 381.1 939.314 381.52C939.694 381.92 940.244 382.12 940.964 382.12C941.804 382.12 942.504 381.9 943.064 381.46L944.114 384.13ZM947.199 368.98H950.949V385H947.199V368.98ZM949.089 366.34C948.409 366.34 947.839 366.13 947.379 365.71C946.919 365.27 946.689 364.73 946.689 364.09C946.689 363.45 946.919 362.92 947.379 362.5C947.839 362.06 948.409 361.84 949.089 361.84C949.769 361.84 950.339 362.05 950.799 362.47C951.259 362.87 951.489 363.38 951.489 364C951.489 364.66 951.259 365.22 950.799 365.68C950.359 366.12 949.789 366.34 949.089 366.34ZM963.071 385.21C961.451 385.21 959.991 384.86 958.691 384.16C957.391 383.46 956.371 382.49 955.631 381.25C954.911 379.99 954.551 378.57 954.551 376.99C954.551 375.41 954.911 374 955.631 372.76C956.371 371.52 957.391 370.55 958.691 369.85C959.991 369.15 961.451 368.8 963.071 368.8C964.711 368.8 966.181 369.15 967.481 369.85C968.781 370.55 969.791 371.52 970.511 372.76C971.251 374 971.621 375.41 971.621 376.99C971.621 378.57 971.251 379.99 970.511 381.25C969.791 382.49 968.781 383.46 967.481 384.16C966.181 384.86 964.711 385.21 963.071 385.21ZM963.071 382C964.451 382 965.591 381.54 966.491 380.62C967.391 379.7 967.841 378.49 967.841 376.99C967.841 375.49 967.391 374.28 966.491 373.36C965.591 372.44 964.451 371.98 963.071 371.98C961.691 371.98 960.551 372.44 959.651 373.36C958.771 374.28 958.331 375.49 958.331 376.99C958.331 378.49 958.771 379.7 959.651 380.62C960.551 381.54 961.691 382 963.071 382ZM984.297 368.8C986.317 368.8 987.937 369.39 989.157 370.57C990.377 371.75 990.987 373.5 990.987 375.82V385H987.237V376.3C987.237 374.9 986.907 373.85 986.247 373.15C985.587 372.43 984.647 372.07 983.427 372.07C982.047 372.07 980.957 372.49 980.157 373.33C979.357 374.15 978.957 375.34 978.957 376.9V385H975.207V368.98H978.777V371.05C979.397 370.31 980.177 369.75 981.117 369.37C982.057 368.99 983.117 368.8 984.297 368.8ZM923.334 422.33L920.694 419.78C918.734 421.46 916.384 422.3 913.644 422.3C912.184 422.3 910.874 422.06 909.714 421.58C908.554 421.1 907.644 420.44 906.984 419.6C906.324 418.74 905.994 417.77 905.994 416.69C905.994 415.39 906.374 414.25 907.134 413.27C907.894 412.27 909.134 411.29 910.854 410.33C910.014 409.49 909.414 408.71 909.054 407.99C908.694 407.25 908.514 406.49 908.514 405.71C908.514 404.23 909.064 403.04 910.164 402.14C911.284 401.22 912.764 400.76 914.604 400.76C916.304 400.76 917.664 401.18 918.684 402.02C919.704 402.84 920.214 403.96 920.214 405.38C920.214 406.46 919.874 407.42 919.194 408.26C918.534 409.1 917.444 409.95 915.924 410.81L920.454 415.13C920.954 414.15 921.344 412.97 921.624 411.59L924.654 412.58C924.254 414.44 923.624 416.04 922.764 417.38L925.404 419.9L923.334 422.33ZM914.604 403.43C913.784 403.43 913.134 403.64 912.654 404.06C912.174 404.46 911.934 404.99 911.934 405.65C911.934 406.13 912.064 406.59 912.324 407.03C912.584 407.45 913.084 408.03 913.824 408.77C915.024 408.11 915.854 407.54 916.314 407.06C916.794 406.56 917.034 406.02 917.034 405.44C917.034 404.82 916.814 404.33 916.374 403.97C915.954 403.61 915.364 403.43 914.604 403.43ZM913.914 419.24C915.654 419.24 917.174 418.71 918.474 417.65L912.924 412.34C911.724 413 910.874 413.64 910.374 414.26C909.894 414.86 909.654 415.54 909.654 416.3C909.654 417.18 910.044 417.89 910.824 418.43C911.604 418.97 912.634 419.24 913.914 419.24ZM856.182 438H860.082V459H856.182V438ZM875.032 458.13C874.592 458.49 874.052 458.76 873.412 458.94C872.792 459.12 872.132 459.21 871.432 459.21C869.672 459.21 868.312 458.75 867.352 457.83C866.392 456.91 865.912 455.57 865.912 453.81V446.1H863.272V443.1H865.912V439.44H869.662V443.1H873.952V446.1H869.662V453.72C869.662 454.5 869.852 455.1 870.232 455.52C870.612 455.92 871.162 456.12 871.882 456.12C872.722 456.12 873.422 455.9 873.982 455.46L875.032 458.13ZM892.65 451.08C892.65 451.34 892.63 451.71 892.59 452.19H880.02C880.24 453.37 880.81 454.31 881.73 455.01C882.67 455.69 883.83 456.03 885.21 456.03C886.97 456.03 888.42 455.45 889.56 454.29L891.57 456.6C890.85 457.46 889.94 458.11 888.84 458.55C887.74 458.99 886.5 459.21 885.12 459.21C883.36 459.21 881.81 458.86 880.47 458.16C879.13 457.46 878.09 456.49 877.35 455.25C876.63 453.99 876.27 452.57 876.27 450.99C876.27 449.43 876.62 448.03 877.32 446.79C878.04 445.53 879.03 444.55 880.29 443.85C881.55 443.15 882.97 442.8 884.55 442.8C886.11 442.8 887.5 443.15 888.72 443.85C889.96 444.53 890.92 445.5 891.6 446.76C892.3 448 892.65 449.44 892.65 451.08ZM884.55 445.8C883.35 445.8 882.33 446.16 881.49 446.88C880.67 447.58 880.17 448.52 879.99 449.7H889.08C888.92 448.54 888.43 447.6 887.61 446.88C886.79 446.16 885.77 445.8 884.55 445.8ZM899.822 445.32C900.902 443.64 902.802 442.8 905.522 442.8V446.37C905.202 446.31 904.912 446.28 904.652 446.28C903.192 446.28 902.052 446.71 901.232 447.57C900.412 448.41 900.002 449.63 900.002 451.23V459H896.252V442.98H899.822V445.32ZM914.735 442.8C917.095 442.8 918.895 443.37 920.135 444.51C921.395 445.63 922.025 447.33 922.025 449.61V459H918.485V457.05C918.025 457.75 917.365 458.29 916.505 458.67C915.665 459.03 914.645 459.21 913.445 459.21C912.245 459.21 911.195 459.01 910.295 458.61C909.395 458.19 908.695 457.62 908.195 456.9C907.715 456.16 907.475 455.33 907.475 454.41C907.475 452.97 908.005 451.82 909.065 450.96C910.145 450.08 911.835 449.64 914.135 449.64H918.275V449.4C918.275 448.28 917.935 447.42 917.255 446.82C916.595 446.22 915.605 445.92 914.285 445.92C913.385 445.92 912.495 446.06 911.615 446.34C910.755 446.62 910.025 447.01 909.425 447.51L907.955 444.78C908.795 444.14 909.805 443.65 910.985 443.31C912.165 442.97 913.415 442.8 914.735 442.8ZM914.225 456.48C915.165 456.48 915.995 456.27 916.715 455.85C917.455 455.41 917.975 454.79 918.275 453.99V452.13H914.405C912.245 452.13 911.165 452.84 911.165 454.26C911.165 454.94 911.435 455.48 911.975 455.88C912.515 456.28 913.265 456.48 914.225 456.48ZM936.468 458.13C936.028 458.49 935.488 458.76 934.848 458.94C934.228 459.12 933.568 459.21 932.868 459.21C931.108 459.21 929.748 458.75 928.788 457.83C927.828 456.91 927.348 455.57 927.348 453.81V446.1H924.708V443.1H927.348V439.44H931.098V443.1H935.388V446.1H931.098V453.72C931.098 454.5 931.288 455.1 931.668 455.52C932.048 455.92 932.598 456.12 933.318 456.12C934.158 456.12 934.858 455.9 935.418 455.46L936.468 458.13ZM939.553 442.98H943.303V459H939.553V442.98ZM941.443 440.34C940.763 440.34 940.193 440.13 939.733 439.71C939.273 439.27 939.043 438.73 939.043 438.09C939.043 437.45 939.273 436.92 939.733 436.5C940.193 436.06 940.763 435.84 941.443 435.84C942.123 435.84 942.693 436.05 943.153 436.47C943.613 436.87 943.843 437.38 943.843 438C943.843 438.66 943.613 439.22 943.153 439.68C942.713 440.12 942.143 440.34 941.443 440.34ZM955.425 459.21C953.805 459.21 952.345 458.86 951.045 458.16C949.745 457.46 948.725 456.49 947.985 455.25C947.265 453.99 946.905 452.57 946.905 450.99C946.905 449.41 947.265 448 947.985 446.76C948.725 445.52 949.745 444.55 951.045 443.85C952.345 443.15 953.805 442.8 955.425 442.8C957.065 442.8 958.535 443.15 959.835 443.85C961.135 444.55 962.145 445.52 962.865 446.76C963.605 448 963.975 449.41 963.975 450.99C963.975 452.57 963.605 453.99 962.865 455.25C962.145 456.49 961.135 457.46 959.835 458.16C958.535 458.86 957.065 459.21 955.425 459.21ZM955.425 456C956.805 456 957.945 455.54 958.845 454.62C959.745 453.7 960.195 452.49 960.195 450.99C960.195 449.49 959.745 448.28 958.845 447.36C957.945 446.44 956.805 445.98 955.425 445.98C954.045 445.98 952.905 446.44 952.005 447.36C951.125 448.28 950.685 449.49 950.685 450.99C950.685 452.49 951.125 453.7 952.005 454.62C952.905 455.54 954.045 456 955.425 456ZM976.651 442.8C978.671 442.8 980.291 443.39 981.511 444.57C982.731 445.75 983.341 447.5 983.341 449.82V459H979.591V450.3C979.591 448.9 979.261 447.85 978.601 447.15C977.941 446.43 977.001 446.07 975.781 446.07C974.401 446.07 973.311 446.49 972.511 447.33C971.711 448.15 971.311 449.34 971.311 450.9V459H967.561V442.98H971.131V445.05C971.751 444.31 972.531 443.75 973.471 443.37C974.411 442.99 975.471 442.8 976.651 442.8Z" fill="#07CC9E"/>
<path d="M1505.11 364C1506.93 364 1508.51 364.3 1509.85 364.9C1511.21 365.5 1512.25 366.36 1512.97 367.48C1513.69 368.6 1514.05 369.93 1514.05 371.47C1514.05 372.99 1513.69 374.32 1512.97 375.46C1512.25 376.58 1511.21 377.44 1509.85 378.04C1508.51 378.64 1506.93 378.94 1505.11 378.94H1500.37V385H1496.47V364H1505.11ZM1504.93 375.64C1506.63 375.64 1507.92 375.28 1508.8 374.56C1509.68 373.84 1510.12 372.81 1510.12 371.47C1510.12 370.13 1509.68 369.1 1508.8 368.38C1507.92 367.66 1506.63 367.3 1504.93 367.3H1500.37V375.64H1504.93ZM1524.73 385.21C1523.11 385.21 1521.65 384.86 1520.35 384.16C1519.05 383.46 1518.03 382.49 1517.29 381.25C1516.57 379.99 1516.21 378.57 1516.21 376.99C1516.21 375.41 1516.57 374 1517.29 372.76C1518.03 371.52 1519.05 370.55 1520.35 369.85C1521.65 369.15 1523.11 368.8 1524.73 368.8C1526.37 368.8 1527.84 369.15 1529.14 369.85C1530.44 370.55 1531.45 371.52 1532.17 372.76C1532.91 374 1533.28 375.41 1533.28 376.99C1533.28 378.57 1532.91 379.99 1532.17 381.25C1531.45 382.49 1530.44 383.46 1529.14 384.16C1527.84 384.86 1526.37 385.21 1524.73 385.21ZM1524.73 382C1526.11 382 1527.25 381.54 1528.15 380.62C1529.05 379.7 1529.5 378.49 1529.5 376.99C1529.5 375.49 1529.05 374.28 1528.15 373.36C1527.25 372.44 1526.11 371.98 1524.73 371.98C1523.35 371.98 1522.21 372.44 1521.31 373.36C1520.43 374.28 1519.99 375.49 1519.99 376.99C1519.99 378.49 1520.43 379.7 1521.31 380.62C1522.21 381.54 1523.35 382 1524.73 382ZM1541.81 385.21C1540.51 385.21 1539.24 385.04 1538 384.7C1536.76 384.36 1535.77 383.93 1535.03 383.41L1536.47 380.56C1537.19 381.04 1538.05 381.43 1539.05 381.73C1540.07 382.01 1541.07 382.15 1542.05 382.15C1544.29 382.15 1545.41 381.56 1545.41 380.38C1545.41 379.82 1545.12 379.43 1544.54 379.21C1543.98 378.99 1543.07 378.78 1541.81 378.58C1540.49 378.38 1539.41 378.15 1538.57 377.89C1537.75 377.63 1537.03 377.18 1536.41 376.54C1535.81 375.88 1535.51 374.97 1535.51 373.81C1535.51 372.29 1536.14 371.08 1537.4 370.18C1538.68 369.26 1540.4 368.8 1542.56 368.8C1543.66 368.8 1544.76 368.93 1545.86 369.19C1546.96 369.43 1547.86 369.76 1548.56 370.18L1547.12 373.03C1545.76 372.23 1544.23 371.83 1542.53 371.83C1541.43 371.83 1540.59 372 1540.01 372.34C1539.45 372.66 1539.17 373.09 1539.17 373.63C1539.17 374.23 1539.47 374.66 1540.07 374.92C1540.69 375.16 1541.64 375.39 1542.92 375.61C1544.2 375.81 1545.25 376.04 1546.07 376.3C1546.89 376.56 1547.59 377 1548.17 377.62C1548.77 378.24 1549.07 379.12 1549.07 380.26C1549.07 381.76 1548.42 382.96 1547.12 383.86C1545.82 384.76 1544.05 385.21 1541.81 385.21ZM1561.93 384.13C1561.49 384.49 1560.95 384.76 1560.31 384.94C1559.69 385.12 1559.03 385.21 1558.33 385.21C1556.57 385.21 1555.21 384.75 1554.25 383.83C1553.29 382.91 1552.81 381.57 1552.81 379.81V372.1H1550.17V369.1H1552.81V365.44H1556.56V369.1H1560.85V372.1H1556.56V379.72C1556.56 380.5 1556.75 381.1 1557.13 381.52C1557.51 381.92 1558.06 382.12 1558.78 382.12C1559.62 382.12 1560.32 381.9 1560.88 381.46L1561.93 384.13ZM1563.91 375.1H1572.16V378.22H1563.91V375.1ZM1576.63 364H1580.53V381.7H1591.51V385H1576.63V364ZM1600.49 368.8C1602.85 368.8 1604.65 369.37 1605.89 370.51C1607.15 371.63 1607.78 373.33 1607.78 375.61V385H1604.24V383.05C1603.78 383.75 1603.12 384.29 1602.26 384.67C1601.42 385.03 1600.4 385.21 1599.2 385.21C1598 385.21 1596.95 385.01 1596.05 384.61C1595.15 384.19 1594.45 383.62 1593.95 382.9C1593.47 382.16 1593.23 381.33 1593.23 380.41C1593.23 378.97 1593.76 377.82 1594.82 376.96C1595.9 376.08 1597.59 375.64 1599.89 375.64H1604.03V375.4C1604.03 374.28 1603.69 373.42 1603.01 372.82C1602.35 372.22 1601.36 371.92 1600.04 371.92C1599.14 371.92 1598.25 372.06 1597.37 372.34C1596.51 372.62 1595.78 373.01 1595.18 373.51L1593.71 370.78C1594.55 370.14 1595.56 369.65 1596.74 369.31C1597.92 368.97 1599.17 368.8 1600.49 368.8ZM1599.98 382.48C1600.92 382.48 1601.75 382.27 1602.47 381.85C1603.21 381.41 1603.73 380.79 1604.03 379.99V378.13H1600.16C1598 378.13 1596.92 378.84 1596.92 380.26C1596.92 380.94 1597.19 381.48 1597.73 381.88C1598.27 382.28 1599.02 382.48 1599.98 382.48ZM1628.1 368.98V385H1624.53V382.96C1623.93 383.68 1623.18 384.24 1622.28 384.64C1621.38 385.02 1620.41 385.21 1619.37 385.21C1617.23 385.21 1615.54 384.62 1614.3 383.44C1613.08 382.24 1612.47 380.47 1612.47 378.13V368.98H1616.22V377.62C1616.22 379.06 1616.54 380.14 1617.18 380.86C1617.84 381.56 1618.77 381.91 1619.97 381.91C1621.31 381.91 1622.37 381.5 1623.15 380.68C1623.95 379.84 1624.35 378.64 1624.35 377.08V368.98H1628.1ZM1642.1 368.8C1644.12 368.8 1645.74 369.39 1646.96 370.57C1648.18 371.75 1648.79 373.5 1648.79 375.82V385H1645.04V376.3C1645.04 374.9 1644.71 373.85 1644.05 373.15C1643.39 372.43 1642.45 372.07 1641.23 372.07C1639.85 372.07 1638.76 372.49 1637.96 373.33C1637.16 374.15 1636.76 375.34 1636.76 376.9V385H1633.01V368.98H1636.58V371.05C1637.2 370.31 1637.98 369.75 1638.92 369.37C1639.86 368.99 1640.92 368.8 1642.1 368.8ZM1661.05 385.21C1659.39 385.21 1657.9 384.86 1656.58 384.16C1655.26 383.46 1654.23 382.49 1653.49 381.25C1652.75 379.99 1652.38 378.57 1652.38 376.99C1652.38 375.41 1652.75 374 1653.49 372.76C1654.23 371.52 1655.25 370.55 1656.55 369.85C1657.87 369.15 1659.37 368.8 1661.05 368.8C1662.63 368.8 1664.01 369.12 1665.19 369.76C1666.39 370.4 1667.29 371.32 1667.89 372.52L1665.01 374.2C1664.55 373.46 1663.97 372.91 1663.27 372.55C1662.59 372.17 1661.84 371.98 1661.02 371.98C1659.62 371.98 1658.46 372.44 1657.54 373.36C1656.62 374.26 1656.16 375.47 1656.16 376.99C1656.16 378.51 1656.61 379.73 1657.51 380.65C1658.43 381.55 1659.6 382 1661.02 382C1661.84 382 1662.59 381.82 1663.27 381.46C1663.97 381.08 1664.55 380.52 1665.01 379.78L1667.89 381.46C1667.27 382.66 1666.36 383.59 1665.16 384.25C1663.98 384.89 1662.61 385.21 1661.05 385.21ZM1680.07 368.8C1682.09 368.8 1683.71 369.39 1684.93 370.57C1686.15 371.75 1686.76 373.5 1686.76 375.82V385H1683.01V376.3C1683.01 374.9 1682.68 373.85 1682.02 373.15C1681.36 372.43 1680.42 372.07 1679.2 372.07C1677.82 372.07 1676.73 372.49 1675.93 373.33C1675.13 374.15 1674.73 375.34 1674.73 376.9V385H1670.98V362.74H1674.73V370.84C1675.35 370.18 1676.11 369.68 1677.01 369.34C1677.93 368.98 1678.95 368.8 1680.07 368.8ZM1603.48 422.33L1600.84 419.78C1598.88 421.46 1596.53 422.3 1593.79 422.3C1592.33 422.3 1591.02 422.06 1589.86 421.58C1588.7 421.1 1587.79 420.44 1587.13 419.6C1586.47 418.74 1586.14 417.77 1586.14 416.69C1586.14 415.39 1586.52 414.25 1587.28 413.27C1588.04 412.27 1589.28 411.29 1591 410.33C1590.16 409.49 1589.56 408.71 1589.2 407.99C1588.84 407.25 1588.66 406.49 1588.66 405.71C1588.66 404.23 1589.21 403.04 1590.31 402.14C1591.43 401.22 1592.91 400.76 1594.75 400.76C1596.45 400.76 1597.81 401.18 1598.83 402.02C1599.85 402.84 1600.36 403.96 1600.36 405.38C1600.36 406.46 1600.02 407.42 1599.34 408.26C1598.68 409.1 1597.59 409.95 1596.07 410.81L1600.6 415.13C1601.1 414.15 1601.49 412.97 1601.77 411.59L1604.8 412.58C1604.4 414.44 1603.77 416.04 1602.91 417.38L1605.55 419.9L1603.48 422.33ZM1594.75 403.43C1593.93 403.43 1593.28 403.64 1592.8 404.06C1592.32 404.46 1592.08 404.99 1592.08 405.65C1592.08 406.13 1592.21 406.59 1592.47 407.03C1592.73 407.45 1593.23 408.03 1593.97 408.77C1595.17 408.11 1596 407.54 1596.46 407.06C1596.94 406.56 1597.18 406.02 1597.18 405.44C1597.18 404.82 1596.96 404.33 1596.52 403.97C1596.1 403.61 1595.51 403.43 1594.75 403.43ZM1594.06 419.24C1595.8 419.24 1597.32 418.71 1598.62 417.65L1593.07 412.34C1591.87 413 1591.02 413.64 1590.52 414.26C1590.04 414.86 1589.8 415.54 1589.8 416.3C1589.8 417.18 1590.19 417.89 1590.97 418.43C1591.75 418.97 1592.78 419.24 1594.06 419.24ZM1481.13 459L1481.1 445.08L1474.2 456.6H1472.46L1465.56 445.26V459H1461.84V438H1465.05L1473.39 451.92L1481.58 438H1484.79L1484.82 459H1481.13ZM1497.33 459.21C1495.71 459.21 1494.25 458.86 1492.95 458.16C1491.65 457.46 1490.63 456.49 1489.89 455.25C1489.17 453.99 1488.81 452.57 1488.81 450.99C1488.81 449.41 1489.17 448 1489.89 446.76C1490.63 445.52 1491.65 444.55 1492.95 443.85C1494.25 443.15 1495.71 442.8 1497.33 442.8C1498.97 442.8 1500.44 443.15 1501.74 443.85C1503.04 444.55 1504.05 445.52 1504.77 446.76C1505.51 448 1505.88 449.41 1505.88 450.99C1505.88 452.57 1505.51 453.99 1504.77 455.25C1504.05 456.49 1503.04 457.46 1501.74 458.16C1500.44 458.86 1498.97 459.21 1497.33 459.21ZM1497.33 456C1498.71 456 1499.85 455.54 1500.75 454.62C1501.65 453.7 1502.1 452.49 1502.1 450.99C1502.1 449.49 1501.65 448.28 1500.75 447.36C1499.85 446.44 1498.71 445.98 1497.33 445.98C1495.95 445.98 1494.81 446.44 1493.91 447.36C1493.03 448.28 1492.59 449.49 1492.59 450.99C1492.59 452.49 1493.03 453.7 1493.91 454.62C1494.81 455.54 1495.95 456 1497.33 456ZM1518.35 442.8C1519.91 442.8 1521.3 443.14 1522.52 443.82C1523.76 444.5 1524.73 445.46 1525.43 446.7C1526.13 447.94 1526.48 449.37 1526.48 450.99C1526.48 452.61 1526.13 454.05 1525.43 455.31C1524.73 456.55 1523.76 457.51 1522.52 458.19C1521.3 458.87 1519.91 459.21 1518.35 459.21C1517.25 459.21 1516.24 459.02 1515.32 458.64C1514.42 458.26 1513.66 457.69 1513.04 456.93V459H1509.47V436.74H1513.22V444.93C1513.86 444.23 1514.61 443.7 1515.47 443.34C1516.35 442.98 1517.31 442.8 1518.35 442.8ZM1517.93 456C1519.31 456 1520.44 455.54 1521.32 454.62C1522.22 453.7 1522.67 452.49 1522.67 450.99C1522.67 449.49 1522.22 448.28 1521.32 447.36C1520.44 446.44 1519.31 445.98 1517.93 445.98C1517.03 445.98 1516.22 446.19 1515.5 446.61C1514.78 447.01 1514.21 447.59 1513.79 448.35C1513.37 449.11 1513.16 449.99 1513.16 450.99C1513.16 451.99 1513.37 452.87 1513.79 453.63C1514.21 454.39 1514.78 454.98 1515.5 455.4C1516.22 455.8 1517.03 456 1517.93 456ZM1530.04 442.98H1533.79V459H1530.04V442.98ZM1531.93 440.34C1531.25 440.34 1530.68 440.13 1530.22 439.71C1529.76 439.27 1529.53 438.73 1529.53 438.09C1529.53 437.45 1529.76 436.92 1530.22 436.5C1530.68 436.06 1531.25 435.84 1531.93 435.84C1532.61 435.84 1533.18 436.05 1533.64 436.47C1534.1 436.87 1534.33 437.38 1534.33 438C1534.33 438.66 1534.1 439.22 1533.64 439.68C1533.2 440.12 1532.63 440.34 1531.93 440.34ZM1538.71 436.74H1542.46V459H1538.71V436.74ZM1562.44 451.08C1562.44 451.34 1562.42 451.71 1562.38 452.19H1549.81C1550.03 453.37 1550.6 454.31 1551.52 455.01C1552.46 455.69 1553.62 456.03 1555 456.03C1556.76 456.03 1558.21 455.45 1559.35 454.29L1561.36 456.6C1560.64 457.46 1559.73 458.11 1558.63 458.55C1557.53 458.99 1556.29 459.21 1554.91 459.21C1553.15 459.21 1551.6 458.86 1550.26 458.16C1548.92 457.46 1547.88 456.49 1547.14 455.25C1546.42 453.99 1546.06 452.57 1546.06 450.99C1546.06 449.43 1546.41 448.03 1547.11 446.79C1547.83 445.53 1548.82 444.55 1550.08 443.85C1551.34 443.15 1552.76 442.8 1554.34 442.8C1555.9 442.8 1557.29 443.15 1558.51 443.85C1559.75 444.53 1560.71 445.5 1561.39 446.76C1562.09 448 1562.44 449.44 1562.44 451.08ZM1554.34 445.8C1553.14 445.8 1552.12 446.16 1551.28 446.88C1550.46 447.58 1549.96 448.52 1549.78 449.7H1558.87C1558.71 448.54 1558.22 447.6 1557.4 446.88C1556.58 446.16 1555.56 445.8 1554.34 445.8ZM1590.44 455.73V459H1574.69V438H1590.02V441.27H1578.59V446.73H1588.73V449.94H1578.59V455.73H1590.44ZM1604.34 459L1600.23 453.45L1596.09 459H1591.95L1598.19 450.87L1592.22 442.98H1596.39L1600.32 448.23L1604.25 442.98H1608.3L1602.3 450.81L1608.57 459H1604.34ZM1620.21 442.8C1621.77 442.8 1623.16 443.14 1624.38 443.82C1625.62 444.5 1626.59 445.46 1627.29 446.7C1627.99 447.94 1628.34 449.37 1628.34 450.99C1628.34 452.61 1627.99 454.05 1627.29 455.31C1626.59 456.55 1625.62 457.51 1624.38 458.19C1623.16 458.87 1621.77 459.21 1620.21 459.21C1618.05 459.21 1616.34 458.49 1615.08 457.05V464.82H1611.33V442.98H1614.9V445.08C1615.52 444.32 1616.28 443.75 1617.18 443.37C1618.1 442.99 1619.11 442.8 1620.21 442.8ZM1619.79 456C1621.17 456 1622.3 455.54 1623.18 454.62C1624.08 453.7 1624.53 452.49 1624.53 450.99C1624.53 449.49 1624.08 448.28 1623.18 447.36C1622.3 446.44 1621.17 445.98 1619.79 445.98C1618.89 445.98 1618.08 446.19 1617.36 446.61C1616.64 447.01 1616.07 447.59 1615.65 448.35C1615.23 449.11 1615.02 449.99 1615.02 450.99C1615.02 451.99 1615.23 452.87 1615.65 453.63C1616.07 454.39 1616.64 454.98 1617.36 455.4C1618.08 455.8 1618.89 456 1619.79 456ZM1637.82 442.8C1640.18 442.8 1641.98 443.37 1643.22 444.51C1644.48 445.63 1645.11 447.33 1645.11 449.61V459H1641.57V457.05C1641.11 457.75 1640.45 458.29 1639.59 458.67C1638.75 459.03 1637.73 459.21 1636.53 459.21C1635.33 459.21 1634.28 459.01 1633.38 458.61C1632.48 458.19 1631.78 457.62 1631.28 456.9C1630.8 456.16 1630.56 455.33 1630.56 454.41C1630.56 452.97 1631.09 451.82 1632.15 450.96C1633.23 450.08 1634.92 449.64 1637.22 449.64H1641.36V449.4C1641.36 448.28 1641.02 447.42 1640.34 446.82C1639.68 446.22 1638.69 445.92 1637.37 445.92C1636.47 445.92 1635.58 446.06 1634.7 446.34C1633.84 446.62 1633.11 447.01 1632.51 447.51L1631.04 444.78C1631.88 444.14 1632.89 443.65 1634.07 443.31C1635.25 442.97 1636.5 442.8 1637.82 442.8ZM1637.31 456.48C1638.25 456.48 1639.08 456.27 1639.8 455.85C1640.54 455.41 1641.06 454.79 1641.36 453.99V452.13H1637.49C1635.33 452.13 1634.25 452.84 1634.25 454.26C1634.25 454.94 1634.52 455.48 1635.06 455.88C1635.6 456.28 1636.35 456.48 1637.31 456.48ZM1659.01 442.8C1661.03 442.8 1662.65 443.39 1663.87 444.57C1665.09 445.75 1665.7 447.5 1665.7 449.82V459H1661.95V450.3C1661.95 448.9 1661.62 447.85 1660.96 447.15C1660.3 446.43 1659.36 446.07 1658.14 446.07C1656.76 446.07 1655.67 446.49 1654.87 447.33C1654.07 448.15 1653.67 449.34 1653.67 450.9V459H1649.92V442.98H1653.49V445.05C1654.11 444.31 1654.89 443.75 1655.83 443.37C1656.77 442.99 1657.83 442.8 1659.01 442.8ZM1675.41 459.21C1674.11 459.21 1672.84 459.04 1671.6 458.7C1670.36 458.36 1669.37 457.93 1668.63 457.41L1670.07 454.56C1670.79 455.04 1671.65 455.43 1672.65 455.73C1673.67 456.01 1674.67 456.15 1675.65 456.15C1677.89 456.15 1679.01 455.56 1679.01 454.38C1679.01 453.82 1678.72 453.43 1678.14 453.21C1677.58 452.99 1676.67 452.78 1675.41 452.58C1674.09 452.38 1673.01 452.15 1672.17 451.89C1671.35 451.63 1670.63 451.18 1670.01 450.54C1669.41 449.88 1669.11 448.97 1669.11 447.81C1669.11 446.29 1669.74 445.08 1671 444.18C1672.28 443.26 1674 442.8 1676.16 442.8C1677.26 442.8 1678.36 442.93 1679.46 443.19C1680.56 443.43 1681.46 443.76 1682.16 444.18L1680.72 447.03C1679.36 446.23 1677.83 445.83 1676.13 445.83C1675.03 445.83 1674.19 446 1673.61 446.34C1673.05 446.66 1672.77 447.09 1672.77 447.63C1672.77 448.23 1673.07 448.66 1673.67 448.92C1674.29 449.16 1675.24 449.39 1676.52 449.61C1677.8 449.81 1678.85 450.04 1679.67 450.3C1680.49 450.56 1681.19 451 1681.77 451.62C1682.37 452.24 1682.67 453.12 1682.67 454.26C1682.67 455.76 1682.02 456.96 1680.72 457.86C1679.42 458.76 1677.65 459.21 1675.41 459.21ZM1685.89 442.98H1689.64V459H1685.89V442.98ZM1687.78 440.34C1687.1 440.34 1686.53 440.13 1686.07 439.71C1685.61 439.27 1685.38 438.73 1685.38 438.09C1685.38 437.45 1685.61 436.92 1686.07 436.5C1686.53 436.06 1687.1 435.84 1687.78 435.84C1688.46 435.84 1689.03 436.05 1689.49 436.47C1689.95 436.87 1690.18 437.38 1690.18 438C1690.18 438.66 1689.95 439.22 1689.49 439.68C1689.05 440.12 1688.48 440.34 1687.78 440.34ZM1701.77 459.21C1700.15 459.21 1698.69 458.86 1697.39 458.16C1696.09 457.46 1695.07 456.49 1694.33 455.25C1693.61 453.99 1693.25 452.57 1693.25 450.99C1693.25 449.41 1693.61 448 1694.33 446.76C1695.07 445.52 1696.09 444.55 1697.39 443.85C1698.69 443.15 1700.15 442.8 1701.77 442.8C1703.41 442.8 1704.88 443.15 1706.18 443.85C1707.48 444.55 1708.49 445.52 1709.21 446.76C1709.95 448 1710.32 449.41 1710.32 450.99C1710.32 452.57 1709.95 453.99 1709.21 455.25C1708.49 456.49 1707.48 457.46 1706.18 458.16C1704.88 458.86 1703.41 459.21 1701.77 459.21ZM1701.77 456C1703.15 456 1704.29 455.54 1705.19 454.62C1706.09 453.7 1706.54 452.49 1706.54 450.99C1706.54 449.49 1706.09 448.28 1705.19 447.36C1704.29 446.44 1703.15 445.98 1701.77 445.98C1700.39 445.98 1699.25 446.44 1698.35 447.36C1697.47 448.28 1697.03 449.49 1697.03 450.99C1697.03 452.49 1697.47 453.7 1698.35 454.62C1699.25 455.54 1700.39 456 1701.77 456ZM1722.99 442.8C1725.01 442.8 1726.63 443.39 1727.85 444.57C1729.07 445.75 1729.68 447.5 1729.68 449.82V459H1725.93V450.3C1725.93 448.9 1725.6 447.85 1724.94 447.15C1724.28 446.43 1723.34 446.07 1722.12 446.07C1720.74 446.07 1719.65 446.49 1718.85 447.33C1718.05 448.15 1717.65 449.34 1717.65 450.9V459H1713.9V442.98H1717.47V445.05C1718.09 444.31 1718.87 443.75 1719.81 443.37C1720.75 442.99 1721.81 442.8 1722.99 442.8Z" fill="#EF036C"/>
<path fill-rule="evenodd" clip-rule="evenodd" d="M381.104 552.525C411.302 522.194 430.048 482.33 434.149 439.726L400.316 436.469C393.033 513.077 328.515 573 250 573C166.605 573 99 505.395 99 422C99 338.605 166.605 271 250 271C296.908 271 338.82 292.389 366.516 325.946L392.747 304.321C365.521 271.296 327.687 248.733 285.69 240.476C243.693 232.219 200.133 238.779 162.431 259.038C124.729 279.298 95.2176 312.004 78.926 351.582C62.6345 391.161 60.5704 435.165 73.0854 476.095C85.6004 517.025 111.92 552.349 147.56 576.049C183.2 599.749 225.956 610.358 268.541 606.069C311.126 601.779 350.906 582.857 381.104 552.525Z" fill="url(#paint1_linear_160_209)"/>
<path fill-rule="evenodd" clip-rule="evenodd" d="M583 593C685.173 593 768 510.173 768 408C768 305.827 685.173 223 583 223C480.827 223 398 305.827 398 408C398 510.173 480.827 593 583 593ZM583 559C666.395 559 734 491.395 734 408C734 324.605 666.395 257 583 257C499.605 257 432 324.605 432 408C432 491.395 499.605 559 583 559Z" fill="url(#paint2_linear_160_209)"/>
<path fill-rule="evenodd" clip-rule="evenodd" d="M918 593C1020.17 593 1103 510.173 1103 408C1103 305.827 1020.17 223 918 223C815.827 223 733 305.827 733 408C733 510.173 815.827 593 918 593ZM918 559C1001.4 559 1069 491.395 1069 408C1069 324.605 1001.4 257 918 257C834.605 257 767 324.605 767 408C767 491.395 834.605 559 918 559Z" fill="url(#paint3_linear_160_209)"/>
<path fill-rule="evenodd" clip-rule="evenodd" d="M1255 593C1357.17 593 1440 510.173 1440 408C1440 305.827 1357.17 223 1255 223C1152.83 223 1070 305.827 1070 408C1070 510.173 1152.83 593 1255 593ZM1255 559C1338.39 559 1406 491.395 1406 408C1406 324.605 1338.39 257 1255 257C1171.61 257 1104 324.605 1104 408C1104 491.395 1171.61 559 1255 559Z" fill="url(#paint4_linear_160_209)"/>
<path fill-rule="evenodd" clip-rule="evenodd" d="M1772.7 447.644C1782.27 404.03 1775.74 358.426 1754.32 319.249L1724.51 335.546C1736.3 357.054 1743 381.745 1743 408C1743 491.395 1675.4 559 1592 559C1508.61 559 1441 491.395 1441 408C1441 324.605 1508.61 257 1592 257C1619.2 257 1644.71 264.19 1666.76 276.773L1683.57 247.253C1644.78 225.151 1599.29 217.827 1555.52 226.633C1511.74 235.438 1472.63 259.778 1445.4 295.162C1418.16 330.547 1404.64 374.587 1407.34 419.157C1410.03 463.727 1428.75 505.82 1460.05 537.667C1491.34 569.515 1533.1 588.969 1577.62 592.44C1622.14 595.911 1666.41 583.164 1702.26 556.552C1738.11 529.94 1763.13 491.258 1772.7 447.644Z" fill="#EF036C"/>
<path d="M1715.33 258.076L1787.82 325.43L1695.45 355.007L1715.33 258.076Z" fill="#EF036C"/>
<defs>
<linearGradient id="paint0_linear_160_209" x1="492" y1="113" x2="1375" y2="113" gradientUnits="userSpaceOnUse">
<stop offset="0.0396376" stop-color="#771BD2"/>
<stop offset="0.250283" stop-color="#072FA9"/>
<stop offset="0.474519" stop-color="#07CC9E"/>
<stop offset="0.721404" stop-color="#FFAA2A"/>
<stop offset="0.92752" stop-color="#FE1B62"/>
</linearGradient>
<linearGradient id="paint1_linear_160_209" x1="375.285" y1="398" x2="421.291" y2="446.894" gradientUnits="userSpaceOnUse">
<stop stop-color="#771BD2"/>
<stop offset="1" stop-color="#072FA9"/>
</linearGradient>
<linearGradient id="paint2_linear_160_209" x1="699" y1="354" x2="751" y2="430" gradientUnits="userSpaceOnUse">
<stop stop-color="#072FA9"/>
<stop offset="1" stop-color="#07CC9E"/>
</linearGradient>
<linearGradient id="paint3_linear_160_209" x1="1032" y1="344" x2="1082" y2="423" gradientUnits="userSpaceOnUse">
<stop offset="0.286666" stop-color="#07CC9E"/>
<stop offset="1" stop-color="#FFAA2A"/>
</linearGradient>
<linearGradient id="paint4_linear_160_209" x1="1379" y1="364" x2="1429" y2="447" gradientUnits="userSpaceOnUse">
<stop stop-color="#FFAA2A"/>
<stop offset="1" stop-color="#EF036C"/>
</linearGradient>
</defs>
</svg>
