<svg width="1000" height="1000" viewBox="0 0 1000 1000" fill="none" xmlns="http://www.w3.org/2000/svg">
<rect width="1000" height="1000" fill="white"/>
<g clip-path="url(#clip0_218_44)">
<mask id="mask0_218_44" style="mask-type:luminance" maskUnits="userSpaceOnUse" x="13" y="347" width="974" height="297">
<path d="M13.3838 643.975H986.62V347.995H13.3838V643.975Z" fill="white"/>
</mask>
<g mask="url(#mask0_218_44)">
<path d="M223.185 348.002C206.036 348.002 192.113 361.96 192.113 379.091C192.131 396.159 206.036 410.082 223.104 410.145H223.203C231.502 410.118 239.297 406.892 245.173 401.034C251.021 395.15 254.274 387.355 254.256 379.046C254.238 361.978 240.361 348.056 223.185 348.002Z" fill="#00A1B0"/>
<path d="M195.062 430.856L252.05 430.82L252.212 639.759L195.215 639.804L195.062 430.856Z" fill="#6BC04B"/>
<path d="M13.3838 349.886L75.4095 349.85L75.5177 597.331L186.872 597.268L186.908 639.82L13.537 639.919L13.3838 349.886Z" fill="#6BC04B"/>
<path d="M554.994 362.392L611.973 362.356L612.109 639.566L555.147 639.584L554.994 362.392Z" fill="#6BC04B"/>
<path d="M803.099 484.362L791.222 430.798L840.451 430.78L847.57 459.806L855.383 451.2C869.991 435.123 888.032 426.247 906.181 426.247H906.622C940.604 426.346 957.798 440.323 965.927 474.467L966.296 475.999L914.057 485.849L913.615 484.578C910.659 476.062 905.829 467.348 892.348 467.312C873.505 467.312 861.078 494.184 860.186 503.466L860.132 504.539L860.249 639.701L803.252 639.746L803.099 484.362Z" fill="#6BC04B"/>
<path d="M709.074 469.168C695.575 469.168 686.816 473.674 682.301 482.946C678.462 490.876 678.462 500.942 678.462 508.295L678.48 522.038L738.721 522.002L738.703 508.259C738.703 491.796 738.703 469.24 709.272 469.168V467.645L709.074 469.168ZM709.687 643.972C652.869 643.801 621.537 610.323 621.519 549.685L621.438 515.315C621.401 457.002 650.067 428.643 709.038 428.607H709.714C768.144 428.788 794.196 455.506 794.241 515.216L794.259 550.036L678.48 550.082L678.534 551.65C678.534 568.267 678.552 602.826 710.038 602.952C737.262 602.934 763.566 600.96 784.229 597.437L785.86 597.148L788.879 634.257L787.563 634.537C757.826 640.8 731.792 643.972 710.209 643.972H709.687Z" fill="#6BC04B"/>
<path d="M342.672 641.706C306.735 641.589 291.379 625.089 291.361 586.529L291.262 471.705L261.308 471.733L261.29 430.676L291.217 430.658L291.199 379.266L348.214 362.82L348.232 430.622L426.389 430.586V379.185L483.323 362.748L483.359 430.559L546.25 430.523L546.268 471.57L483.377 471.615L483.503 582.943C483.503 593.171 489.847 599.533 500.084 599.578C506.726 599.578 513.836 598.551 521.369 597.487C525.515 596.892 529.786 596.289 534.147 595.838L535.589 595.676L542.114 634.695L540.582 634.903C537.617 635.362 534.598 635.813 531.543 636.281C514.71 638.904 497.282 641.625 478.232 641.625H477.817C441.897 641.526 426.56 625.026 426.524 586.475L426.416 471.633L348.268 471.669L348.377 583.006C348.395 593.252 354.739 599.614 364.967 599.65C371.581 599.65 378.691 598.632 386.207 597.577C390.361 596.974 394.659 596.361 399.039 595.892L400.481 595.757L407.005 634.75L405.464 634.984C402.508 635.416 399.535 635.867 396.498 636.363C379.619 638.985 362.173 641.706 343.114 641.706H342.672Z" fill="#6BC04B"/>
<path d="M969.834 437.959H972.627C973.97 437.959 974.88 437.76 975.367 437.364C975.853 436.958 976.097 436.436 976.097 435.778C976.097 435.354 975.979 434.976 975.745 434.642C975.511 434.309 975.186 434.057 974.772 433.894C974.348 433.732 973.582 433.651 972.456 433.651H969.834V437.959ZM967.527 445.997V431.714H972.438C974.114 431.714 975.331 431.849 976.079 432.11C976.826 432.371 977.43 432.831 977.872 433.489C978.322 434.147 978.539 434.841 978.539 435.588C978.539 436.625 978.169 437.535 977.43 438.31C976.682 439.085 975.691 439.517 974.465 439.617C974.961 439.824 975.367 440.076 975.673 440.374C976.25 440.932 976.953 441.878 977.791 443.203L979.53 445.997H976.709L975.448 443.753C974.447 441.978 973.645 440.869 973.033 440.419C972.618 440.094 971.996 439.932 971.185 439.932H969.834V445.997H967.527ZM973.348 427.577C971.492 427.577 969.671 428.055 967.905 429.01C966.139 429.965 964.76 431.335 963.76 433.11C962.769 434.886 962.273 436.742 962.273 438.661C962.273 440.572 962.76 442.41 963.742 444.158C964.715 445.916 966.085 447.276 967.851 448.259C969.608 449.241 971.438 449.727 973.348 449.727C975.268 449.727 977.097 449.241 978.863 448.259C980.62 447.276 981.981 445.916 982.963 444.158C983.928 442.41 984.423 440.572 984.423 438.661C984.423 436.742 983.918 434.886 982.936 433.11C981.945 431.335 980.557 429.965 978.791 429.01C977.016 428.055 975.204 427.577 973.348 427.577ZM973.348 425.379C975.583 425.379 977.755 425.955 979.881 427.1C981.999 428.235 983.657 429.875 984.838 432.002C986.027 434.129 986.622 436.354 986.622 438.661C986.622 440.95 986.036 443.149 984.865 445.258C983.702 447.366 982.062 449.016 979.962 450.178C977.854 451.34 975.655 451.926 973.348 451.926C971.05 451.926 968.851 451.34 966.752 450.178C964.643 449.016 963.003 447.366 961.831 445.258C960.651 443.149 960.074 440.95 960.074 438.661C960.074 436.354 960.669 434.129 961.858 432.002C963.048 429.875 964.706 428.235 966.824 427.1C968.95 425.955 971.122 425.379 973.348 425.379Z" fill="#6BC04B"/>
</g>
</g>
<defs>
<clipPath id="clip0_218_44">
<rect width="1000" height="304.136" fill="white" transform="translate(0 348)"/>
</clipPath>
</defs>
</svg>
