<svg width="1000" height="1000" viewBox="0 0 1000 1000" fill="none" xmlns="http://www.w3.org/2000/svg">
<rect width="1000" height="1000" fill="white"/>
<g clip-path="url(#clip0_218_44)">
<path fill-rule="evenodd" clip-rule="evenodd" d="M403.536 519.111L335.699 519.024L335.609 512.502C335.609 491.763 346.079 479.606 370.015 479.606C393.945 479.606 403.536 491.763 403.536 512.502V519.111ZM370.015 458.792C330.66 458.792 311.821 479.797 311.821 515.695V540.73C311.821 573.169 327.468 596.036 368.948 596.036C384.845 596.036 394.444 592.97 403.901 587.793C411.873 583.43 418.366 577.301 422.739 570.385L408.453 556.097C406.98 554.623 404.159 555.486 403.145 557.067C396.493 568.234 388.36 574.857 369.215 574.857C345.261 574.857 335.609 563.598 335.609 543.39V538.561H417.627C425.074 538.561 428.303 534.838 428.303 529.256V513.832C428.303 482.456 410.962 458.792 370.015 458.792Z" fill="#F2581A"/>
<path fill-rule="evenodd" clip-rule="evenodd" d="M788.609 519.111L720.775 519.024L720.687 512.502C720.687 491.763 731.155 479.606 755.088 479.606C779.018 479.606 788.609 491.763 788.609 512.502V519.111ZM755.088 458.792C715.736 458.792 696.895 479.797 696.895 515.695V540.73C696.895 573.169 712.543 596.036 754.024 596.036C769.918 596.036 779.517 592.97 788.977 587.793C796.946 583.43 803.44 577.301 807.815 570.385L793.529 556.097C792.053 554.623 789.238 555.486 788.219 557.067C781.569 568.234 773.433 574.857 754.288 574.857C730.334 574.857 720.687 563.598 720.687 543.39V538.561H802.7C810.147 538.561 813.377 534.838 813.377 529.256V513.832C813.377 482.456 796.038 458.792 755.088 458.792Z" fill="#F2581A"/>
<path fill-rule="evenodd" clip-rule="evenodd" d="M290.695 461.856H281.812C274.04 461.856 272.097 463.249 270.153 468.543C270.153 468.543 233.939 554.712 233.106 561.398H231.995C230.883 554.712 194.395 468.543 194.395 468.543C192.448 463.249 190.509 461.856 182.734 461.856H174.133C167.751 461.856 166.36 463.526 168.857 469.658L219.505 585.642C221.449 590.38 223.946 591.773 228.943 591.773H235.88C240.876 591.773 243.096 590.38 245.04 585.642L295.966 469.379C298.464 463.249 296.8 461.856 290.695 461.856Z" fill="#F2581A"/>
<path fill-rule="evenodd" clip-rule="evenodd" d="M525.43 458.584H516.55C492.123 459.136 476.028 463.29 465.758 467.165C457.157 470.761 455.211 474.083 455.211 482.664V585.131C455.211 590.113 456.877 591.773 461.873 591.773H473.53C478.249 591.773 479.915 590.113 479.915 585.131V491.52C479.915 489.03 480.467 487.369 483.799 485.986C491.846 483.495 502.395 481.28 515.995 481.28H525.43C530.427 481.28 532.093 479.617 532.093 474.638V465.226C532.093 460.244 530.427 458.584 525.43 458.584Z" fill="#F2581A"/>
<path fill-rule="evenodd" clip-rule="evenodd" d="M136.001 461.76H124.345C119.626 461.76 117.96 463.361 117.96 468.169L118.087 585.353C118.087 590.168 119.753 591.773 124.747 591.773H136.404C141.123 591.773 142.787 590.168 142.787 585.353L142.663 468.169C142.663 463.361 140.997 461.76 136.001 461.76Z" fill="#F2581A"/>
<path fill-rule="evenodd" clip-rule="evenodd" d="M646.012 543.606C646.012 567.409 636.72 573.228 610.629 573.228C599.25 573.228 591.899 571.292 584.961 568.801C581.354 567.417 581.074 566.31 581.074 563.542V488.475C587.737 485.986 598.419 481.28 613.962 481.28C637.274 481.28 646.012 487.1 646.012 508.136V543.606ZM617.569 458.584C600.362 458.584 589.123 463.011 581.074 465.502V449.385H581.072V428.044C581.072 424.734 579.155 420.113 576.807 417.775L563.609 404.612C563.553 404.553 563.495 404.496 563.437 404.441L563.403 404.407V404.41C562.666 403.729 561.681 403.31 560.598 403.31C558.303 403.31 556.447 405.169 556.447 407.462C556.447 407.68 556.468 407.891 556.502 408.1C556.484 418.245 556.442 453.842 556.373 572.12C556.373 580.977 558.042 583.192 566.923 587.343C576.635 591.497 591.202 595.924 612.573 595.924C653.927 595.924 670.991 581.523 670.991 544.437V507.303C670.991 472.984 656.425 458.584 617.569 458.584Z" fill="#F2581A"/>
<path fill-rule="evenodd" clip-rule="evenodd" d="M928.409 563.542C928.409 566.586 928.129 567.417 924.799 568.801C917.307 571.292 909.675 573.228 897.467 573.228C873.321 573.228 863.471 567.684 863.471 545.543V509.797C863.471 487.1 871.932 481.28 896.91 481.28C912.453 481.28 922.023 485.43 928.409 487.369V563.542ZM953.107 427.342C953.107 424.033 951.188 419.412 948.843 417.072L935.885 404.152V404.209C935.135 403.461 934.099 402.997 932.956 402.997C930.664 402.997 928.562 404.857 928.562 407.15C928.562 407.161 928.565 407.173 928.565 407.183H928.541L928.488 464.291C928.459 464.28 928.435 464.267 928.409 464.258V464.673C920.914 462.735 909.398 458.584 892.191 458.584C854.447 458.584 838.492 472.984 838.492 508.964V546.373C838.492 581.8 854.447 595.924 894.969 595.924C918.836 595.924 931.461 591.497 942.286 587.343C951.166 583.746 953.11 581.256 953.11 572.12V467.881H953.107V427.342Z" fill="#F2581A"/>
<path fill-rule="evenodd" clip-rule="evenodd" d="M81.2204 458.584H72.3389C47.9122 459.136 31.8173 463.29 21.5484 467.165C12.9434 470.761 11.001 474.083 11.001 482.664V585.131C11.001 590.113 12.6669 591.773 17.6626 591.773H29.3189C34.0382 591.773 35.7041 590.113 35.7041 585.131V491.52C35.7041 489.03 36.256 487.369 39.5879 485.986C47.6357 483.495 58.1833 481.28 71.782 481.28H81.2204C86.2151 481.28 87.8811 479.617 87.8811 474.638V465.226C87.8811 460.244 86.2151 458.584 81.2204 458.584Z" fill="#F2581A"/>
<path d="M131.149 419.813H129.694C120.715 419.813 118.043 422.241 118.043 431.221V432.918C118.043 441.895 120.957 444.325 129.694 444.325H131.149C140.128 444.325 142.798 441.653 142.798 432.918V431.221C142.798 422.241 140.128 419.813 131.149 419.813Z" fill="#F2581A"/>
<path d="M977.594 414.272C978.925 414.272 979.78 413.416 979.78 411.992C979.78 410.597 978.925 409.806 977.594 409.806H975.283V414.272H977.594ZM973.509 408.317H977.911C980.095 408.317 981.616 409.774 981.616 411.992C981.616 413.828 980.446 414.968 979.302 415.254V415.317C979.302 415.317 979.432 415.474 979.714 416.013L982.091 420.669H980.129L977.657 415.665H975.283V420.669H973.509V408.317ZM977.245 424.31C982.63 424.31 986.747 420.035 986.747 414.493C986.747 409.014 982.63 404.706 977.245 404.706C971.988 404.706 967.931 409.014 967.931 414.493C967.931 420.035 971.988 424.31 977.245 424.31ZM977.245 402.997C983.549 402.997 988.585 408.095 988.585 414.493C988.585 420.954 983.549 426.022 977.245 426.022C971.069 426.022 966.064 420.954 966.064 414.493C966.064 408.095 971.069 402.997 977.245 402.997Z" fill="#F2581A"/>
</g>
<defs>
<clipPath id="clip0_218_44">
<rect width="977.595" height="193.037" fill="white" transform="translate(11 403)"/>
</clipPath>
</defs>
</svg>
