<svg width="2237" height="508" viewBox="0 0 2237 508" fill="none" xmlns="http://www.w3.org/2000/svg">
<rect width="2237" height="508" fill="white"/>
<path d="M700.818 92.8843H677.807V76.0811H744.913V92.8843H722.01V151H700.818V92.8843ZM789.626 92.0281C796.832 92.0281 802.612 94.1686 806.964 98.4497C811.388 102.731 813.6 109.188 813.6 117.822V151H793.264V121.139C793.264 113.219 790.089 109.259 783.739 109.259C780.243 109.259 777.424 110.401 775.284 112.684C773.215 114.968 772.18 118.392 772.18 122.959V151H751.845V71.5859H772.18V98.3427C774.392 96.2735 776.996 94.7038 779.993 93.6335C782.99 92.5632 786.201 92.0281 789.626 92.0281ZM886.496 122.103C886.496 122.245 886.389 123.922 886.175 127.133H844.006C844.862 130.13 846.503 132.449 848.929 134.09C851.427 135.659 854.531 136.444 858.241 136.444C861.023 136.444 863.414 136.052 865.412 135.267C867.481 134.482 869.55 133.198 871.619 131.414L882.322 142.545C876.685 148.824 868.444 151.963 857.599 151.963C850.82 151.963 844.862 150.679 839.725 148.11C834.588 145.542 830.592 141.974 827.738 137.408C824.955 132.841 823.564 127.668 823.564 121.889C823.564 116.181 824.92 111.079 827.631 106.584C830.414 102.017 834.231 98.4497 839.083 95.8811C843.935 93.3124 849.393 92.0281 855.458 92.0281C861.238 92.0281 866.482 93.2411 871.191 95.667C875.9 98.0216 879.611 101.482 882.322 106.049C885.105 110.544 886.496 115.895 886.496 122.103ZM855.565 106.477C852.426 106.477 849.786 107.369 847.645 109.152C845.576 110.936 844.256 113.362 843.685 116.43H867.445C866.874 113.362 865.519 110.936 863.378 109.152C861.309 107.369 858.705 106.477 855.565 106.477ZM962.551 152.498C951.42 152.498 942.751 149.466 936.544 143.401C930.407 137.336 927.339 128.738 927.339 117.608V76.0811H948.531V116.965C948.531 128.952 953.275 134.946 962.765 134.946C972.184 134.946 976.893 128.952 976.893 116.965V76.0811H997.763V117.608C997.763 128.738 994.659 137.336 988.452 143.401C982.315 149.466 973.682 152.498 962.551 152.498ZM1058.38 151L1042.86 127.775L1027.56 151H1003.37L1030.66 113.112L1004.55 76.0811H1028.41L1043.4 97.7005L1058.17 76.0811H1081.07L1054.95 112.256L1082.78 151H1058.38ZM1155.38 76.0811C1162.16 76.0811 1168.05 77.2227 1173.04 79.5059C1178.03 81.7178 1181.89 84.9286 1184.6 89.1384C1187.31 93.2768 1188.67 98.1643 1188.67 103.801C1188.67 109.438 1187.31 114.325 1184.6 118.464C1181.89 122.602 1178.03 125.813 1173.04 128.096C1168.05 130.308 1162.16 131.414 1155.38 131.414H1142.32V151H1121.13V76.0811H1155.38ZM1154.1 114.718C1158.45 114.718 1161.73 113.79 1163.94 111.935C1166.15 110.009 1167.26 107.297 1167.26 103.801C1167.26 100.305 1166.15 97.5935 1163.94 95.667C1161.73 93.7405 1158.45 92.7773 1154.1 92.7773H1142.32V114.718H1154.1ZM1217.93 99.9481C1220 97.3081 1222.67 95.3459 1225.96 94.0616C1229.31 92.7059 1233.13 92.0281 1237.41 92.0281V110.33C1235.55 110.116 1234.02 110.009 1232.81 110.009C1228.45 110.009 1225.03 111.186 1222.53 113.541C1220.11 115.895 1218.89 119.498 1218.89 124.35V151H1198.56V92.9913H1217.93V99.9481ZM1274.39 151.963C1268.18 151.963 1262.58 150.679 1257.59 148.11C1252.59 145.542 1248.67 141.974 1245.81 137.408C1243.03 132.841 1241.64 127.668 1241.64 121.889C1241.64 116.181 1243.03 111.043 1245.81 106.477C1248.67 101.91 1252.56 98.3784 1257.48 95.8811C1262.47 93.3124 1268.11 92.0281 1274.39 92.0281C1280.67 92.0281 1286.3 93.3124 1291.3 95.8811C1296.29 98.3784 1300.18 101.91 1302.96 106.477C1305.75 110.972 1307.14 116.109 1307.14 121.889C1307.14 127.668 1305.75 132.841 1302.96 137.408C1300.18 141.974 1296.29 145.542 1291.3 148.11C1286.3 150.679 1280.67 151.963 1274.39 151.963ZM1274.39 135.802C1277.96 135.802 1280.88 134.589 1283.16 132.163C1285.45 129.666 1286.59 126.241 1286.59 121.889C1286.59 117.608 1285.45 114.254 1283.16 111.828C1280.88 109.402 1277.96 108.189 1274.39 108.189C1270.82 108.189 1267.9 109.402 1265.61 111.828C1263.33 114.254 1262.19 117.608 1262.19 121.889C1262.19 126.241 1263.33 129.666 1265.61 132.163C1267.9 134.589 1270.82 135.802 1274.39 135.802ZM1346.21 151.963C1339.78 151.963 1334.04 150.679 1328.97 148.11C1323.91 145.542 1319.95 141.974 1317.09 137.408C1314.31 132.841 1312.92 127.668 1312.92 121.889C1312.92 116.109 1314.31 110.972 1317.09 106.477C1319.95 101.91 1323.91 98.3784 1328.97 95.8811C1334.04 93.3124 1339.78 92.0281 1346.21 92.0281C1352.77 92.0281 1358.44 93.4551 1363.22 96.3092C1368 99.0919 1371.39 102.981 1373.39 107.975L1357.66 116.002C1355.02 110.794 1351.16 108.189 1346.1 108.189C1342.46 108.189 1339.43 109.402 1337 111.828C1334.65 114.254 1333.47 117.608 1333.47 121.889C1333.47 126.241 1334.65 129.666 1337 132.163C1339.43 134.589 1342.46 135.802 1346.1 135.802C1351.16 135.802 1355.02 133.198 1357.66 127.989L1373.39 136.016C1371.39 141.011 1368 144.935 1363.22 147.789C1358.44 150.572 1352.77 151.963 1346.21 151.963ZM1439.71 122.103C1439.71 122.245 1439.61 123.922 1439.39 127.133H1397.22C1398.08 130.13 1399.72 132.449 1402.15 134.09C1404.64 135.659 1407.75 136.444 1411.46 136.444C1414.24 136.444 1416.63 136.052 1418.63 135.267C1420.7 134.482 1422.77 133.198 1424.84 131.414L1435.54 142.545C1429.9 148.824 1421.66 151.963 1410.82 151.963C1404.04 151.963 1398.08 150.679 1392.94 148.11C1387.8 145.542 1383.81 141.974 1380.95 137.408C1378.17 132.841 1376.78 127.668 1376.78 121.889C1376.78 116.181 1378.14 111.079 1380.85 106.584C1383.63 102.017 1387.45 98.4497 1392.3 95.8811C1397.15 93.3124 1402.61 92.0281 1408.67 92.0281C1414.45 92.0281 1419.7 93.2411 1424.41 95.667C1429.12 98.0216 1432.83 101.482 1435.54 106.049C1438.32 110.544 1439.71 115.895 1439.71 122.103ZM1408.78 106.477C1405.64 106.477 1403 107.369 1400.86 109.152C1398.79 110.936 1397.47 113.362 1396.9 116.43H1420.66C1420.09 113.362 1418.74 110.936 1416.59 109.152C1414.53 107.369 1411.92 106.477 1408.78 106.477ZM1470.17 151.963C1465.32 151.963 1460.54 151.428 1455.83 150.358C1451.12 149.216 1447.34 147.754 1444.49 145.97L1450.59 132.056C1453.23 133.697 1456.37 135.017 1460.01 136.016C1463.64 136.944 1467.25 137.408 1470.81 137.408C1474.1 137.408 1476.42 137.086 1477.77 136.444C1479.2 135.731 1479.91 134.732 1479.91 133.448C1479.91 132.163 1479.06 131.271 1477.34 130.772C1475.7 130.201 1473.06 129.666 1469.42 129.166C1464.79 128.596 1460.83 127.846 1457.54 126.919C1454.33 125.991 1451.55 124.279 1449.2 121.782C1446.84 119.284 1445.66 115.788 1445.66 111.293C1445.66 107.583 1446.77 104.301 1448.98 101.446C1451.19 98.5211 1454.4 96.2378 1458.61 94.5968C1462.89 92.8843 1468 92.0281 1473.92 92.0281C1478.13 92.0281 1482.3 92.4562 1486.44 93.3124C1490.58 94.1686 1494.04 95.3816 1496.82 96.9513L1490.72 110.758C1485.58 107.904 1480.02 106.477 1474.03 106.477C1470.81 106.477 1468.46 106.869 1466.96 107.654C1465.46 108.368 1464.71 109.331 1464.71 110.544C1464.71 111.899 1465.53 112.863 1467.18 113.434C1468.82 113.933 1471.53 114.468 1475.31 115.039C1480.09 115.752 1484.05 116.573 1487.19 117.501C1490.33 118.428 1493.04 120.141 1495.32 122.638C1497.68 125.064 1498.86 128.489 1498.86 132.912C1498.86 136.551 1497.75 139.834 1495.54 142.759C1493.33 145.613 1490.04 147.861 1485.69 149.502C1481.41 151.143 1476.24 151.963 1470.17 151.963ZM1528.7 151.963C1523.85 151.963 1519.07 151.428 1514.36 150.358C1509.65 149.216 1505.87 147.754 1503.02 145.97L1509.12 132.056C1511.76 133.697 1514.9 135.017 1518.54 136.016C1522.17 136.944 1525.78 137.408 1529.35 137.408C1532.63 137.408 1534.95 137.086 1536.3 136.444C1537.73 135.731 1538.44 134.732 1538.44 133.448C1538.44 132.163 1537.59 131.271 1535.87 130.772C1534.23 130.201 1531.59 129.666 1527.95 129.166C1523.32 128.596 1519.36 127.846 1516.07 126.919C1512.86 125.991 1510.08 124.279 1507.73 121.782C1505.37 119.284 1504.19 115.788 1504.19 111.293C1504.19 107.583 1505.3 104.301 1507.51 101.446C1509.72 98.5211 1512.93 96.2378 1517.14 94.5968C1521.43 92.8843 1526.53 92.0281 1532.45 92.0281C1536.66 92.0281 1540.83 92.4562 1544.97 93.3124C1549.11 94.1686 1552.57 95.3816 1555.35 96.9513L1549.25 110.758C1544.12 107.904 1538.55 106.477 1532.56 106.477C1529.35 106.477 1526.99 106.869 1525.49 107.654C1523.99 108.368 1523.24 109.331 1523.24 110.544C1523.24 111.899 1524.07 112.863 1525.71 113.434C1527.35 113.933 1530.06 114.468 1533.84 115.039C1538.62 115.752 1542.58 116.573 1545.72 117.501C1548.86 118.428 1551.57 120.141 1553.85 122.638C1556.21 125.064 1557.39 128.489 1557.39 132.912C1557.39 136.551 1556.28 139.834 1554.07 142.759C1551.86 145.613 1548.57 147.861 1544.22 149.502C1539.94 151.143 1534.77 151.963 1528.7 151.963Z" fill="url(#paint0_linear_27_90)"/>
<circle cx="107" cy="324" r="106" fill="#FE1B62"/>
<circle cx="511" cy="324" r="106" fill="#FE5F0F"/>
<circle cx="916" cy="324" r="106" fill="#FFAA2A"/>
<circle cx="1726" cy="324" r="106" fill="#2295A9"/>
<circle cx="2131" cy="324" r="106" fill="#424574"/>
<circle cx="1321" cy="324" r="106" fill="#07CC9E"/>
<path d="M54.8545 301.3C52.7345 301.3 50.8145 300.84 49.0945 299.92C47.3945 298.98 46.0545 297.69 45.0745 296.05C44.1145 294.41 43.6345 292.56 43.6345 290.5C43.6345 288.44 44.1245 286.59 45.1045 284.95C46.0845 283.31 47.4245 282.03 49.1245 281.11C50.8445 280.17 52.7645 279.7 54.8845 279.7C56.6045 279.7 58.1745 280 59.5945 280.6C61.0145 281.2 62.2145 282.07 63.1945 283.21L60.6745 285.58C59.1545 283.94 57.2845 283.12 55.0645 283.12C53.6245 283.12 52.3345 283.44 51.1945 284.08C50.0545 284.7 49.1645 285.57 48.5245 286.69C47.8845 287.81 47.5645 289.08 47.5645 290.5C47.5645 291.92 47.8845 293.19 48.5245 294.31C49.1645 295.43 50.0545 296.31 51.1945 296.95C52.3345 297.57 53.6245 297.88 55.0645 297.88C57.2845 297.88 59.1545 297.05 60.6745 295.39L63.1945 297.79C62.2145 298.93 61.0045 299.8 59.5645 300.4C58.1445 301 56.5745 301.3 54.8545 301.3ZM73.1854 301.21C71.5654 301.21 70.1054 300.86 68.8054 300.16C67.5054 299.46 66.4854 298.49 65.7454 297.25C65.0254 295.99 64.6654 294.57 64.6654 292.99C64.6654 291.41 65.0254 290 65.7454 288.76C66.4854 287.52 67.5054 286.55 68.8054 285.85C70.1054 285.15 71.5654 284.8 73.1854 284.8C74.8254 284.8 76.2954 285.15 77.5954 285.85C78.8954 286.55 79.9054 287.52 80.6254 288.76C81.3654 290 81.7354 291.41 81.7354 292.99C81.7354 294.57 81.3654 295.99 80.6254 297.25C79.9054 298.49 78.8954 299.46 77.5954 300.16C76.2954 300.86 74.8254 301.21 73.1854 301.21ZM73.1854 298C74.5654 298 75.7054 297.54 76.6054 296.62C77.5054 295.7 77.9554 294.49 77.9554 292.99C77.9554 291.49 77.5054 290.28 76.6054 289.36C75.7054 288.44 74.5654 287.98 73.1854 287.98C71.8054 287.98 70.6654 288.44 69.7654 289.36C68.8854 290.28 68.4454 291.49 68.4454 292.99C68.4454 294.49 68.8854 295.7 69.7654 296.62C70.6654 297.54 71.8054 298 73.1854 298ZM94.4113 284.8C96.4313 284.8 98.0513 285.39 99.2713 286.57C100.491 287.75 101.101 289.5 101.101 291.82V301H97.3513V292.3C97.3513 290.9 97.0213 289.85 96.3613 289.15C95.7013 288.43 94.7613 288.07 93.5413 288.07C92.1613 288.07 91.0713 288.49 90.2713 289.33C89.4713 290.15 89.0713 291.34 89.0713 292.9V301H85.3213V284.98H88.8913V287.05C89.5113 286.31 90.2913 285.75 91.2313 285.37C92.1713 284.99 93.2313 284.8 94.4113 284.8ZM113.355 301.21C111.695 301.21 110.205 300.86 108.885 300.16C107.565 299.46 106.535 298.49 105.795 297.25C105.055 295.99 104.685 294.57 104.685 292.99C104.685 291.41 105.055 290 105.795 288.76C106.535 287.52 107.555 286.55 108.855 285.85C110.175 285.15 111.675 284.8 113.355 284.8C114.935 284.8 116.315 285.12 117.495 285.76C118.695 286.4 119.595 287.32 120.195 288.52L117.315 290.2C116.855 289.46 116.275 288.91 115.575 288.55C114.895 288.17 114.145 287.98 113.325 287.98C111.925 287.98 110.765 288.44 109.845 289.36C108.925 290.26 108.465 291.47 108.465 292.99C108.465 294.51 108.915 295.73 109.815 296.65C110.735 297.55 111.905 298 113.325 298C114.145 298 114.895 297.82 115.575 297.46C116.275 297.08 116.855 296.52 117.315 295.78L120.195 297.46C119.575 298.66 118.665 299.59 117.465 300.25C116.285 300.89 114.915 301.21 113.355 301.21ZM138.262 293.08C138.262 293.34 138.242 293.71 138.202 294.19H125.632C125.852 295.37 126.422 296.31 127.342 297.01C128.282 297.69 129.442 298.03 130.822 298.03C132.582 298.03 134.032 297.45 135.172 296.29L137.182 298.6C136.462 299.46 135.552 300.11 134.452 300.55C133.352 300.99 132.112 301.21 130.732 301.21C128.972 301.21 127.422 300.86 126.082 300.16C124.742 299.46 123.702 298.49 122.962 297.25C122.242 295.99 121.882 294.57 121.882 292.99C121.882 291.43 122.232 290.03 122.932 288.79C123.652 287.53 124.642 286.55 125.902 285.85C127.162 285.15 128.582 284.8 130.162 284.8C131.722 284.8 133.112 285.15 134.332 285.85C135.572 286.53 136.532 287.5 137.212 288.76C137.912 290 138.262 291.44 138.262 293.08ZM130.162 287.8C128.962 287.8 127.942 288.16 127.102 288.88C126.282 289.58 125.782 290.52 125.602 291.7H134.692C134.532 290.54 134.042 289.6 133.222 288.88C132.402 288.16 131.382 287.8 130.162 287.8ZM150.744 284.8C152.304 284.8 153.694 285.14 154.914 285.82C156.154 286.5 157.124 287.46 157.824 288.7C158.524 289.94 158.874 291.37 158.874 292.99C158.874 294.61 158.524 296.05 157.824 297.31C157.124 298.55 156.154 299.51 154.914 300.19C153.694 300.87 152.304 301.21 150.744 301.21C148.584 301.21 146.874 300.49 145.614 299.05V306.82H141.864V284.98H145.434V287.08C146.054 286.32 146.814 285.75 147.714 285.37C148.634 284.99 149.644 284.8 150.744 284.8ZM150.324 298C151.704 298 152.834 297.54 153.714 296.62C154.614 295.7 155.064 294.49 155.064 292.99C155.064 291.49 154.614 290.28 153.714 289.36C152.834 288.44 151.704 287.98 150.324 287.98C149.424 287.98 148.614 288.19 147.894 288.61C147.174 289.01 146.604 289.59 146.184 290.35C145.764 291.11 145.554 291.99 145.554 292.99C145.554 293.99 145.764 294.87 146.184 295.63C146.604 296.39 147.174 296.98 147.894 297.4C148.614 297.8 149.424 298 150.324 298ZM172.061 300.13C171.621 300.49 171.081 300.76 170.441 300.94C169.821 301.12 169.161 301.21 168.461 301.21C166.701 301.21 165.341 300.75 164.381 299.83C163.421 298.91 162.941 297.57 162.941 295.81V288.1H160.301V285.1H162.941V281.44H166.691V285.1H170.981V288.1H166.691V295.72C166.691 296.5 166.881 297.1 167.261 297.52C167.641 297.92 168.191 298.12 168.911 298.12C169.751 298.12 170.451 297.9 171.011 297.46L172.061 300.13Z" fill="white"/>
<path d="M448.88 280H452.78V301H448.88V280ZM473.79 278.74V301H470.19V298.93C469.57 299.69 468.8 300.26 467.88 300.64C466.98 301.02 465.98 301.21 464.88 301.21C463.34 301.21 461.95 300.87 460.71 300.19C459.49 299.51 458.53 298.55 457.83 297.31C457.13 296.05 456.78 294.61 456.78 292.99C456.78 291.37 457.13 289.94 457.83 288.7C458.53 287.46 459.49 286.5 460.71 285.82C461.95 285.14 463.34 284.8 464.88 284.8C465.94 284.8 466.91 284.98 467.79 285.34C468.67 285.7 469.42 286.24 470.04 286.96V278.74H473.79ZM465.33 298C466.23 298 467.04 297.8 467.76 297.4C468.48 296.98 469.05 296.39 469.47 295.63C469.89 294.87 470.1 293.99 470.1 292.99C470.1 291.99 469.89 291.11 469.47 290.35C469.05 289.59 468.48 289.01 467.76 288.61C467.04 288.19 466.23 287.98 465.33 287.98C464.43 287.98 463.62 288.19 462.9 288.61C462.18 289.01 461.61 289.59 461.19 290.35C460.77 291.11 460.56 291.99 460.56 292.99C460.56 293.99 460.77 294.87 461.19 295.63C461.61 296.39 462.18 296.98 462.9 297.4C463.62 297.8 464.43 298 465.33 298ZM493.755 293.08C493.755 293.34 493.735 293.71 493.695 294.19H481.125C481.345 295.37 481.915 296.31 482.835 297.01C483.775 297.69 484.935 298.03 486.315 298.03C488.075 298.03 489.525 297.45 490.665 296.29L492.675 298.6C491.955 299.46 491.045 300.11 489.945 300.55C488.845 300.99 487.605 301.21 486.225 301.21C484.465 301.21 482.915 300.86 481.575 300.16C480.235 299.46 479.195 298.49 478.455 297.25C477.735 295.99 477.375 294.57 477.375 292.99C477.375 291.43 477.725 290.03 478.425 288.79C479.145 287.53 480.135 286.55 481.395 285.85C482.655 285.15 484.075 284.8 485.655 284.8C487.215 284.8 488.605 285.15 489.825 285.85C491.065 286.53 492.025 287.5 492.705 288.76C493.405 290 493.755 291.44 493.755 293.08ZM485.655 287.8C484.455 287.8 483.435 288.16 482.595 288.88C481.775 289.58 481.275 290.52 481.095 291.7H490.185C490.025 290.54 489.535 289.6 488.715 288.88C487.895 288.16 486.875 287.8 485.655 287.8ZM503.038 284.8C505.398 284.8 507.198 285.37 508.438 286.51C509.698 287.63 510.328 289.33 510.328 291.61V301H506.788V299.05C506.328 299.75 505.668 300.29 504.808 300.67C503.968 301.03 502.948 301.21 501.748 301.21C500.548 301.21 499.498 301.01 498.598 300.61C497.698 300.19 496.998 299.62 496.498 298.9C496.018 298.16 495.778 297.33 495.778 296.41C495.778 294.97 496.308 293.82 497.368 292.96C498.448 292.08 500.138 291.64 502.438 291.64H506.578V291.4C506.578 290.28 506.238 289.42 505.558 288.82C504.898 288.22 503.908 287.92 502.588 287.92C501.688 287.92 500.798 288.06 499.918 288.34C499.058 288.62 498.328 289.01 497.728 289.51L496.258 286.78C497.098 286.14 498.108 285.65 499.288 285.31C500.468 284.97 501.718 284.8 503.038 284.8ZM502.528 298.48C503.468 298.48 504.298 298.27 505.018 297.85C505.758 297.41 506.278 296.79 506.578 295.99V294.13H502.708C500.548 294.13 499.468 294.84 499.468 296.26C499.468 296.94 499.738 297.48 500.278 297.88C500.818 298.28 501.568 298.48 502.528 298.48ZM524.771 300.13C524.331 300.49 523.791 300.76 523.151 300.94C522.531 301.12 521.871 301.21 521.171 301.21C519.411 301.21 518.051 300.75 517.091 299.83C516.131 298.91 515.651 297.57 515.651 295.81V288.1H513.011V285.1H515.651V281.44H519.401V285.1H523.691V288.1H519.401V295.72C519.401 296.5 519.591 297.1 519.971 297.52C520.351 297.92 520.901 298.12 521.621 298.12C522.461 298.12 523.161 297.9 523.721 297.46L524.771 300.13ZM527.856 284.98H531.606V301H527.856V284.98ZM529.746 282.34C529.066 282.34 528.496 282.13 528.036 281.71C527.576 281.27 527.346 280.73 527.346 280.09C527.346 279.45 527.576 278.92 528.036 278.5C528.496 278.06 529.066 277.84 529.746 277.84C530.426 277.84 530.996 278.05 531.456 278.47C531.916 278.87 532.146 279.38 532.146 280C532.146 280.66 531.916 281.22 531.456 281.68C531.016 282.12 530.446 282.34 529.746 282.34ZM543.727 301.21C542.107 301.21 540.647 300.86 539.347 300.16C538.047 299.46 537.027 298.49 536.287 297.25C535.567 295.99 535.207 294.57 535.207 292.99C535.207 291.41 535.567 290 536.287 288.76C537.027 287.52 538.047 286.55 539.347 285.85C540.647 285.15 542.107 284.8 543.727 284.8C545.367 284.8 546.837 285.15 548.137 285.85C549.437 286.55 550.447 287.52 551.167 288.76C551.907 290 552.277 291.41 552.277 292.99C552.277 294.57 551.907 295.99 551.167 297.25C550.447 298.49 549.437 299.46 548.137 300.16C546.837 300.86 545.367 301.21 543.727 301.21ZM543.727 298C545.107 298 546.247 297.54 547.147 296.62C548.047 295.7 548.497 294.49 548.497 292.99C548.497 291.49 548.047 290.28 547.147 289.36C546.247 288.44 545.107 287.98 543.727 287.98C542.347 287.98 541.207 288.44 540.307 289.36C539.427 290.28 538.987 291.49 538.987 292.99C538.987 294.49 539.427 295.7 540.307 296.62C541.207 297.54 542.347 298 543.727 298ZM564.953 284.8C566.973 284.8 568.593 285.39 569.813 286.57C571.033 287.75 571.643 289.5 571.643 291.82V301H567.893V292.3C567.893 290.9 567.563 289.85 566.903 289.15C566.243 288.43 565.303 288.07 564.083 288.07C562.703 288.07 561.613 288.49 560.813 289.33C560.013 290.15 559.613 291.34 559.613 292.9V301H555.863V284.98H559.433V287.05C560.053 286.31 560.833 285.75 561.773 285.37C562.713 284.99 563.773 284.8 564.953 284.8Z" fill="white"/>
<path d="M839.814 301.3C837.694 301.3 835.774 300.84 834.054 299.92C832.354 298.98 831.014 297.69 830.034 296.05C829.074 294.41 828.594 292.56 828.594 290.5C828.594 288.44 829.084 286.59 830.064 284.95C831.044 283.31 832.384 282.03 834.084 281.11C835.804 280.17 837.724 279.7 839.844 279.7C841.564 279.7 843.134 280 844.554 280.6C845.974 281.2 847.174 282.07 848.154 283.21L845.634 285.58C844.114 283.94 842.244 283.12 840.024 283.12C838.584 283.12 837.294 283.44 836.154 284.08C835.014 284.7 834.124 285.57 833.484 286.69C832.844 287.81 832.524 289.08 832.524 290.5C832.524 291.92 832.844 293.19 833.484 294.31C834.124 295.43 835.014 296.31 836.154 296.95C837.294 297.57 838.584 297.88 840.024 297.88C842.244 297.88 844.114 297.05 845.634 295.39L848.154 297.79C847.174 298.93 845.964 299.8 844.524 300.4C843.104 301 841.534 301.3 839.814 301.3ZM858.145 301.21C856.525 301.21 855.065 300.86 853.765 300.16C852.465 299.46 851.445 298.49 850.705 297.25C849.985 295.99 849.625 294.57 849.625 292.99C849.625 291.41 849.985 290 850.705 288.76C851.445 287.52 852.465 286.55 853.765 285.85C855.065 285.15 856.525 284.8 858.145 284.8C859.785 284.8 861.255 285.15 862.555 285.85C863.855 286.55 864.865 287.52 865.585 288.76C866.325 290 866.695 291.41 866.695 292.99C866.695 294.57 866.325 295.99 865.585 297.25C864.865 298.49 863.855 299.46 862.555 300.16C861.255 300.86 859.785 301.21 858.145 301.21ZM858.145 298C859.525 298 860.665 297.54 861.565 296.62C862.465 295.7 862.915 294.49 862.915 292.99C862.915 291.49 862.465 290.28 861.565 289.36C860.665 288.44 859.525 287.98 858.145 287.98C856.765 287.98 855.625 288.44 854.725 289.36C853.845 290.28 853.405 291.49 853.405 292.99C853.405 294.49 853.845 295.7 854.725 296.62C855.625 297.54 856.765 298 858.145 298ZM870.281 278.74H874.031V301H870.281V278.74ZM878.953 278.74H882.703V301H878.953V278.74ZM893.745 284.8C896.105 284.8 897.905 285.37 899.145 286.51C900.405 287.63 901.035 289.33 901.035 291.61V301H897.495V299.05C897.035 299.75 896.375 300.29 895.515 300.67C894.675 301.03 893.655 301.21 892.455 301.21C891.255 301.21 890.205 301.01 889.305 300.61C888.405 300.19 887.705 299.62 887.205 298.9C886.725 298.16 886.485 297.33 886.485 296.41C886.485 294.97 887.015 293.82 888.075 292.96C889.155 292.08 890.845 291.64 893.145 291.64H897.285V291.4C897.285 290.28 896.945 289.42 896.265 288.82C895.605 288.22 894.615 287.92 893.295 287.92C892.395 287.92 891.505 288.06 890.625 288.34C889.765 288.62 889.035 289.01 888.435 289.51L886.965 286.78C887.805 286.14 888.815 285.65 889.995 285.31C891.175 284.97 892.425 284.8 893.745 284.8ZM893.235 298.48C894.175 298.48 895.005 298.27 895.725 297.85C896.465 297.41 896.985 296.79 897.285 295.99V294.13H893.415C891.255 294.13 890.175 294.84 890.175 296.26C890.175 296.94 890.445 297.48 890.985 297.88C891.525 298.28 892.275 298.48 893.235 298.48ZM914.728 284.8C916.288 284.8 917.678 285.14 918.898 285.82C920.138 286.5 921.108 287.46 921.808 288.7C922.508 289.94 922.858 291.37 922.858 292.99C922.858 294.61 922.508 296.05 921.808 297.31C921.108 298.55 920.138 299.51 918.898 300.19C917.678 300.87 916.288 301.21 914.728 301.21C913.628 301.21 912.618 301.02 911.698 300.64C910.798 300.26 910.038 299.69 909.418 298.93V301H905.848V278.74H909.598V286.93C910.238 286.23 910.988 285.7 911.848 285.34C912.728 284.98 913.688 284.8 914.728 284.8ZM914.308 298C915.688 298 916.818 297.54 917.698 296.62C918.598 295.7 919.048 294.49 919.048 292.99C919.048 291.49 918.598 290.28 917.698 289.36C916.818 288.44 915.688 287.98 914.308 287.98C913.408 287.98 912.598 288.19 911.878 288.61C911.158 289.01 910.588 289.59 910.168 290.35C909.748 291.11 909.538 291.99 909.538 292.99C909.538 293.99 909.748 294.87 910.168 295.63C910.588 296.39 911.158 296.98 911.878 297.4C912.598 297.8 913.408 298 914.308 298ZM933.614 301.21C931.994 301.21 930.534 300.86 929.234 300.16C927.934 299.46 926.914 298.49 926.174 297.25C925.454 295.99 925.094 294.57 925.094 292.99C925.094 291.41 925.454 290 926.174 288.76C926.914 287.52 927.934 286.55 929.234 285.85C930.534 285.15 931.994 284.8 933.614 284.8C935.254 284.8 936.724 285.15 938.024 285.85C939.324 286.55 940.334 287.52 941.054 288.76C941.794 290 942.164 291.41 942.164 292.99C942.164 294.57 941.794 295.99 941.054 297.25C940.334 298.49 939.324 299.46 938.024 300.16C936.724 300.86 935.254 301.21 933.614 301.21ZM933.614 298C934.994 298 936.134 297.54 937.034 296.62C937.934 295.7 938.384 294.49 938.384 292.99C938.384 291.49 937.934 290.28 937.034 289.36C936.134 288.44 934.994 287.98 933.614 287.98C932.234 287.98 931.094 288.44 930.194 289.36C929.314 290.28 928.874 291.49 928.874 292.99C928.874 294.49 929.314 295.7 930.194 296.62C931.094 297.54 932.234 298 933.614 298ZM949.32 287.32C950.4 285.64 952.3 284.8 955.02 284.8V288.37C954.7 288.31 954.41 288.28 954.15 288.28C952.69 288.28 951.55 288.71 950.73 289.57C949.91 290.41 949.5 291.63 949.5 293.23V301H945.75V284.98H949.32V287.32ZM964.233 284.8C966.593 284.8 968.393 285.37 969.633 286.51C970.893 287.63 971.523 289.33 971.523 291.61V301H967.983V299.05C967.523 299.75 966.863 300.29 966.003 300.67C965.163 301.03 964.143 301.21 962.943 301.21C961.743 301.21 960.693 301.01 959.793 300.61C958.893 300.19 958.193 299.62 957.693 298.9C957.213 298.16 956.973 297.33 956.973 296.41C956.973 294.97 957.503 293.82 958.563 292.96C959.643 292.08 961.333 291.64 963.633 291.64H967.773V291.4C967.773 290.28 967.433 289.42 966.753 288.82C966.093 288.22 965.103 287.92 963.783 287.92C962.883 287.92 961.993 288.06 961.113 288.34C960.253 288.62 959.523 289.01 958.923 289.51L957.453 286.78C958.293 286.14 959.303 285.65 960.483 285.31C961.663 284.97 962.913 284.8 964.233 284.8ZM963.723 298.48C964.663 298.48 965.493 298.27 966.213 297.85C966.953 297.41 967.473 296.79 967.773 295.99V294.13H963.903C961.743 294.13 960.663 294.84 960.663 296.26C960.663 296.94 960.933 297.48 961.473 297.88C962.013 298.28 962.763 298.48 963.723 298.48ZM985.966 300.13C985.526 300.49 984.986 300.76 984.346 300.94C983.726 301.12 983.066 301.21 982.366 301.21C980.606 301.21 979.246 300.75 978.286 299.83C977.326 298.91 976.846 297.57 976.846 295.81V288.1H974.206V285.1H976.846V281.44H980.596V285.1H984.886V288.1H980.596V295.72C980.596 296.5 980.786 297.1 981.166 297.52C981.546 297.92 982.096 298.12 982.816 298.12C983.656 298.12 984.356 297.9 984.916 297.46L985.966 300.13ZM1003.58 293.08C1003.58 293.34 1003.56 293.71 1003.52 294.19H990.953C991.173 295.37 991.743 296.31 992.663 297.01C993.603 297.69 994.763 298.03 996.143 298.03C997.903 298.03 999.353 297.45 1000.49 296.29L1002.5 298.6C1001.78 299.46 1000.87 300.11 999.773 300.55C998.673 300.99 997.433 301.21 996.053 301.21C994.293 301.21 992.743 300.86 991.403 300.16C990.063 299.46 989.023 298.49 988.283 297.25C987.563 295.99 987.203 294.57 987.203 292.99C987.203 291.43 987.553 290.03 988.253 288.79C988.973 287.53 989.963 286.55 991.223 285.85C992.483 285.15 993.903 284.8 995.483 284.8C997.043 284.8 998.433 285.15 999.653 285.85C1000.89 286.53 1001.85 287.5 1002.53 288.76C1003.23 290 1003.58 291.44 1003.58 293.08ZM995.483 287.8C994.283 287.8 993.263 288.16 992.423 288.88C991.603 289.58 991.103 290.52 990.923 291.7H1000.01C999.853 290.54 999.363 289.6 998.543 288.88C997.723 288.16 996.703 287.8 995.483 287.8Z" fill="white"/>
<path d="M1258.18 280H1262.08V301H1258.18V280ZM1277.03 300.13C1276.59 300.49 1276.05 300.76 1275.41 300.94C1274.79 301.12 1274.13 301.21 1273.43 301.21C1271.67 301.21 1270.31 300.75 1269.35 299.83C1268.39 298.91 1267.91 297.57 1267.91 295.81V288.1H1265.27V285.1H1267.91V281.44H1271.66V285.1H1275.95V288.1H1271.66V295.72C1271.66 296.5 1271.85 297.1 1272.23 297.52C1272.61 297.92 1273.16 298.12 1273.88 298.12C1274.72 298.12 1275.42 297.9 1275.98 297.46L1277.03 300.13ZM1294.65 293.08C1294.65 293.34 1294.63 293.71 1294.59 294.19H1282.02C1282.24 295.37 1282.81 296.31 1283.73 297.01C1284.67 297.69 1285.83 298.03 1287.21 298.03C1288.97 298.03 1290.42 297.45 1291.56 296.29L1293.57 298.6C1292.85 299.46 1291.94 300.11 1290.84 300.55C1289.74 300.99 1288.5 301.21 1287.12 301.21C1285.36 301.21 1283.81 300.86 1282.47 300.16C1281.13 299.46 1280.09 298.49 1279.35 297.25C1278.63 295.99 1278.27 294.57 1278.27 292.99C1278.27 291.43 1278.62 290.03 1279.32 288.79C1280.04 287.53 1281.03 286.55 1282.29 285.85C1283.55 285.15 1284.97 284.8 1286.55 284.8C1288.11 284.8 1289.5 285.15 1290.72 285.85C1291.96 286.53 1292.92 287.5 1293.6 288.76C1294.3 290 1294.65 291.44 1294.65 293.08ZM1286.55 287.8C1285.35 287.8 1284.33 288.16 1283.49 288.88C1282.67 289.58 1282.17 290.52 1281.99 291.7H1291.08C1290.92 290.54 1290.43 289.6 1289.61 288.88C1288.79 288.16 1287.77 287.8 1286.55 287.8ZM1301.82 287.32C1302.9 285.64 1304.8 284.8 1307.52 284.8V288.37C1307.2 288.31 1306.91 288.28 1306.65 288.28C1305.19 288.28 1304.05 288.71 1303.23 289.57C1302.41 290.41 1302 291.63 1302 293.23V301H1298.25V284.98H1301.82V287.32ZM1316.74 284.8C1319.1 284.8 1320.9 285.37 1322.14 286.51C1323.4 287.63 1324.03 289.33 1324.03 291.61V301H1320.49V299.05C1320.03 299.75 1319.37 300.29 1318.51 300.67C1317.67 301.03 1316.65 301.21 1315.45 301.21C1314.25 301.21 1313.2 301.01 1312.3 300.61C1311.4 300.19 1310.7 299.62 1310.2 298.9C1309.72 298.16 1309.48 297.33 1309.48 296.41C1309.48 294.97 1310.01 293.82 1311.07 292.96C1312.15 292.08 1313.84 291.64 1316.14 291.64H1320.28V291.4C1320.28 290.28 1319.94 289.42 1319.26 288.82C1318.6 288.22 1317.61 287.92 1316.29 287.92C1315.39 287.92 1314.5 288.06 1313.62 288.34C1312.76 288.62 1312.03 289.01 1311.43 289.51L1309.96 286.78C1310.8 286.14 1311.81 285.65 1312.99 285.31C1314.17 284.97 1315.42 284.8 1316.74 284.8ZM1316.23 298.48C1317.17 298.48 1318 298.27 1318.72 297.85C1319.46 297.41 1319.98 296.79 1320.28 295.99V294.13H1316.41C1314.25 294.13 1313.17 294.84 1313.17 296.26C1313.17 296.94 1313.44 297.48 1313.98 297.88C1314.52 298.28 1315.27 298.48 1316.23 298.48ZM1338.47 300.13C1338.03 300.49 1337.49 300.76 1336.85 300.94C1336.23 301.12 1335.57 301.21 1334.87 301.21C1333.11 301.21 1331.75 300.75 1330.79 299.83C1329.83 298.91 1329.35 297.57 1329.35 295.81V288.1H1326.71V285.1H1329.35V281.44H1333.1V285.1H1337.39V288.1H1333.1V295.72C1333.1 296.5 1333.29 297.1 1333.67 297.52C1334.05 297.92 1334.6 298.12 1335.32 298.12C1336.16 298.12 1336.86 297.9 1337.42 297.46L1338.47 300.13ZM1341.55 284.98H1345.3V301H1341.55V284.98ZM1343.44 282.34C1342.76 282.34 1342.19 282.13 1341.73 281.71C1341.27 281.27 1341.04 280.73 1341.04 280.09C1341.04 279.45 1341.27 278.92 1341.73 278.5C1342.19 278.06 1342.76 277.84 1343.44 277.84C1344.12 277.84 1344.69 278.05 1345.15 278.47C1345.61 278.87 1345.84 279.38 1345.84 280C1345.84 280.66 1345.61 281.22 1345.15 281.68C1344.71 282.12 1344.14 282.34 1343.44 282.34ZM1357.42 301.21C1355.8 301.21 1354.34 300.86 1353.04 300.16C1351.74 299.46 1350.72 298.49 1349.98 297.25C1349.26 295.99 1348.9 294.57 1348.9 292.99C1348.9 291.41 1349.26 290 1349.98 288.76C1350.72 287.52 1351.74 286.55 1353.04 285.85C1354.34 285.15 1355.8 284.8 1357.42 284.8C1359.06 284.8 1360.53 285.15 1361.83 285.85C1363.13 286.55 1364.14 287.52 1364.86 288.76C1365.6 290 1365.97 291.41 1365.97 292.99C1365.97 294.57 1365.6 295.99 1364.86 297.25C1364.14 298.49 1363.13 299.46 1361.83 300.16C1360.53 300.86 1359.06 301.21 1357.42 301.21ZM1357.42 298C1358.8 298 1359.94 297.54 1360.84 296.62C1361.74 295.7 1362.19 294.49 1362.19 292.99C1362.19 291.49 1361.74 290.28 1360.84 289.36C1359.94 288.44 1358.8 287.98 1357.42 287.98C1356.04 287.98 1354.9 288.44 1354 289.36C1353.12 290.28 1352.68 291.49 1352.68 292.99C1352.68 294.49 1353.12 295.7 1354 296.62C1354.9 297.54 1356.04 298 1357.42 298ZM1378.65 284.8C1380.67 284.8 1382.29 285.39 1383.51 286.57C1384.73 287.75 1385.34 289.5 1385.34 291.82V301H1381.59V292.3C1381.59 290.9 1381.26 289.85 1380.6 289.15C1379.94 288.43 1379 288.07 1377.78 288.07C1376.4 288.07 1375.31 288.49 1374.51 289.33C1373.71 290.15 1373.31 291.34 1373.31 292.9V301H1369.56V284.98H1373.13V287.05C1373.75 286.31 1374.53 285.75 1375.47 285.37C1376.41 284.99 1377.47 284.8 1378.65 284.8Z" fill="white"/>
<path d="M1669.09 280L1659.94 301H1656.1L1646.92 280H1651.15L1658.14 296.2L1665.19 280H1669.09ZM1675.87 284.8C1678.23 284.8 1680.03 285.37 1681.27 286.51C1682.53 287.63 1683.16 289.33 1683.16 291.61V301H1679.62V299.05C1679.16 299.75 1678.5 300.29 1677.64 300.67C1676.8 301.03 1675.78 301.21 1674.58 301.21C1673.38 301.21 1672.33 301.01 1671.43 300.61C1670.53 300.19 1669.83 299.62 1669.33 298.9C1668.85 298.16 1668.61 297.33 1668.61 296.41C1668.61 294.97 1669.14 293.82 1670.2 292.96C1671.28 292.08 1672.97 291.64 1675.27 291.64H1679.41V291.4C1679.41 290.28 1679.07 289.42 1678.39 288.82C1677.73 288.22 1676.74 287.92 1675.42 287.92C1674.52 287.92 1673.63 288.06 1672.75 288.34C1671.89 288.62 1671.16 289.01 1670.56 289.51L1669.09 286.78C1669.93 286.14 1670.94 285.65 1672.12 285.31C1673.3 284.97 1674.55 284.8 1675.87 284.8ZM1675.36 298.48C1676.3 298.48 1677.13 298.27 1677.85 297.85C1678.59 297.41 1679.11 296.79 1679.41 295.99V294.13H1675.54C1673.38 294.13 1672.3 294.84 1672.3 296.26C1672.3 296.94 1672.57 297.48 1673.11 297.88C1673.65 298.28 1674.4 298.48 1675.36 298.48ZM1687.97 278.74H1691.72V301H1687.97V278.74ZM1696.64 284.98H1700.39V301H1696.64V284.98ZM1698.53 282.34C1697.85 282.34 1697.28 282.13 1696.82 281.71C1696.36 281.27 1696.13 280.73 1696.13 280.09C1696.13 279.45 1696.36 278.92 1696.82 278.5C1697.28 278.06 1697.85 277.84 1698.53 277.84C1699.21 277.84 1699.78 278.05 1700.24 278.47C1700.7 278.87 1700.93 279.38 1700.93 280C1700.93 280.66 1700.7 281.22 1700.24 281.68C1699.8 282.12 1699.23 282.34 1698.53 282.34ZM1721 278.74V301H1717.4V298.93C1716.78 299.69 1716.01 300.26 1715.09 300.64C1714.19 301.02 1713.19 301.21 1712.09 301.21C1710.55 301.21 1709.16 300.87 1707.92 300.19C1706.7 299.51 1705.74 298.55 1705.04 297.31C1704.34 296.05 1703.99 294.61 1703.99 292.99C1703.99 291.37 1704.34 289.94 1705.04 288.7C1705.74 287.46 1706.7 286.5 1707.92 285.82C1709.16 285.14 1710.55 284.8 1712.09 284.8C1713.15 284.8 1714.12 284.98 1715 285.34C1715.88 285.7 1716.63 286.24 1717.25 286.96V278.74H1721ZM1712.54 298C1713.44 298 1714.25 297.8 1714.97 297.4C1715.69 296.98 1716.26 296.39 1716.68 295.63C1717.1 294.87 1717.31 293.99 1717.31 292.99C1717.31 291.99 1717.1 291.11 1716.68 290.35C1716.26 289.59 1715.69 289.01 1714.97 288.61C1714.25 288.19 1713.44 287.98 1712.54 287.98C1711.64 287.98 1710.83 288.19 1710.11 288.61C1709.39 289.01 1708.82 289.59 1708.4 290.35C1707.98 291.11 1707.77 291.99 1707.77 292.99C1707.77 293.99 1707.98 294.87 1708.4 295.63C1708.82 296.39 1709.39 296.98 1710.11 297.4C1710.83 297.8 1711.64 298 1712.54 298ZM1732.03 284.8C1734.39 284.8 1736.19 285.37 1737.43 286.51C1738.69 287.63 1739.32 289.33 1739.32 291.61V301H1735.78V299.05C1735.32 299.75 1734.66 300.29 1733.8 300.67C1732.96 301.03 1731.94 301.21 1730.74 301.21C1729.54 301.21 1728.49 301.01 1727.59 300.61C1726.69 300.19 1725.99 299.62 1725.49 298.9C1725.01 298.16 1724.77 297.33 1724.77 296.41C1724.77 294.97 1725.3 293.82 1726.36 292.96C1727.44 292.08 1729.13 291.64 1731.43 291.64H1735.57V291.4C1735.57 290.28 1735.23 289.42 1734.55 288.82C1733.89 288.22 1732.9 287.92 1731.58 287.92C1730.68 287.92 1729.79 288.06 1728.91 288.34C1728.05 288.62 1727.32 289.01 1726.72 289.51L1725.25 286.78C1726.09 286.14 1727.1 285.65 1728.28 285.31C1729.46 284.97 1730.71 284.8 1732.03 284.8ZM1731.52 298.48C1732.46 298.48 1733.29 298.27 1734.01 297.85C1734.75 297.41 1735.27 296.79 1735.57 295.99V294.13H1731.7C1729.54 294.13 1728.46 294.84 1728.46 296.26C1728.46 296.94 1728.73 297.48 1729.27 297.88C1729.81 298.28 1730.56 298.48 1731.52 298.48ZM1753.76 300.13C1753.32 300.49 1752.78 300.76 1752.14 300.94C1751.52 301.12 1750.86 301.21 1750.16 301.21C1748.4 301.21 1747.04 300.75 1746.08 299.83C1745.12 298.91 1744.64 297.57 1744.64 295.81V288.1H1742V285.1H1744.64V281.44H1748.39V285.1H1752.68V288.1H1748.39V295.72C1748.39 296.5 1748.58 297.1 1748.96 297.52C1749.34 297.92 1749.89 298.12 1750.61 298.12C1751.45 298.12 1752.15 297.9 1752.71 297.46L1753.76 300.13ZM1756.84 284.98H1760.59V301H1756.84V284.98ZM1758.73 282.34C1758.05 282.34 1757.48 282.13 1757.02 281.71C1756.56 281.27 1756.33 280.73 1756.33 280.09C1756.33 279.45 1756.56 278.92 1757.02 278.5C1757.48 278.06 1758.05 277.84 1758.73 277.84C1759.41 277.84 1759.98 278.05 1760.44 278.47C1760.9 278.87 1761.13 279.38 1761.13 280C1761.13 280.66 1760.9 281.22 1760.44 281.68C1760 282.12 1759.43 282.34 1758.73 282.34ZM1772.72 301.21C1771.1 301.21 1769.64 300.86 1768.34 300.16C1767.04 299.46 1766.02 298.49 1765.28 297.25C1764.56 295.99 1764.2 294.57 1764.2 292.99C1764.2 291.41 1764.56 290 1765.28 288.76C1766.02 287.52 1767.04 286.55 1768.34 285.85C1769.64 285.15 1771.1 284.8 1772.72 284.8C1774.36 284.8 1775.83 285.15 1777.13 285.85C1778.43 286.55 1779.44 287.52 1780.16 288.76C1780.9 290 1781.27 291.41 1781.27 292.99C1781.27 294.57 1780.9 295.99 1780.16 297.25C1779.44 298.49 1778.43 299.46 1777.13 300.16C1775.83 300.86 1774.36 301.21 1772.72 301.21ZM1772.72 298C1774.1 298 1775.24 297.54 1776.14 296.62C1777.04 295.7 1777.49 294.49 1777.49 292.99C1777.49 291.49 1777.04 290.28 1776.14 289.36C1775.24 288.44 1774.1 287.98 1772.72 287.98C1771.34 287.98 1770.2 288.44 1769.3 289.36C1768.42 290.28 1767.98 291.49 1767.98 292.99C1767.98 294.49 1768.42 295.7 1769.3 296.62C1770.2 297.54 1771.34 298 1772.72 298ZM1793.94 284.8C1795.96 284.8 1797.58 285.39 1798.8 286.57C1800.02 287.75 1800.63 289.5 1800.63 291.82V301H1796.88V292.3C1796.88 290.9 1796.55 289.85 1795.89 289.15C1795.23 288.43 1794.29 288.07 1793.07 288.07C1791.69 288.07 1790.6 288.49 1789.8 289.33C1789 290.15 1788.6 291.34 1788.6 292.9V301H1784.85V284.98H1788.42V287.05C1789.04 286.31 1789.82 285.75 1790.76 285.37C1791.7 284.99 1792.76 284.8 1793.94 284.8Z" fill="white"/>
<path d="M2070.95 280H2080.13C2082.37 280 2084.36 280.44 2086.1 281.32C2087.84 282.18 2089.19 283.41 2090.15 285.01C2091.11 286.59 2091.59 288.42 2091.59 290.5C2091.59 292.58 2091.11 294.42 2090.15 296.02C2089.19 297.6 2087.84 298.83 2086.1 299.71C2084.36 300.57 2082.37 301 2080.13 301H2070.95V280ZM2079.95 297.7C2081.49 297.7 2082.84 297.41 2084 296.83C2085.18 296.23 2086.08 295.39 2086.7 294.31C2087.34 293.21 2087.66 291.94 2087.66 290.5C2087.66 289.06 2087.34 287.8 2086.7 286.72C2086.08 285.62 2085.18 284.78 2084 284.2C2082.84 283.6 2081.49 283.3 2079.95 283.3H2074.85V297.7H2079.95ZM2110.44 293.08C2110.44 293.34 2110.42 293.71 2110.38 294.19H2097.81C2098.03 295.37 2098.6 296.31 2099.52 297.01C2100.46 297.69 2101.62 298.03 2103 298.03C2104.76 298.03 2106.21 297.45 2107.35 296.29L2109.36 298.6C2108.64 299.46 2107.73 300.11 2106.63 300.55C2105.53 300.99 2104.29 301.21 2102.91 301.21C2101.15 301.21 2099.6 300.86 2098.26 300.16C2096.92 299.46 2095.88 298.49 2095.14 297.25C2094.42 295.99 2094.06 294.57 2094.06 292.99C2094.06 291.43 2094.41 290.03 2095.11 288.79C2095.83 287.53 2096.82 286.55 2098.08 285.85C2099.34 285.15 2100.76 284.8 2102.34 284.8C2103.9 284.8 2105.29 285.15 2106.51 285.85C2107.75 286.53 2108.71 287.5 2109.39 288.76C2110.09 290 2110.44 291.44 2110.44 293.08ZM2102.34 287.8C2101.14 287.8 2100.12 288.16 2099.28 288.88C2098.46 289.58 2097.96 290.52 2097.78 291.7H2106.87C2106.71 290.54 2106.22 289.6 2105.4 288.88C2104.58 288.16 2103.56 287.8 2102.34 287.8ZM2114.04 278.74H2117.79V301H2114.04V278.74ZM2122.71 284.98H2126.46V301H2122.71V284.98ZM2124.6 282.34C2123.92 282.34 2123.35 282.13 2122.89 281.71C2122.43 281.27 2122.2 280.73 2122.2 280.09C2122.2 279.45 2122.43 278.92 2122.89 278.5C2123.35 278.06 2123.92 277.84 2124.6 277.84C2125.28 277.84 2125.85 278.05 2126.31 278.47C2126.77 278.87 2127 279.38 2127 280C2127 280.66 2126.77 281.22 2126.31 281.68C2125.87 282.12 2125.3 282.34 2124.6 282.34ZM2146.38 284.98L2139.51 301H2135.64L2128.77 284.98H2132.67L2137.65 296.86L2142.78 284.98H2146.38ZM2163.35 293.08C2163.35 293.34 2163.33 293.71 2163.29 294.19H2150.72C2150.94 295.37 2151.51 296.31 2152.43 297.01C2153.37 297.69 2154.53 298.03 2155.91 298.03C2157.67 298.03 2159.12 297.45 2160.26 296.29L2162.27 298.6C2161.55 299.46 2160.64 300.11 2159.54 300.55C2158.44 300.99 2157.2 301.21 2155.82 301.21C2154.06 301.21 2152.51 300.86 2151.17 300.16C2149.83 299.46 2148.79 298.49 2148.05 297.25C2147.33 295.99 2146.97 294.57 2146.97 292.99C2146.97 291.43 2147.32 290.03 2148.02 288.79C2148.74 287.53 2149.73 286.55 2150.99 285.85C2152.25 285.15 2153.67 284.8 2155.25 284.8C2156.81 284.8 2158.2 285.15 2159.42 285.85C2160.66 286.53 2161.62 287.5 2162.3 288.76C2163 290 2163.35 291.44 2163.35 293.08ZM2155.25 287.8C2154.05 287.8 2153.03 288.16 2152.19 288.88C2151.37 289.58 2150.87 290.52 2150.69 291.7H2159.78C2159.62 290.54 2159.13 289.6 2158.31 288.88C2157.49 288.16 2156.47 287.8 2155.25 287.8ZM2170.52 287.32C2171.6 285.64 2173.5 284.8 2176.22 284.8V288.37C2175.9 288.31 2175.61 288.28 2175.35 288.28C2173.89 288.28 2172.75 288.71 2171.93 289.57C2171.11 290.41 2170.7 291.63 2170.7 293.23V301H2166.95V284.98H2170.52V287.32ZM2194.99 284.98L2187.49 302.29C2186.79 304.03 2185.94 305.25 2184.94 305.95C2183.94 306.67 2182.73 307.03 2181.31 307.03C2180.51 307.03 2179.72 306.9 2178.94 306.64C2178.16 306.38 2177.52 306.02 2177.02 305.56L2178.52 302.8C2178.88 303.14 2179.3 303.41 2179.78 303.61C2180.28 303.81 2180.78 303.91 2181.28 303.91C2181.94 303.91 2182.48 303.74 2182.9 303.4C2183.34 303.06 2183.74 302.49 2184.1 301.69L2184.37 301.06L2177.38 284.98H2181.28L2186.32 296.83L2191.39 284.98H2194.99Z" fill="white"/>
<path fill-rule="evenodd" clip-rule="evenodd" d="M393.373 319.887L400.267 326.211C400.691 326.599 400.694 327.232 400.276 327.625L393.454 334.028C393.036 334.421 392.353 334.425 391.93 334.037C391.507 333.649 391.504 333.016 391.922 332.623L396.914 327.937L212.006 329L211.994 327L396.902 325.937L391.857 321.309C391.434 320.921 391.43 320.288 391.849 319.895C392.268 319.502 392.95 319.498 393.373 319.887Z" fill="url(#paint1_linear_27_90)"/>
<path fill-rule="evenodd" clip-rule="evenodd" d="M798.415 320.25L805.31 326.575C805.733 326.963 805.737 327.596 805.318 327.989L798.497 334.392C798.078 334.785 797.396 334.789 796.973 334.401C796.55 334.013 796.546 333.38 796.965 332.987L801.956 328.301L617.048 329.364L617.037 327.364L801.945 326.301L796.9 321.673C796.476 321.285 796.473 320.652 796.891 320.259C797.31 319.866 797.992 319.862 798.415 320.25Z" fill="url(#paint2_linear_27_90)"/>
<path fill-rule="evenodd" clip-rule="evenodd" d="M1203.42 320.25L1210.31 326.575C1210.73 326.963 1210.74 327.596 1210.32 327.989L1203.5 334.392C1203.08 334.785 1202.4 334.789 1201.97 334.401C1201.55 334.013 1201.55 333.38 1201.96 332.987L1206.96 328.301L1022.05 329.364L1022.04 327.364L1206.94 326.301L1201.9 321.673C1201.48 321.285 1201.47 320.652 1201.89 320.259C1202.31 319.866 1202.99 319.862 1203.42 320.25Z" fill="url(#paint3_linear_27_90)"/>
<path fill-rule="evenodd" clip-rule="evenodd" d="M1608.42 320.25L1615.31 326.575C1615.73 326.963 1615.74 327.596 1615.32 327.989L1608.5 334.392C1608.08 334.785 1607.4 334.789 1606.97 334.401C1606.55 334.013 1606.55 333.38 1606.96 332.987L1611.96 328.301L1427.05 329.364L1427.04 327.364L1611.94 326.301L1606.9 321.673C1606.48 321.285 1606.47 320.652 1606.89 320.259C1607.31 319.866 1607.99 319.862 1608.42 320.25Z" fill="url(#paint4_linear_27_90)"/>
<path fill-rule="evenodd" clip-rule="evenodd" d="M2013.42 320.25L2020.31 326.575C2020.73 326.963 2020.74 327.596 2020.32 327.989L2013.5 334.392C2013.08 334.785 2012.4 334.789 2011.97 334.401C2011.55 334.013 2011.55 333.38 2011.96 332.987L2016.96 328.301L1832.05 329.364L1832.04 327.364L2016.94 326.301L2011.9 321.673C2011.48 321.285 2011.47 320.652 2011.89 320.259C2012.31 319.866 2012.99 319.862 2013.42 320.25Z" fill="url(#paint5_linear_27_90)"/>
<g clip-path="url(#clip0_27_90)">
<path d="M1296 364C1296 370.63 1298.63 376.989 1303.32 381.678C1308.01 386.366 1314.37 389 1321 389C1327.63 389 1333.99 386.366 1338.68 381.678C1343.37 376.989 1346 370.63 1346 364C1346 357.37 1343.37 351.011 1338.68 346.322C1333.99 341.634 1327.63 339 1321 339C1314.37 339 1308.01 341.634 1303.32 346.322C1298.63 351.011 1296 357.37 1296 364Z" fill="#2295A9"/>
<path d="M1317.25 359C1317.25 359 1313.5 350.25 1306 350.25C1302.35 350.25 1298.86 351.699 1296.28 354.278C1293.7 356.856 1292.25 360.354 1292.25 364C1292.25 367.647 1293.7 371.144 1296.28 373.723C1298.86 376.302 1302.35 377.75 1306 377.75C1318.5 377.75 1323.5 350.25 1336 350.25C1338.39 350.203 1340.76 350.781 1342.86 351.928C1344.96 353.075 1346.73 354.75 1347.98 356.789C1349.24 358.827 1349.94 361.158 1350.02 363.551C1350.09 365.944 1349.54 368.315 1348.42 370.431C1347.3 372.547 1345.65 374.333 1343.63 375.614C1341.61 376.895 1339.28 377.626 1336.89 377.734C1334.5 377.842 1332.12 377.323 1329.99 376.23C1327.86 375.137 1326.06 373.506 1324.75 371.5" stroke="white" stroke-width="2.5" stroke-linecap="round" stroke-linejoin="round"/>
<path d="M1308.56 357.355L1317.25 358.997L1318.89 350.31" stroke="white" stroke-width="2.5" stroke-linecap="round" stroke-linejoin="round"/>
</g>
<g clip-path="url(#clip1_27_90)">
<path d="M2112.58 362.583C2111.8 362.583 2111.62 363.034 2112.17 363.586L2130 381.417C2130.13 381.549 2130.28 381.654 2130.46 381.726C2130.63 381.797 2130.81 381.834 2131 381.834C2131.19 381.834 2131.37 381.797 2131.54 381.726C2131.72 381.654 2131.87 381.549 2132.01 381.417L2149.89 363.637C2150.45 363.091 2150.25 362.637 2149.48 362.632L2140.92 362.583V334.25C2140.92 333.499 2140.62 332.778 2140.09 332.247C2139.56 331.715 2138.83 331.417 2138.08 331.417H2123.92C2123.16 331.417 2122.44 331.715 2121.91 332.247C2121.38 332.778 2121.08 333.499 2121.08 334.25V361.167C2121.08 361.542 2120.93 361.903 2120.67 362.168C2120.4 362.434 2120.04 362.583 2119.67 362.583H2112.58Z" fill="#424574"/>
<path d="M2131 331.417H2123.92C2123.16 331.417 2122.44 331.715 2121.91 332.247C2121.38 332.778 2121.08 333.499 2121.08 334.25V361.167C2121.08 361.542 2120.93 361.903 2120.67 362.168C2120.4 362.434 2120.04 362.583 2119.67 362.583H2112.58C2111.8 362.583 2111.62 363.034 2112.17 363.586L2130 381.417C2130.13 381.549 2130.28 381.653 2130.46 381.725C2130.63 381.796 2130.81 381.833 2131 381.833V331.417Z" fill="#2295A9"/>
<path d="M2112.58 362.583C2111.8 362.583 2111.62 363.034 2112.17 363.586L2130 381.417C2130.13 381.549 2130.28 381.654 2130.46 381.726C2130.63 381.797 2130.81 381.834 2131 381.834C2131.19 381.834 2131.37 381.797 2131.54 381.726C2131.72 381.654 2131.87 381.549 2132.01 381.417L2149.89 363.637C2150.45 363.091 2150.25 362.637 2149.48 362.632L2140.92 362.583V334.25C2140.92 333.499 2140.62 332.778 2140.09 332.247C2139.56 331.715 2138.83 331.417 2138.08 331.417H2123.92C2123.16 331.417 2122.44 331.715 2121.91 332.247C2121.38 332.778 2121.08 333.499 2121.08 334.25V361.167C2121.08 361.542 2120.93 361.903 2120.67 362.168C2120.4 362.434 2120.04 362.583 2119.67 362.583H2112.58Z" stroke="white" stroke-width="2.83333" stroke-linecap="round" stroke-linejoin="round"/>
<path d="M2163.58 382.417V393.75C2163.58 394.502 2163.28 395.222 2162.75 395.754C2162.22 396.285 2161.5 396.583 2160.75 396.583H2101.25C2100.5 396.583 2099.78 396.285 2099.25 395.754C2098.72 395.222 2098.42 394.502 2098.42 393.75V382.417" stroke="white" stroke-width="2.83333" stroke-linecap="round" stroke-linejoin="round"/>
</g>
<g clip-path="url(#clip2_27_90)">
<path d="M113.951 376.924V384.17C113.951 387.974 110.75 389.505 105.948 389.505C101.146 389.505 97.9448 387.974 97.9448 384.17V376.924" fill="#FE5F0F"/>
<path d="M113.951 376.924V384.17C113.951 387.974 110.75 389.505 105.948 389.505C101.146 389.505 97.9448 387.974 97.9448 384.17V376.924" stroke="white" stroke-width="2.66775" stroke-linecap="round" stroke-linejoin="round"/>
<path d="M112.617 377.501C115.812 376.234 118.546 374.024 120.452 371.164C122.359 368.304 123.348 364.931 123.288 361.494C123.206 356.921 121.353 352.558 118.119 349.324C114.884 346.09 110.521 344.236 105.948 344.154C101.374 344.236 97.0111 346.089 93.7766 349.323C90.5422 352.558 88.6891 356.921 88.6076 361.494C88.5472 364.931 89.5363 368.305 91.4429 371.164C93.3495 374.024 96.083 376.235 99.2786 377.501H112.617Z" fill="#FE1B62"/>
<path d="M105.948 352.918C109.796 352.988 113.515 354.315 116.539 356.696C119.564 359.076 121.726 362.38 122.699 366.104C123.107 364.602 123.305 363.051 123.288 361.494C123.207 356.921 121.354 352.558 118.119 349.323C114.885 346.089 110.521 344.236 105.948 344.154C101.375 344.236 97.0115 346.09 93.7772 349.324C90.5429 352.558 88.6896 356.921 88.6074 361.494C88.5907 363.052 88.7891 364.604 89.197 366.107C90.1686 362.383 92.3313 359.078 95.3555 356.697C98.3796 354.316 102.099 352.988 105.948 352.918Z" fill="#FE5F0F"/>
<path d="M112.617 377.501C115.812 376.234 118.546 374.024 120.452 371.164C122.359 368.304 123.348 364.931 123.288 361.494C123.206 356.921 121.353 352.558 118.119 349.324C114.884 346.09 110.521 344.236 105.948 344.154C101.374 344.236 97.0111 346.089 93.7766 349.323C90.5422 352.558 88.6891 356.921 88.6076 361.494C88.5472 364.931 89.5363 368.305 91.4429 371.164C93.3495 374.024 96.083 376.235 99.2786 377.501H112.617Z" stroke="white" stroke-width="2.66775" stroke-linecap="round" stroke-linejoin="round"/>
<path d="M108.616 377.501V361.494C108.616 360.967 108.772 360.451 109.065 360.012C109.359 359.573 109.775 359.231 110.263 359.03C110.75 358.828 111.287 358.775 111.804 358.878C112.322 358.981 112.797 359.235 113.17 359.608C113.543 359.981 113.797 360.456 113.9 360.974C114.003 361.491 113.95 362.028 113.748 362.515C113.546 363.003 113.204 363.419 112.766 363.712C112.327 364.006 111.811 364.162 111.284 364.162H100.613C99.905 364.162 99.2265 363.881 98.7262 363.381C98.2259 362.88 97.9448 362.202 97.9448 361.494C97.9448 360.787 98.2259 360.108 98.7262 359.608C99.2265 359.108 99.905 358.826 100.613 358.826C100.968 358.807 101.323 358.863 101.656 358.99C101.988 359.118 102.29 359.313 102.542 359.565C102.793 359.817 102.989 360.119 103.117 360.451C103.244 360.783 103.3 361.139 103.28 361.494V377.501" stroke="white" stroke-width="2.66775" stroke-linecap="round" stroke-linejoin="round"/>
<path d="M97.9448 382.836H113.951" stroke="white" stroke-width="2.66775" stroke-linecap="round" stroke-linejoin="round"/>
<path d="M105.948 332.389V337.484" stroke="white" stroke-width="2.66775" stroke-linecap="round" stroke-linejoin="round"/>
<path d="M105.948 389.506V393.507" stroke="white" stroke-width="2.66775" stroke-linecap="round" stroke-linejoin="round"/>
<path d="M76.6025 358.826H82.7144" stroke="white" stroke-width="2.66775" stroke-linecap="round" stroke-linejoin="round"/>
<path d="M83.5142 339.058L88.6069 344.154" stroke="white" stroke-width="2.66775" stroke-linecap="round" stroke-linejoin="round"/>
<path d="M135.293 358.826H129.182" stroke="white" stroke-width="2.66775" stroke-linecap="round" stroke-linejoin="round"/>
<path d="M128.381 339.058L123.289 344.154" stroke="white" stroke-width="2.66775" stroke-linecap="round" stroke-linejoin="round"/>
</g>
<path d="M486.437 342.875H534.562C534.562 342.875 536.854 342.875 536.854 345.167V381.833C536.854 381.833 536.854 384.125 534.562 384.125H486.437C486.437 384.125 484.146 384.125 484.146 381.833V345.167C484.146 345.167 484.146 342.875 486.437 342.875Z" fill="#FE5F0F"/>
<path d="M532.271 347.467V365.801H526.542V379.551H488.729V347.467H532.271Z" fill="#FFAA2A"/>
<path d="M497.417 379.551H526.542V365.801H532.271V347.467H529.5L497.417 379.551Z" fill="#FE5F0F"/>
<path d="M536.854 355.479V381.833C536.854 382.441 536.612 383.024 536.183 383.454C535.753 383.884 535.17 384.125 534.562 384.125H486.437C485.829 384.125 485.246 383.884 484.817 383.454C484.387 383.024 484.146 382.441 484.146 381.833V345.167C484.146 344.559 484.387 343.976 484.817 343.546C485.246 343.116 485.829 342.875 486.437 342.875H526.541" stroke="white" stroke-width="2.29167" stroke-linecap="round" stroke-linejoin="round"/>
<path d="M526.542 372.676H532.271V379.551H526.542V372.676Z" fill="#FE5F0F"/>
<path d="M521.959 347.467H488.729V379.551H526.542" stroke="white" stroke-width="2.29167" stroke-linecap="round" stroke-linejoin="round"/>
<path d="M526.542 365.801H532.271V372.676H526.542V365.801Z" fill="#FE5F0F"/>
<path d="M532.271 365.8V360.071" stroke="white" stroke-width="2.29167" stroke-linecap="round" stroke-linejoin="round"/>
<path d="M501.333 370.375C502.92 370.375 504.47 369.905 505.789 369.023C507.108 368.142 508.137 366.889 508.744 365.424C509.351 363.958 509.51 362.345 509.2 360.79C508.891 359.234 508.127 357.804 507.005 356.683C505.883 355.561 504.454 354.797 502.898 354.488C501.342 354.178 499.73 354.337 498.264 354.944C496.798 355.551 495.546 356.579 494.664 357.898C493.783 359.217 493.312 360.768 493.312 362.354C493.312 364.482 494.158 366.522 495.662 368.026C497.166 369.53 499.206 370.375 501.333 370.375Z" fill="#FFAA2A"/>
<path d="M501.333 365.792C502.013 365.792 502.677 365.59 503.243 365.212C503.808 364.834 504.249 364.298 504.509 363.669C504.769 363.041 504.837 362.35 504.704 361.683C504.572 361.017 504.244 360.404 503.764 359.923C503.283 359.443 502.67 359.115 502.004 358.983C501.337 358.85 500.646 358.918 500.018 359.178C499.389 359.438 498.853 359.879 498.475 360.444C498.097 361.01 497.896 361.674 497.896 362.354C497.896 363.266 498.258 364.14 498.902 364.785C499.547 365.429 500.421 365.792 501.333 365.792Z" fill="#FE5F0F"/>
<path d="M535.907 350.696L524.25 362.354L518.521 363.5L519.666 357.771L531.324 346.113C531.93 345.507 532.752 345.167 533.609 345.167C534.466 345.167 535.288 345.507 535.894 346.113L535.907 346.127C536.513 346.733 536.854 347.554 536.854 348.411C536.854 349.268 536.513 350.09 535.907 350.696Z" fill="#FE5F0F"/>
<path d="M526.542 372.676H532.271V379.551H526.542V372.676Z" stroke="white" stroke-width="2.29167" stroke-linecap="round" stroke-linejoin="round"/>
<path d="M526.542 365.801H532.271V372.676H526.542V365.801Z" stroke="white" stroke-width="2.29167" stroke-linecap="round" stroke-linejoin="round"/>
<path d="M501.333 370.375C502.92 370.375 504.47 369.905 505.789 369.023C507.108 368.142 508.137 366.889 508.744 365.424C509.351 363.958 509.51 362.345 509.2 360.79C508.891 359.234 508.127 357.804 507.005 356.683C505.883 355.561 504.454 354.797 502.898 354.488C501.342 354.178 499.73 354.337 498.264 354.944C496.798 355.551 495.546 356.579 494.664 357.898C493.783 359.217 493.312 360.768 493.312 362.354C493.312 364.482 494.158 366.522 495.662 368.026C497.166 369.53 499.206 370.375 501.333 370.375Z" stroke="white" stroke-width="2.29167" stroke-linecap="round" stroke-linejoin="round"/>
<path d="M501.333 365.792C502.013 365.792 502.677 365.59 503.243 365.212C503.808 364.834 504.249 364.298 504.509 363.669C504.769 363.041 504.837 362.35 504.704 361.683C504.572 361.017 504.244 360.404 503.764 359.923C503.283 359.443 502.67 359.115 502.004 358.983C501.337 358.85 500.646 358.918 500.018 359.178C499.389 359.438 498.853 359.879 498.475 360.444C498.097 361.01 497.896 361.674 497.896 362.354C497.896 363.266 498.258 364.14 498.902 364.785C499.547 365.429 500.421 365.792 501.333 365.792Z" stroke="white" stroke-width="2.29167" stroke-linecap="round" stroke-linejoin="round"/>
<path d="M535.907 350.696L524.25 362.354L518.521 363.5L519.666 357.771L531.324 346.113C531.93 345.507 532.752 345.167 533.609 345.167C534.466 345.167 535.288 345.507 535.894 346.113L535.907 346.127C536.513 346.733 536.854 347.554 536.854 348.411C536.854 349.268 536.513 350.09 535.907 350.696Z" stroke="white" stroke-width="2.29167" stroke-linecap="round" stroke-linejoin="round"/>
<g clip-path="url(#clip3_27_90)">
<path d="M917.208 365.208C916.567 365.208 915.953 365.463 915.499 365.916C915.046 366.369 914.792 366.984 914.792 367.625V382.125C914.792 382.766 915.046 383.381 915.499 383.834C915.953 384.287 916.567 384.542 917.208 384.542H922.042V390.583L928.083 384.542H941.375C942.016 384.542 942.63 384.287 943.084 383.834C943.537 383.381 943.792 382.766 943.792 382.125V367.625C943.792 366.984 943.537 366.369 943.084 365.916C942.63 365.463 942.016 365.208 941.375 365.208H917.208Z" fill="#FE5F0F"/>
<path d="M917.208 365.208C916.567 365.208 915.953 365.463 915.499 365.916C915.046 366.369 914.792 366.984 914.792 367.625V382.125C914.792 382.766 915.046 383.381 915.499 383.834C915.953 384.287 916.567 384.542 917.208 384.542H918.9L938.233 365.208H917.208Z" fill="#FFAA2A"/>
<path d="M914.792 336.208C915.433 336.208 916.047 336.463 916.501 336.916C916.954 337.369 917.208 337.984 917.208 338.625V353.125C917.208 353.766 916.954 354.381 916.501 354.834C916.047 355.287 915.433 355.542 914.792 355.542H909.958V361.583L903.917 355.542H890.625C889.984 355.542 889.37 355.287 888.916 354.834C888.463 354.381 888.208 353.766 888.208 353.125V338.625C888.208 337.984 888.463 337.369 888.916 336.916C889.37 336.463 889.984 336.208 890.625 336.208H914.792Z" fill="#FE5F0F"/>
<path d="M890.625 336.208C889.984 336.208 889.37 336.463 888.916 336.916C888.463 337.369 888.208 337.984 888.208 338.625V353.125C888.208 353.766 888.463 354.381 888.916 354.834C889.37 355.287 889.984 355.542 890.625 355.542H892.317L911.65 336.208H890.625Z" fill="#FFAA2A"/>
<path d="M914.792 336.208C915.433 336.208 916.047 336.463 916.501 336.916C916.954 337.369 917.208 337.984 917.208 338.625V353.125C917.208 353.766 916.954 354.381 916.501 354.834C916.047 355.287 915.433 355.542 914.792 355.542H909.958V361.583L903.917 355.542H890.625C889.984 355.542 889.37 355.287 888.916 354.834C888.463 354.381 888.208 353.766 888.208 353.125V338.625C888.208 337.984 888.463 337.369 888.916 336.916C889.37 336.463 889.984 336.208 890.625 336.208H914.792Z" stroke="white" stroke-width="2.41667" stroke-linecap="round" stroke-linejoin="round"/>
<path d="M943.386 360.375C942.326 358.536 940.8 357.009 938.962 355.947C937.125 354.885 935.039 354.326 932.917 354.326C930.794 354.326 928.709 354.885 926.871 355.947C925.033 357.009 923.508 358.536 922.448 360.375" fill="#FE5F0F"/>
<path d="M943.386 360.375C942.326 358.536 940.8 357.009 938.962 355.947C937.125 354.885 935.039 354.326 932.917 354.326C930.794 354.326 928.709 354.885 926.871 355.947C925.033 357.009 923.508 358.536 922.448 360.375" stroke="white" stroke-width="2.41667" stroke-linecap="round" stroke-linejoin="round"/>
<path d="M909.552 391.792C908.492 389.953 906.967 388.426 905.129 387.364C903.291 386.302 901.206 385.742 899.083 385.742C896.961 385.742 894.876 386.302 893.038 387.364C891.2 388.426 889.674 389.953 888.614 391.792" fill="#FE5F0F"/>
<path d="M909.552 391.792C908.492 389.953 906.967 388.426 905.129 387.364C903.291 386.302 901.206 385.742 899.083 385.742C896.961 385.742 894.876 386.302 893.038 387.364C891.2 388.426 889.674 389.953 888.614 391.792" stroke="white" stroke-width="2.41667" stroke-linecap="round" stroke-linejoin="round"/>
<path d="M911.167 345.875H895.458" stroke="white" stroke-width="2.41667" stroke-linecap="round" stroke-linejoin="round"/>
<path d="M900.292 342.25L895.458 345.875L900.292 349.5" stroke="white" stroke-width="2.41667" stroke-linecap="round" stroke-linejoin="round"/>
<path d="M920.833 374.875H936.542" stroke="white" stroke-width="2.41667" stroke-linecap="round" stroke-linejoin="round"/>
<path d="M931.708 371.25L936.542 374.875L931.708 378.5" stroke="white" stroke-width="2.41667" stroke-linecap="round" stroke-linejoin="round"/>
<path d="M940.095 342.443C938.817 343.126 937.387 343.476 935.938 343.458C934.235 343.459 932.567 342.981 931.123 342.08C929.679 341.178 928.517 339.889 927.77 338.359C928.72 337.401 929.918 336.727 931.231 336.414C932.543 336.1 933.917 336.158 935.197 336.583C936.478 337.007 937.615 337.781 938.48 338.816C939.345 339.851 939.904 341.108 940.095 342.443Z" fill="#FE5F0F" stroke="white" stroke-width="2.41667" stroke-linecap="round" stroke-linejoin="round"/>
<path d="M940.167 343.458C940.167 345.381 939.403 347.225 938.043 348.585C936.683 349.944 934.839 350.708 932.917 350.708C930.994 350.708 929.15 349.944 927.79 348.585C926.43 347.225 925.667 345.381 925.667 343.458C925.662 342.511 925.846 341.573 926.207 340.698C926.568 339.822 927.099 339.027 927.769 338.359C928.516 339.889 929.678 341.178 931.122 342.079C932.566 342.981 934.235 343.459 935.937 343.458C937.386 343.475 938.816 343.126 940.094 342.443C940.142 342.779 940.166 343.118 940.167 343.458Z" fill="#FFAA2A" stroke="white" stroke-width="2.41667" stroke-linecap="round" stroke-linejoin="round"/>
<path d="M906.259 373.853C904.981 374.536 903.551 374.885 902.102 374.868C900.399 374.869 898.731 374.391 897.287 373.489C895.843 372.588 894.681 371.299 893.934 369.769C894.884 368.811 896.082 368.137 897.395 367.823C898.707 367.51 900.081 367.568 901.361 367.993C902.642 368.417 903.779 369.19 904.644 370.226C905.509 371.261 906.068 372.517 906.259 373.853Z" fill="#FE5F0F" stroke="white" stroke-width="2.41667" stroke-linecap="round" stroke-linejoin="round"/>
<path d="M906.334 374.875C906.334 376.798 905.57 378.642 904.21 380.001C902.85 381.361 901.006 382.125 899.084 382.125C897.161 382.125 895.317 381.361 893.957 380.001C892.597 378.642 891.834 376.798 891.834 374.875C891.829 373.928 892.013 372.99 892.374 372.115C892.735 371.239 893.266 370.444 893.936 369.776C894.683 371.305 895.845 372.595 897.289 373.496C898.733 374.398 900.402 374.875 902.104 374.875C903.553 374.892 904.983 374.543 906.261 373.86C906.309 374.196 906.333 374.535 906.334 374.875Z" fill="#FFAA2A" stroke="white" stroke-width="2.41667" stroke-linecap="round" stroke-linejoin="round"/>
<path d="M917.208 365.208C916.567 365.208 915.953 365.463 915.499 365.916C915.046 366.369 914.792 366.984 914.792 367.625V382.125C914.792 382.766 915.046 383.381 915.499 383.834C915.953 384.287 916.567 384.542 917.208 384.542H922.042V390.583L928.083 384.542H941.375C942.016 384.542 942.63 384.287 943.084 383.834C943.537 383.381 943.792 382.766 943.792 382.125V367.625C943.792 366.984 943.537 366.369 943.084 365.916C942.63 365.463 942.016 365.208 941.375 365.208H917.208Z" stroke="white" stroke-width="2.41667" stroke-linecap="round" stroke-linejoin="round"/>
</g>
<path d="M1698.81 360.394C1699.12 360.09 1699.48 359.849 1699.87 359.684C1700.27 359.52 1700.7 359.435 1701.12 359.435C1701.55 359.435 1701.98 359.52 1702.38 359.684C1702.77 359.849 1703.13 360.09 1703.44 360.394L1709.25 366.209L1734.02 341.438C1734.32 341.134 1734.68 340.893 1735.08 340.728C1735.48 340.564 1735.9 340.479 1736.33 340.479C1736.76 340.479 1737.19 340.564 1737.58 340.728C1737.98 340.893 1738.34 341.134 1738.65 341.438L1742.15 344.94C1742.45 345.243 1742.69 345.604 1742.85 346C1743.02 346.397 1743.1 346.822 1743.1 347.252C1743.1 347.681 1743.02 348.106 1742.85 348.503C1742.69 348.899 1742.45 349.26 1742.15 349.563L1711.56 380.146C1710.95 380.758 1710.12 381.102 1709.25 381.102C1708.38 381.102 1707.55 380.758 1706.94 380.146L1695.31 368.519C1695.01 368.215 1694.77 367.855 1694.6 367.458C1694.44 367.062 1694.35 366.637 1694.35 366.207C1694.35 365.778 1694.44 365.353 1694.6 364.956C1694.77 364.559 1695.01 364.199 1695.31 363.896L1698.81 360.394Z" fill="#07CC9E"/>
<path d="M1712.35 360.394C1712.66 360.09 1713.02 359.849 1713.41 359.684C1713.81 359.52 1714.24 359.435 1714.67 359.435C1715.1 359.435 1715.52 359.52 1715.92 359.684C1716.32 359.849 1716.68 360.09 1716.98 360.394L1722.79 366.209L1747.56 341.438C1747.87 341.134 1748.23 340.893 1748.62 340.728C1749.02 340.564 1749.45 340.479 1749.88 340.479C1750.3 340.479 1750.73 340.564 1751.13 340.728C1751.52 340.893 1751.88 341.134 1752.19 341.438L1755.69 344.94C1755.99 345.243 1756.23 345.604 1756.4 346C1756.56 346.397 1756.65 346.822 1756.65 347.252C1756.65 347.681 1756.56 348.106 1756.4 348.503C1756.23 348.899 1755.99 349.26 1755.69 349.563L1725.1 380.146C1724.49 380.758 1723.66 381.102 1722.79 381.102C1721.92 381.102 1721.09 380.758 1720.48 380.146L1708.85 368.519C1708.55 368.215 1708.31 367.855 1708.15 367.458C1707.98 367.062 1707.9 366.637 1707.9 366.207C1707.9 365.778 1707.98 365.353 1708.15 364.956C1708.31 364.559 1708.55 364.199 1708.85 363.896L1712.35 360.394Z" fill="#2295A9" stroke="white" stroke-width="2.70833" stroke-linecap="round" stroke-linejoin="round"/>
<path d="M1704.14 361.101L1703.44 360.396C1703.13 360.092 1702.77 359.851 1702.38 359.687C1701.98 359.522 1701.55 359.438 1701.12 359.438C1700.7 359.438 1700.27 359.522 1699.87 359.687C1699.48 359.851 1699.12 360.092 1698.81 360.396L1695.31 363.898C1695.01 364.202 1694.77 364.562 1694.6 364.959C1694.44 365.355 1694.35 365.78 1694.35 366.21C1694.35 366.639 1694.44 367.064 1694.6 367.461C1694.77 367.858 1695.01 368.218 1695.31 368.521L1706.94 380.148C1707.55 380.76 1708.38 381.103 1709.25 381.103C1710.12 381.103 1710.95 380.76 1711.56 380.148L1712.19 379.517" stroke="white" stroke-width="2.70833" stroke-linecap="round" stroke-linejoin="round"/>
<path d="M1739.27 342.066L1738.65 341.438C1738.34 341.134 1737.98 340.893 1737.58 340.728C1737.19 340.564 1736.76 340.479 1736.33 340.479C1735.9 340.479 1735.48 340.564 1735.08 340.728C1734.68 340.893 1734.32 341.134 1734.02 341.438L1719.77 355.689" stroke="white" stroke-width="2.70833" stroke-linecap="round" stroke-linejoin="round"/>
<defs>
<linearGradient id="paint0_linear_27_90" x1="677" y1="113" x2="1560" y2="113" gradientUnits="userSpaceOnUse">
<stop stop-color="#FE1B62"/>
<stop offset="0.209513" stop-color="#FE5F0F"/>
<stop offset="0.374858" stop-color="#FFAA2A"/>
<stop offset="0.585" stop-color="#07CC9E"/>
<stop offset="0.755" stop-color="#2295A9"/>
<stop offset="0.938845" stop-color="#424574"/>
</linearGradient>
<linearGradient id="paint1_linear_27_90" x1="212" y1="328" x2="400.587" y2="326.916" gradientUnits="userSpaceOnUse">
<stop stop-color="#FE1B62"/>
<stop offset="1" stop-color="#FE5F0F"/>
</linearGradient>
<linearGradient id="paint2_linear_27_90" x1="617.042" y1="328.364" x2="805.63" y2="327.28" gradientUnits="userSpaceOnUse">
<stop stop-color="#FE5F0F"/>
<stop offset="1" stop-color="#FFAA2A"/>
</linearGradient>
<linearGradient id="paint3_linear_27_90" x1="1022.04" y1="328.364" x2="1210.63" y2="327.28" gradientUnits="userSpaceOnUse">
<stop stop-color="#FFAA2A"/>
<stop offset="1" stop-color="#07CC9E"/>
</linearGradient>
<linearGradient id="paint4_linear_27_90" x1="1427.04" y1="328.364" x2="1615.63" y2="327.28" gradientUnits="userSpaceOnUse">
<stop stop-color="#07CC9E"/>
<stop offset="1" stop-color="#2295A9"/>
</linearGradient>
<linearGradient id="paint5_linear_27_90" x1="1832.04" y1="328.364" x2="2020.63" y2="327.28" gradientUnits="userSpaceOnUse">
<stop stop-color="#2295A9"/>
<stop offset="1" stop-color="#424574"/>
</linearGradient>
<clipPath id="clip0_27_90">
<rect width="60" height="60" fill="white" transform="translate(1291 334)"/>
</clipPath>
<clipPath id="clip1_27_90">
<rect width="68" height="68" fill="white" transform="translate(2097 330)"/>
</clipPath>
<clipPath id="clip2_27_90">
<rect width="64.026" height="64.026" fill="white" transform="translate(73.9351 330.935)"/>
</clipPath>
<clipPath id="clip3_27_90">
<rect width="58" height="58" fill="white" transform="translate(887 335)"/>
</clipPath>
</defs>
</svg>
