<svg width="1254" height="438" viewBox="0 0 1254 438" fill="none" xmlns="http://www.w3.org/2000/svg">
<g clip-path="url(#clip0_232_125)">
<g filter="url(#filter0_d_232_125)">
<g filter="url(#filter1_d_232_125)">
<rect x="25" y="15" width="1204" height="408" rx="100" fill="white"/>
<rect x="27.5" y="17.5" width="1199" height="403" rx="97.5" stroke="#007EA7" stroke-width="5"/>
</g>
<path d="M466.477 331.599V104H478.422L576.568 326.111H567.528L665.993 104H677.615V331.599H665.025V117.236H672.769L577.859 331.599H566.56L471.323 116.913H479.071V331.599H466.477Z" fill="#007EA7"/>
<path d="M763.739 275.185C753.727 275.185 745.866 272.408 740.164 266.852C734.462 261.296 731.609 252.061 731.609 239.148C731.609 226.332 734.586 216.771 740.539 210.464C746.497 204.158 754.481 201.005 764.493 201.005C773.401 201.005 781.108 203.257 787.617 207.762V172.475H799.926V273.676H789.415L788.518 266.169C785.211 269.273 781.581 271.552 777.632 273.001C773.671 274.461 769.043 275.185 763.739 275.185ZM766.892 265.275C770.995 265.275 774.797 264.577 778.304 263.177C781.81 261.773 784.911 259.622 787.613 256.716V217.976C785.106 215.776 782.155 214.049 778.754 212.796C775.349 211.546 771.494 210.919 767.192 210.919C759.286 210.919 753.427 213.194 749.62 217.751C745.814 222.308 743.914 229.44 743.914 239.148C743.914 248.454 745.667 255.14 749.17 259.194C752.672 263.248 758.581 265.275 766.892 265.275Z" fill="#007EA7"/>
<path d="M854.437 275.186C841.719 275.186 832.214 272.137 825.904 266.03C819.597 259.922 816.444 250.511 816.444 237.797C816.444 226.385 819.173 217.402 824.627 210.84C830.082 204.286 838.719 201.008 850.529 201.008C857.534 201.008 863.315 202.285 867.872 204.837C872.426 207.39 875.831 210.896 878.083 215.352C880.335 219.808 881.461 224.834 881.461 230.443V243.81H828.757C829.158 249.212 830.337 253.469 832.289 256.57C834.241 259.674 837.192 261.901 841.145 263.252C845.097 264.6 850.327 265.275 856.836 265.275C864.141 265.275 870.849 264.029 876.957 261.521V271.135C873.852 272.441 870.372 273.436 866.521 274.142C862.666 274.836 858.641 275.186 854.437 275.186ZM828.757 234.947H870.504V229.091C870.504 223.284 868.976 218.806 865.92 215.652C862.865 212.499 857.838 210.919 850.83 210.919C842.316 210.919 836.512 212.923 833.408 216.929C830.303 220.934 828.757 226.937 828.757 234.947Z" fill="#007EA7"/>
<path d="M921.101 275.186C916.495 275.186 912.114 274.885 907.963 274.285C903.811 273.684 900.327 272.884 897.527 271.882V261.071C900.928 262.272 904.509 263.177 908.263 263.774C912.017 264.374 915.745 264.675 919.446 264.675C925.756 264.675 930.261 263.995 932.964 262.648C935.666 261.3 937.018 258.77 937.018 255.065C937.018 252.358 936.29 250.308 934.841 248.904C933.388 247.504 931.184 246.254 928.234 245.151C925.279 244.051 921.499 242.744 916.893 241.247C912.786 239.846 909.138 238.394 905.932 236.896C902.726 235.394 900.226 233.363 898.424 230.811C896.626 228.258 895.721 224.831 895.721 220.525C895.721 214.218 897.925 209.391 902.328 206.039C906.731 202.686 913.838 201.008 923.654 201.008C927.457 201.008 931.109 201.286 934.615 201.834C938.118 202.386 941.17 203.062 943.771 203.861V214.673C937.465 212.57 931.41 211.519 925.602 211.519C919.393 211.519 914.915 212.146 912.163 213.396C909.412 214.65 908.034 216.978 908.034 220.379C908.034 222.68 908.657 224.508 909.911 225.856C911.161 227.211 913.117 228.363 915.767 229.313C918.417 230.263 921.848 231.441 926.053 232.842C931.556 234.542 936.012 236.295 939.417 238.093C942.821 239.891 945.321 242.099 946.924 244.7C948.527 247.305 949.331 250.71 949.331 254.911C949.331 261.919 946.876 267.051 941.969 270.305C937.063 273.56 930.114 275.186 921.101 275.186Z" fill="#007EA7"/>
<path d="M970.803 273.684V212.274H959.842L961.043 202.514H983.116V273.684H970.803ZM969.598 185.846V174.585H983.266V185.846H969.598Z" fill="#007EA7"/>
<path d="M1031.91 300.115C1026.61 300.115 1021.43 299.815 1016.37 299.214C1011.32 298.614 1006.99 297.66 1003.38 296.361V286.147C1007.39 287.446 1011.89 288.448 1016.9 289.154C1021.91 289.852 1026.71 290.201 1031.31 290.201C1038.82 290.201 1044.33 289.751 1047.83 288.854C1051.34 287.953 1053.09 285.648 1053.09 281.946C1053.09 279.341 1052.16 277.487 1050.31 276.391C1048.45 275.287 1045.18 274.739 1040.47 274.739H1021.55C1008.44 274.739 1001.88 270.336 1001.88 261.521C1001.88 258.623 1002.81 255.845 1004.66 253.191C1006.51 250.537 1009.29 248.66 1013 247.561C1008.99 245.56 1006.04 242.782 1004.13 239.223C1002.23 235.672 1001.28 231.445 1001.28 226.535C1001.28 217.627 1003.86 211.14 1009.02 207.086C1014.17 203.036 1022.06 201.008 1032.67 201.008C1034.87 201.008 1037.15 201.185 1039.5 201.534C1041.85 201.887 1043.67 202.213 1044.98 202.514H1070.66L1070.21 210.919H1057.29C1059.59 212.822 1061.25 215.101 1062.25 217.751C1063.25 220.401 1063.75 223.333 1063.75 226.535C1063.75 234.441 1061.45 240.575 1056.84 244.925C1052.24 249.28 1045.18 251.457 1035.67 251.457C1034.06 251.457 1032.64 251.382 1031.39 251.232C1030.13 251.082 1028.65 250.905 1026.95 250.706C1023.85 250.804 1020.95 251.682 1018.25 253.33C1015.55 254.982 1014.19 257.114 1014.19 259.712C1014.19 261.416 1014.87 262.666 1016.22 263.466C1017.57 264.269 1020.05 264.667 1023.65 264.667H1043.32C1050.43 264.667 1055.89 266.094 1059.69 268.947C1063.49 271.8 1065.39 275.978 1065.39 281.485C1065.39 288.493 1062.49 293.347 1056.69 296.053C1050.88 298.764 1042.62 300.115 1031.91 300.115ZM1032.66 242.155C1039.77 242.155 1044.68 241.006 1047.38 238.701C1050.08 236.4 1051.43 232.346 1051.43 226.539C1051.43 220.735 1050.01 216.531 1047.15 213.926C1044.3 211.324 1039.47 210.025 1032.66 210.025C1025.96 210.025 1021.1 211.275 1018.1 213.779C1015.1 216.279 1013.59 220.533 1013.59 226.539C1013.59 232.046 1015.02 236.021 1017.87 238.48C1020.73 240.927 1025.66 242.155 1032.66 242.155Z" fill="#007EA7"/>
<path d="M1082.67 273.684V202.514H1093.78L1094.53 210.622C1097.93 207.818 1101.91 205.513 1106.47 203.711C1111.02 201.913 1116.25 201.008 1122.16 201.008C1131.17 201.008 1137.72 203.114 1141.83 207.315C1145.93 211.519 1147.99 218.13 1147.99 227.136V273.68H1135.68V227.59C1135.68 221.385 1134.42 217.053 1131.92 214.598C1129.42 212.15 1124.61 210.923 1117.51 210.923C1113.1 210.923 1108.95 211.726 1105.04 213.325C1101.14 214.932 1097.78 217.131 1094.98 219.936V273.688L1082.67 273.684Z" fill="#007EA7"/>
<path d="M349.108 331.246H450.306L352.809 106.012H337.959L239.494 331.246H253.699L345.05 119.338L430.992 319.553L349.149 319.808L349.108 331.246Z" fill="#007EA7"/>
<path d="M300.544 106.012H203.464V117.274H288.76L202.256 317.631L111.524 106.012H97L194.493 335H209.343L307.808 106.012H300.544Z" fill="#007EA7"/>
</g>
</g>
<defs>
<filter id="filter0_d_232_125" x="15" y="15" width="1244" height="448" filterUnits="userSpaceOnUse" color-interpolation-filters="sRGB">
<feFlood flood-opacity="0" result="BackgroundImageFix"/>
<feColorMatrix in="SourceAlpha" type="matrix" values="0 0 0 0 0 0 0 0 0 0 0 0 0 0 0 0 0 0 127 0" result="hardAlpha"/>
<feOffset dx="10" dy="20"/>
<feGaussianBlur stdDeviation="10"/>
<feComposite in2="hardAlpha" operator="out"/>
<feColorMatrix type="matrix" values="0 0 0 0 0 0 0 0 0 0 0 0 0 0 0 0 0 0 0.05 0"/>
<feBlend mode="normal" in2="BackgroundImageFix" result="effect1_dropShadow_232_125"/>
<feBlend mode="normal" in="SourceGraphic" in2="effect1_dropShadow_232_125" result="shape"/>
</filter>
<filter id="filter1_d_232_125" x="21" y="15" width="1212" height="416" filterUnits="userSpaceOnUse" color-interpolation-filters="sRGB">
<feFlood flood-opacity="0" result="BackgroundImageFix"/>
<feColorMatrix in="SourceAlpha" type="matrix" values="0 0 0 0 0 0 0 0 0 0 0 0 0 0 0 0 0 0 127 0" result="hardAlpha"/>
<feOffset dy="4"/>
<feGaussianBlur stdDeviation="2"/>
<feComposite in2="hardAlpha" operator="out"/>
<feColorMatrix type="matrix" values="0 0 0 0 0 0 0 0 0 0 0 0 0 0 0 0 0 0 0.25 0"/>
<feBlend mode="normal" in2="BackgroundImageFix" result="effect1_dropShadow_232_125"/>
<feBlend mode="normal" in="SourceGraphic" in2="effect1_dropShadow_232_125" result="shape"/>
</filter>
<clipPath id="clip0_232_125">
<rect width="1254" height="438" fill="white"/>
</clipPath>
</defs>
</svg>
