<svg width="1000" height="1000" viewBox="0 0 1000 1000" fill="none" xmlns="http://www.w3.org/2000/svg">
<rect width="1000" height="1000" fill="white"/>
<g clip-path="url(#clip0_218_44)">
<path d="M579.288 507.121C579.288 483.716 569.269 463.036 535.385 463.036C518.001 463.036 504.191 467.991 496.704 472.328L502.192 491.105C509.085 486.78 520.085 483.219 530.467 483.219C547.621 483.195 550.431 492.898 550.431 499.137V500.639C512.986 500.579 489.314 513.517 489.314 539.866C489.314 555.966 501.332 571.06 522.338 571.06C535.155 571.06 545.985 565.888 552.454 557.722H553.084C553.084 557.722 557.349 575.567 580.936 568.747C579.736 561.272 579.288 553.398 579.288 543.827V507.121ZM551.353 531.834C551.353 533.724 551.195 535.686 550.638 537.37C548.481 544.578 541.043 550.611 531.787 550.611C523.974 550.611 517.844 546.19 517.844 536.922C517.844 522.748 533.495 518.847 551.353 518.944" fill="#0071CE"/>
<path d="M6 431.191C6 431.191 30.4587 531.256 34.3476 547.465C38.9268 566.412 47.1282 573.414 70.7999 568.75L86.0882 506.7C89.9527 491.327 92.5813 480.303 95.0771 464.639H95.5008C97.2332 480.46 99.7291 491.327 102.891 506.749C102.891 506.749 109.129 534.939 112.364 549.706C115.514 564.474 124.382 573.79 147.605 568.75L183.997 431.191H154.619L142.129 490.697C138.822 507.936 135.818 521.516 133.48 537.313H133.056C130.948 521.686 128.27 508.663 124.83 491.775L111.892 431.191H81.2425L67.4319 490.225C63.4946 508.251 59.812 522.703 57.498 538.004H57.0984C54.7119 523.648 51.4774 505.368 48.0488 488.02C48.0488 488.02 39.8473 445.753 36.9522 431.191" fill="#0071CE"/>
<path d="M265.867 507.121C265.867 483.716 255.823 463.036 221.94 463.036C204.604 463.036 190.77 467.991 183.283 472.328L188.771 491.105C195.64 486.78 206.628 483.219 217.046 483.219C234.2 483.195 237.01 492.898 237.01 499.137V500.639C199.565 500.579 175.869 513.517 175.869 539.866C175.869 555.966 187.935 571.06 208.844 571.06C221.782 571.06 232.516 565.888 238.985 557.722H239.639C239.639 557.722 243.927 575.567 267.49 568.747C266.279 561.272 265.867 553.398 265.867 543.827V507.121ZM237.907 531.834C237.907 533.724 237.75 535.686 237.216 537.37C235.035 544.578 227.597 550.611 218.318 550.611C210.552 550.611 204.398 546.19 204.398 536.922C204.398 522.748 220.05 518.847 237.907 518.944" fill="#0071CE"/>
<path d="M281.111 431.191V568.702H309.071V539.542V431.191H281.111Z" fill="#0071CE"/>
<path d="M665.102 431.191V532.649C665.102 546.653 667.73 556.418 673.387 562.402C678.355 567.648 686.483 571.064 696.162 571.064C704.473 571.064 712.602 569.465 716.442 568.072L716.103 546.229C713.232 546.896 709.949 547.465 705.442 547.465C695.896 547.465 692.746 541.42 692.746 528.845V490.007H717.096V463.73H692.746V431.191" fill="#0071CE"/>
<path d="M592.835 465.423V568.747H621.74V515.831C621.74 512.984 621.921 510.525 622.37 508.247C624.526 497.09 632.994 490.027 645.193 490.027C648.597 490.027 650.911 490.403 653.479 490.802V463.715C651.323 463.327 649.857 463.121 647.204 463.121C636.386 463.121 624.126 469.99 618.953 484.951H618.239V465.423" fill="#0071CE"/>
<path d="M325.307 465.423V568.747H353.472V508.102C353.472 505.255 353.787 502.347 354.793 499.719C357.083 493.577 362.764 486.466 371.886 486.466C383.225 486.466 388.58 496.036 388.58 509.846V568.747H416.673V507.375C416.673 504.698 417.049 501.415 417.836 499.04C420.089 492.074 426.243 486.466 434.748 486.466C446.208 486.466 451.757 495.83 451.757 512.112V568.747H479.825V507.823C479.825 475.817 463.543 463.121 445.057 463.121C436.929 463.121 430.46 465.12 424.644 468.706C419.726 471.722 415.413 475.974 411.549 481.535H411.125C406.679 470.414 396.236 463.121 382.595 463.121C365.102 463.121 357.155 471.952 352.479 479.415H352.055V465.423" fill="#0071CE"/>
<path d="M868.367 460.785C873.892 460.785 878.543 457.902 879.149 454.195L884.625 392.169C884.625 386.027 877.393 381 868.367 381C859.293 381 852.109 386.027 852.109 392.169L857.633 454.195C858.215 457.902 862.843 460.785 868.367 460.785Z" fill="#FFC220"/>
<path d="M834.771 480.194C837.509 475.348 837.351 469.969 834.396 467.571L783.273 431.821C777.955 428.72 769.995 432.415 765.44 440.241C760.897 448.054 761.818 456.825 767.027 459.866L823.626 486.106C827.248 487.463 831.984 484.943 834.771 480.145" fill="#FFC220"/>
<path d="M901.956 480.143C904.85 484.94 909.587 487.46 913.113 486.176L969.711 459.864C974.969 456.762 975.756 448.076 971.31 440.262C966.767 432.437 958.76 428.766 953.454 431.807L902.319 467.52C899.484 469.955 899.278 475.358 902.016 480.191" fill="#FFC220"/>
<path d="M868.367 538.263C873.892 538.263 878.543 541.146 879.149 544.853L884.625 606.879C884.625 613.021 877.393 618 868.367 618C859.293 618 852.109 613.021 852.109 606.879L857.633 544.853C858.215 541.146 862.843 538.263 868.367 538.263Z" fill="#FFC220"/>
<path d="M901.956 518.909C904.85 514.1 909.587 511.531 913.113 512.925L969.711 539.189C974.969 542.229 975.756 550.988 971.31 558.814C966.767 566.579 958.76 570.274 953.454 567.233L902.319 531.472C899.484 529.061 899.278 523.682 902.016 518.909" fill="#FFC220"/>
<path d="M834.771 518.856C837.509 523.689 837.351 529.056 834.396 531.479L783.273 567.18C777.955 570.281 769.995 566.574 765.44 558.809C760.897 550.995 761.818 542.224 767.027 539.184L823.626 512.92C827.248 511.539 831.984 514.083 834.771 518.856Z" fill="#FFC220"/>
<path d="M986.275 561.79H986.978C987.935 561.79 988.323 562.093 988.432 562.856C988.638 563.704 988.747 564.274 988.953 564.516H990.77C990.612 564.334 990.406 563.874 990.297 562.808C990.091 561.887 989.619 561.366 988.953 561.185V561.015C989.873 560.809 990.406 560.191 990.406 559.428C990.406 558.738 990.091 558.241 989.776 557.926C989.171 557.635 988.589 557.405 987.305 557.405C986.166 557.405 985.33 557.502 984.664 557.659V564.516H986.275V561.79ZM986.324 558.665L987.148 558.556C988.117 558.556 988.638 559.004 988.638 559.634C988.638 560.337 987.935 560.664 987.039 560.664H986.324V558.665ZM987.354 554.013C983.38 554.013 980.23 557.114 980.23 560.918C980.23 564.819 983.38 567.92 987.354 567.92C991.376 567.92 994.428 564.819 994.428 560.918C994.428 557.114 991.376 554.013 987.354 554.013ZM987.354 555.406C990.406 555.406 992.672 557.877 992.672 560.918C992.672 563.983 990.406 566.527 987.354 566.479C984.301 566.479 981.987 563.983 981.987 560.918C981.987 557.877 984.301 555.406 987.305 555.406" fill="#FFC220"/>
</g>
<defs>
<clipPath id="clip0_218_44">
<rect width="988.428" height="237" fill="white" transform="translate(6 381)"/>
</clipPath>
</defs>
</svg>
