<?xml version="1.0" encoding="utf-8"?>
<!-- Generator: Adobe Illustrator 16.0.4, SVG Export Plug-In . SVG Version: 6.00 Build 0)  -->
<!DOCTYPE svg PUBLIC "-//W3C//DTD SVG 1.1//EN" "http://www.w3.org/Graphics/SVG/1.1/DTD/svg11.dtd">
<svg version="1.1" id="Layer_3" xmlns="http://www.w3.org/2000/svg" xmlns:xlink="http://www.w3.org/1999/xlink" x="0px" y="0px"
	 width="282px" height="62.25px" viewBox="-78.361 -3.75 282 62.25" enable-background="new -78.361 -3.75 282 62.25"
	 xml:space="preserve">
<g>
	<g>
		<path fill="#405878" d="M21.203,57.594v-60.63h3.182L50.53,56.132h-2.408L74.352-3.036h3.096v60.63h-3.354V0.49h2.063
			L50.874,57.594h-3.01l-25.37-57.19h2.064v57.19H21.203z"/>
	</g>
	<g>
		<path fill="#405878" d="M100.39,42.566c-2.667,0-4.761-0.74-6.28-2.22s-2.279-3.94-2.279-7.38c0-3.414,0.793-5.961,2.379-7.641
			c1.587-1.68,3.714-2.52,6.381-2.52c2.373,0,4.426,0.6,6.16,1.8v-9.4h3.279v26.959h-2.8l-0.239-2
			c-0.881,0.827-1.848,1.434-2.9,1.82C103.036,42.373,101.803,42.566,100.39,42.566z M101.23,39.926c1.093,0,2.106-0.186,3.04-0.559
			c0.934-0.374,1.76-0.947,2.48-1.721v-10.32c-0.668-0.586-1.454-1.046-2.36-1.38c-0.907-0.333-1.934-0.5-3.08-0.5
			c-2.106,0-3.667,0.606-4.681,1.82s-1.52,3.114-1.52,5.7c0,2.479,0.467,4.26,1.4,5.34S99.016,39.926,101.23,39.926z"/>
		<path fill="#405878" d="M124.551,42.566c-3.388,0-5.92-0.812-7.601-2.439c-1.68-1.627-2.52-4.134-2.52-7.521
			c0-3.04,0.727-5.433,2.18-7.181c1.453-1.746,3.754-2.619,6.9-2.619c1.866,0,3.406,0.34,4.62,1.02
			c1.213,0.68,2.12,1.614,2.72,2.801s0.9,2.526,0.9,4.02v3.561H117.71c0.107,1.439,0.421,2.573,0.941,3.399
			c0.52,0.827,1.306,1.42,2.359,1.78c1.053,0.359,2.446,0.539,4.18,0.539c1.946,0,3.733-0.332,5.36-1v2.561
			c-0.827,0.348-1.754,0.613-2.78,0.801C126.743,42.473,125.671,42.566,124.551,42.566z M117.71,31.847h11.121v-1.56
			c0-1.547-0.407-2.74-1.221-3.58s-2.153-1.261-4.02-1.261c-2.268,0-3.814,0.534-4.641,1.601S117.71,29.713,117.71,31.847z"/>
		<path fill="#405878" d="M142.31,42.566c-1.227,0-2.394-0.08-3.5-0.24s-2.034-0.373-2.78-0.64v-2.88
			c0.906,0.32,1.86,0.561,2.86,0.72c1,0.16,1.993,0.24,2.979,0.24c1.681,0,2.881-0.181,3.601-0.54s1.08-1.033,1.08-2.02
			c0-0.721-0.194-1.267-0.58-1.641c-0.387-0.373-0.974-0.706-1.76-1c-0.787-0.293-1.794-0.641-3.021-1.04
			c-1.094-0.373-2.066-0.76-2.92-1.159c-0.854-0.4-1.52-0.941-2-1.621c-0.479-0.68-0.72-1.593-0.72-2.74
			c0-1.68,0.587-2.966,1.76-3.859c1.173-0.893,3.066-1.34,5.681-1.34c1.013,0,1.986,0.074,2.92,0.22
			c0.933,0.147,1.746,0.327,2.439,0.54v2.88c-1.68-0.56-3.293-0.84-4.84-0.84c-1.654,0-2.847,0.167-3.58,0.5
			c-0.733,0.334-1.1,0.954-1.1,1.86c0,0.613,0.166,1.1,0.5,1.459c0.333,0.361,0.854,0.668,1.56,0.921s1.62,0.567,2.74,0.94
			c1.466,0.453,2.653,0.92,3.56,1.399s1.573,1.067,2,1.76c0.427,0.694,0.641,1.601,0.641,2.72c0,1.867-0.654,3.234-1.961,4.101
			S144.711,42.566,142.31,42.566z"/>
		<path fill="#405878" d="M155.55,42.166V25.807h-2.92l0.32-2.6h5.88v18.959H155.55z M155.229,18.767v-3h3.641v3H155.229z"/>
		<path fill="#405878" d="M171.829,49.207c-1.414,0-2.793-0.08-4.14-0.24s-2.5-0.414-3.46-0.76v-2.721
			c1.066,0.346,2.266,0.613,3.6,0.801c1.334,0.186,2.613,0.279,3.84,0.279c2,0,3.467-0.12,4.4-0.359c0.934-0.24,1.4-0.854,1.4-1.84
			c0-0.694-0.247-1.188-0.74-1.48c-0.494-0.294-1.367-0.44-2.62-0.44h-5.04c-3.494,0-5.24-1.173-5.24-3.521
			c0-0.772,0.246-1.512,0.74-2.219c0.493-0.707,1.233-1.207,2.221-1.5c-1.067-0.533-1.854-1.273-2.361-2.221
			c-0.506-0.946-0.76-2.072-0.76-3.38c0-2.373,0.687-4.101,2.061-5.181c1.373-1.079,3.473-1.619,6.3-1.619
			c0.587,0,1.193,0.047,1.82,0.14c0.626,0.094,1.112,0.181,1.46,0.261h6.84l-0.12,2.239h-3.44c0.613,0.507,1.054,1.114,1.32,1.82
			s0.4,1.487,0.4,2.34c0,2.106-0.613,3.74-1.84,4.899c-1.227,1.16-3.107,1.74-5.641,1.74c-0.427,0-0.807-0.02-1.14-0.06
			c-0.334-0.04-0.728-0.087-1.181-0.14c-0.826,0.026-1.6,0.26-2.319,0.699c-0.72,0.44-1.08,1.008-1.08,1.7
			c0,0.454,0.181,0.787,0.54,1c0.359,0.214,1.02,0.32,1.98,0.32h5.24c1.893,0,3.346,0.38,4.359,1.14s1.52,1.873,1.52,3.34
			c0,1.867-0.773,3.16-2.32,3.881C176.882,48.847,174.682,49.207,171.829,49.207z M172.029,33.767c1.894,0,3.2-0.306,3.92-0.92
			c0.72-0.613,1.08-1.693,1.08-3.24c0-1.546-0.38-2.666-1.14-3.36c-0.76-0.693-2.047-1.039-3.86-1.039c-1.786,0-3.08,0.333-3.88,1
			c-0.8,0.666-1.2,1.799-1.2,3.399c0,1.467,0.38,2.526,1.14,3.181C168.849,33.44,170.163,33.767,172.029,33.767z"/>
		<path fill="#405878" d="M185.349,42.166V23.207h2.96l0.2,2.16c0.906-0.747,1.966-1.361,3.181-1.841
			c1.213-0.479,2.605-0.72,4.18-0.72c2.4,0,4.146,0.561,5.24,1.68c1.093,1.12,1.64,2.881,1.64,5.28v12.399h-3.28V29.887
			c0-1.653-0.334-2.807-1-3.461c-0.667-0.652-1.947-0.979-3.84-0.979c-1.174,0-2.28,0.214-3.32,0.64
			c-1.039,0.428-1.934,1.014-2.68,1.761v14.319H185.349z"/>
	</g>
	<polygon fill="#405878" points="-10.063,57.5 16.895,57.5 -9.077,-2.5 -13.033,-2.5 -39.263,57.5 -35.479,57.5 -11.144,1.05 
		11.75,54.385 -10.052,54.453 	"/>
	<polygon fill="#405878" points="-23,-2.5 -48.861,-2.5 -48.861,0.5 -26.139,0.5 -49.183,53.873 -73.353,-2.5 -77.222,-2.5 
		-51.251,58.5 -47.295,58.5 -21.065,-2.5 	"/>
</g>
</svg>
